<?xml version="1.0" encoding="UTF-8"?>
<svg version="1.1" xmlns="http://www.w3.org/2000/svg" width="500" height="500">
<path d="M0 0 C15.59470436 -0.32071371 31.12283449 1.32124115 45.9765625 6.125 C46.65138672 6.33640625 47.32621094 6.5478125 48.02148438 6.765625 C62.40413059 11.30890351 75.06078174 17.7920561 87.390625 26.4609375 C89.95190228 28.10913104 92.0112176 29.40382812 94.9765625 30.125 C97.28053367 29.11423777 97.28053367 29.11423777 99.4140625 27.25 C122.27385161 10.02918398 149.58705604 1.36590593 177.9765625 0.125 C178.91757812 0.08246094 179.85859375 0.03992188 180.828125 -0.00390625 C198.91211935 -0.39477068 215.87045634 2.4093115 232.9765625 8.125 C234.15476562 8.50527344 235.33296875 8.88554688 236.546875 9.27734375 C255.35055754 15.89869061 271.60129783 27.54082694 285.9765625 41.125 C286.83765625 41.91003906 287.69875 42.69507813 288.5859375 43.50390625 C301.64547324 55.86517202 311.31113115 70.95045774 318.9765625 87.125 C319.52828125 88.25164062 320.08 89.37828125 320.6484375 90.5390625 C335.94780528 124.84434592 335.24834122 166.24105817 322.17431641 201.0703125 C316.83051578 214.58349031 309.87964016 226.6115054 300.9765625 238.125 C300.28175781 239.02476562 299.58695312 239.92453125 298.87109375 240.8515625 C295.45289875 245.19966046 292.03662016 249.35494646 287.9765625 253.125 C287.27015625 253.79015625 286.56375 254.4553125 285.8359375 255.140625 C255.10047573 283.55642928 217.32172625 296.32194295 175.9140625 295.265625 C168.48377376 294.90991969 161.2543712 293.59592725 153.9765625 292.125 C153.25807129 291.99109863 152.53958008 291.85719727 151.79931641 291.71923828 C140.05652038 289.51596179 129.66807662 285.40360249 118.9765625 280.125 C118.3573291 279.82158691 117.7380957 279.51817383 117.10009766 279.20556641 C109.90398012 275.63445565 103.59640381 271.56983767 97.4140625 266.43359375 C95.07136728 264.8400692 95.07136728 264.8400692 92.59765625 265.6171875 C89.29152074 267.51907767 86.1631191 269.63085767 83.0390625 271.8125 C52.42051863 292.54699285 13.68363178 299.8686723 -22.609375 293.03125 C-24.08163067 292.73359134 -25.55302593 292.43163864 -27.0234375 292.125 C-27.70954102 291.98578125 -28.39564453 291.8465625 -29.10253906 291.703125 C-50.22458412 287.29717451 -68.99349616 278.35653493 -86.0234375 265.125 C-87.37888672 264.07699219 -87.37888672 264.07699219 -88.76171875 263.0078125 C-119.64529254 238.45821071 -138.53015415 203.26159374 -143.0234375 164.125 C-143.15363281 163.06667969 -143.28382813 162.00835937 -143.41796875 160.91796875 C-144.5546996 150.32363722 -144.14254789 139.86016779 -142.7734375 129.3125 C-142.63776367 128.26497559 -142.50208984 127.21745117 -142.36230469 126.13818359 C-137.20820472 88.42483136 -116.58008476 53.0275927 -86.29882812 29.80224609 C-60.53110062 10.90543594 -31.79924032 1.31469727 0 0 Z " fill="#FE9F01" transform="translate(157.0234375,101.875)"/>
<path d="M0 0 C15.59470436 -0.32071371 31.12283449 1.32124115 45.9765625 6.125 C46.65138672 6.33640625 47.32621094 6.5478125 48.02148438 6.765625 C61.71259566 11.09045722 83.52338081 18.45901631 91.8046875 30.86328125 C92.19140625 31.60964844 92.578125 32.35601562 92.9765625 33.125 C91.69028539 34.29760611 90.39736467 35.4629283 89.1015625 36.625 C88.38226563 37.2746875 87.66296875 37.924375 86.921875 38.59375 C84.9765625 40.125 84.9765625 40.125 82.9765625 40.125 C82.9353125 40.681875 82.8940625 41.23875 82.8515625 41.8125 C81.78698977 44.62601363 80.17443483 45.64396482 77.8515625 47.453125 C73.69136193 51.16263717 70.41309777 55.7579949 66.9765625 60.125 C66.42742187 60.785 65.87828125 61.445 65.3125 62.125 C60.85172084 67.65922869 57.86045475 73.92897503 54.83349609 80.32128906 C54.01634702 82.04125982 53.17859864 83.75139889 52.33984375 85.4609375 C48.78509444 92.85696502 46.22161357 100.24403236 43.9765625 108.125 C43.61433594 109.23617187 43.25210938 110.34734375 42.87890625 111.4921875 C40.067008 120.38141423 39.16963066 128.86979528 38.9765625 138.125 C38.95078125 138.92325195 38.925 139.72150391 38.8984375 140.54394531 C38.08912067 166.71522822 42.1819374 194.38347335 55.9765625 217.125 C56.81118928 218.77017779 57.64445628 220.41604592 58.4765625 222.0625 C66.48695015 236.7778788 79.0538321 250.60908186 91.9765625 261.125 C90.9865625 261.455 89.9965625 261.785 88.9765625 262.125 C88.6465625 261.795 88.3165625 261.465 87.9765625 261.125 C87.9765625 263.105 87.9765625 265.085 87.9765625 267.125 C86.3265625 267.125 84.6765625 267.125 82.9765625 267.125 C82.9765625 267.785 82.9765625 268.445 82.9765625 269.125 C81.9865625 269.125 80.9965625 269.125 79.9765625 269.125 C79.6465625 270.115 79.3165625 271.105 78.9765625 272.125 C78.9765625 271.465 78.9765625 270.805 78.9765625 270.125 C78.3165625 270.125 77.6565625 270.125 76.9765625 270.125 C76.6465625 271.775 76.3165625 273.425 75.9765625 275.125 C73.9965625 275.125 72.0165625 275.125 69.9765625 275.125 C69.9765625 276.115 69.9765625 277.105 69.9765625 278.125 C68.8834375 278.393125 67.7903125 278.66125 66.6640625 278.9375 C63.01383229 280.11299786 62.44583824 280.58013419 59.9765625 283.125 C52.07735983 288.25706854 43.06951077 290.25493324 33.9765625 292.125 C33.24791992 292.27743164 32.51927734 292.42986328 31.76855469 292.58691406 C12.13271104 296.55522293 -7.44563992 296.20774071 -27.0234375 292.125 C-27.70954102 291.98578125 -28.39564453 291.8465625 -29.10253906 291.703125 C-50.22458412 287.29717451 -68.99349616 278.35653493 -86.0234375 265.125 C-87.37888672 264.07699219 -87.37888672 264.07699219 -88.76171875 263.0078125 C-119.64529254 238.45821071 -138.53015415 203.26159374 -143.0234375 164.125 C-143.15363281 163.06667969 -143.28382813 162.00835937 -143.41796875 160.91796875 C-144.5546996 150.32363722 -144.14254789 139.86016779 -142.7734375 129.3125 C-142.63776367 128.26497559 -142.50208984 127.21745117 -142.36230469 126.13818359 C-137.20820472 88.42483136 -116.58008476 53.0275927 -86.29882812 29.80224609 C-60.53110062 10.90543594 -31.79924032 1.31469727 0 0 Z " fill="#FE0015" transform="translate(157.0234375,101.875)"/>
<path d="M0 0 C6.29888856 3.93680535 12.11213852 8.52199445 16.8125 14.3125 C18.89880609 17.14569422 18.89880609 17.14569422 22 19 C23.02137457 20.65365406 24.01612294 22.32376502 25 24 C26.5398207 26.03288664 28.10702888 28.03992434 29.6953125 30.03515625 C31.03284848 32.04946941 31.56862872 33.63797922 32 36 C32.66 36 33.32 36 34 36 C36.51273005 38.73122832 37.79708719 41.73661507 39.18359375 45.1484375 C40.27001484 47.61237815 41.67039203 49.87566823 43.03125 52.1953125 C44.35597388 54.66314489 45.28575902 57.20703636 46.21875 59.84375 C47.07274097 62.20076507 48.0337558 64.49936995 49 66.8125 C52.75073467 76.22759021 54.59897657 85.63637752 55.6875 95.6875 C55.81342529 96.83089844 55.93935059 97.97429687 56.0690918 99.15234375 C56.97493163 107.82681807 57.49824304 116.27621726 57 125 C56.96277832 125.68368652 56.92555664 126.36737305 56.88720703 127.07177734 C54.79868757 160.89355224 39.0156977 196.59540114 14.046875 219.81640625 C12.0557257 221.57576145 10.03819392 223.29547491 8 225 C6.76917324 226.03970459 5.53992881 227.08128613 4.3125 228.125 C3.79300781 228.56070313 3.27351563 228.99640625 2.73828125 229.4453125 C1.33203284 230.70303579 0.00030299 232.04375145 -1.3046875 233.40625 C-4.14147103 236.13614024 -7.12239578 238.28720959 -10.4375 240.375 C-11.33915894 240.94710205 -11.33915894 240.94710205 -12.2590332 241.53076172 C-18.54888476 245.44977913 -25.08727142 249.30280986 -32 252 C-32.99 251.67 -33.98 251.34 -35 251 C-34.38125 250.9175 -33.7625 250.835 -33.125 250.75 C-30.81562433 250.18741541 -30.81562433 250.18741541 -29.75 247.9375 C-29.5025 247.298125 -29.255 246.65875 -29 246 C-27.02 246 -25.04 246 -23 246 C-23 245.01 -23 244.02 -23 243 C-21.02 242.67 -19.04 242.34 -17 242 C-16.67 240.68 -16.34 239.36 -16 238 C-14.02 237.67 -12.04 237.34 -10 237 C-10 236.34 -10 235.68 -10 235 C-8.35 235 -6.7 235 -5 235 C-5.495 231.535 -5.495 231.535 -6 228 C-5.01 228 -4.02 228 -3 228 C-3.49628906 227.57589844 -3.99257812 227.15179688 -4.50390625 226.71484375 C-22.2514846 211.39198199 -34.81810033 193.54065914 -44 172 C-44.31582031 171.30390625 -44.63164062 170.6078125 -44.95703125 169.890625 C-53.42550113 150.32204919 -55.53509119 129.54918776 -55.04882812 108.45556641 C-55.00566925 106.28510648 -55.00471438 104.11988696 -55.015625 101.94921875 C-54.56240639 80.12674276 -45.29298123 57.36507097 -34 39 C-33.3700123 37.81513851 -32.74419258 36.62803845 -32.125 35.4375 C-29.11363872 30.14831416 -24.93160102 25.6136791 -21 21 C-20.24332031 20.10667969 -19.48664063 19.21335938 -18.70703125 18.29296875 C-14.66136926 13.61356007 -14.66136926 13.61356007 -13 12 C-12.34 12 -11.68 12 -11 12 C-10.91621094 11.40445313 -10.83242187 10.80890625 -10.74609375 10.1953125 C-9.78111471 7.35595009 -8.50669564 6.56339554 -6.0625 4.875 C-3.84290071 3.320072 -1.92118997 1.92118997 0 0 Z " fill="#FE5F01" transform="translate(250,134)"/>
<path d="M0 0 C0.98437646 3.14937308 0.97587391 5.48106898 0.4765625 8.73046875 C0.3425 9.61541016 0.2084375 10.50035156 0.0703125 11.41210938 C-0.07664062 12.32798828 -0.22359375 13.24386719 -0.375 14.1875 C-0.58382813 15.5787207 -0.58382813 15.5787207 -0.796875 16.99804688 C-1.86124865 23.86124865 -1.86124865 23.86124865 -3 25 C-4.00717015 31.18487584 -4.15626747 37.2432149 -4.125 43.5 C-4.12234131 44.45890137 -4.11968262 45.41780273 -4.11694336 46.40576172 C-4.34633097 59.79412198 -4.34633097 59.79412198 -2.5 72.95166016 C-1.67553622 76.32922418 -1.62396884 79.78962746 -1.4375 83.25 C-1.39431641 83.99507813 -1.35113281 84.74015625 -1.30664062 85.5078125 C-1.20103275 87.338349 -1.10005799 89.16915176 -1 91 C-5.98683272 83.51975093 -6.15343216 71.62416491 -7.1875 62.75 C-7.31318359 61.70767212 -7.31318359 61.70767212 -7.44140625 60.64428711 C-8.54596739 50.41876475 -8.06786325 40.36636921 -6.75 30.1875 C-6.61867676 29.15085205 -6.48735352 28.1142041 -6.35205078 27.04614258 C-5.09703384 17.71621609 -2.97672482 8.93017446 0 0 Z " fill="#EE5663" transform="translate(21,201)"/>
<path d="M0 0 C16.89123359 -0.3650843 33.10552158 1.93971616 49.1484375 7.12890625 C49.1484375 7.45890625 49.1484375 7.78890625 49.1484375 8.12890625 C43.8684375 7.79890625 38.5884375 7.46890625 33.1484375 7.12890625 C33.1484375 6.46890625 33.1484375 5.80890625 33.1484375 5.12890625 C32.10042969 5.14630859 32.10042969 5.14630859 31.03125 5.1640625 C29.66613281 5.17759766 29.66613281 5.17759766 28.2734375 5.19140625 C26.91605469 5.20880859 26.91605469 5.20880859 25.53125 5.2265625 C23.1484375 5.12890625 23.1484375 5.12890625 21.1484375 4.12890625 C18.65327255 4.03013581 16.18669465 3.98905594 13.69140625 3.99609375 C12.95142899 3.99513702 12.21145172 3.9941803 11.4490509 3.99319458 C9.88131628 3.99251352 8.31357883 3.99436268 6.74584961 3.99853516 C4.35589172 4.00386178 1.96612372 3.99859951 -0.42382812 3.9921875 C-1.94791708 3.99284874 -3.47200592 3.99413085 -4.99609375 3.99609375 C-5.70772171 3.99406952 -6.41934967 3.99204529 -7.15254211 3.98995972 C-10.85798906 4.00729262 -14.23991623 4.32793314 -17.8515625 5.12890625 C-20.46638208 5.19664769 -23.05135506 5.22390883 -25.6640625 5.19140625 C-26.35693359 5.18689453 -27.04980469 5.18238281 -27.76367188 5.17773438 C-29.45967318 5.16603781 -31.15562953 5.14810549 -32.8515625 5.12890625 C-23.21186593 -0.16738681 -10.6869106 0.48310692 0 0 Z " fill="#F6C062" transform="translate(337.8515625,101.87109375)"/>
<path d="M0 0 C0.33 0 0.66 0 1 0 C1.04241723 2.33294775 1.04092937 4.66702567 1 7 C0.67 7.33 0.34 7.66 0 8 C-1.96237583 17.56157611 -2.31747853 27.04026388 -2.26074219 36.75854492 C-2.25002508 38.93241353 -2.26070922 41.10545308 -2.2734375 43.27929688 C-2.35116412 59.64838942 -2.35116412 59.64838942 1.5625 75.375 C3.24355197 79.61417452 3.69683687 83.48391472 4 88 C-5.62339157 78.37660843 -5.15881179 53.26855017 -5.1875 40.5 C-5.15750063 36.99891613 -5.08683557 33.50008904 -5 30 C-4.98598145 29.25121582 -4.97196289 28.50243164 -4.95751953 27.73095703 C-4.73989316 17.92879599 -3.11297137 9.26651944 0 0 Z " fill="#FE4A0E" transform="translate(200,210)"/>
<path d="M0 0 C0.87591797 0.07831055 1.75183594 0.15662109 2.65429688 0.23730469 C8.31756085 0.79677172 13.71685956 1.79211799 19.25 3.125 C19.25 3.455 19.25 3.785 19.25 4.125 C15.3164772 4.29602273 12.03611919 4.11995721 8.2265625 3.1328125 C0.62255088 1.56173572 -7.10782827 1.82706201 -14.83740234 1.86425781 C-17.50771499 1.87503113 -20.17736334 1.86428984 -22.84765625 1.8515625 C-24.5598973 1.85288327 -26.27213795 1.85544396 -27.984375 1.859375 C-28.77511414 1.85532654 -29.56585327 1.85127808 -30.3805542 1.84710693 C-35.93476836 1.89391421 -40.25129554 3.05412666 -45.375 5.25 C-50.47060129 6.57108182 -55.5149374 6.27747755 -60.75 6.125 C-43.46906857 -3.13406719 -18.892112 -1.70015879 0 0 Z " fill="#EF9CA8" transform="translate(177.75,102.875)"/>
<path d="M0 0 C3.95862931 0.13842295 7.91681327 0.28699006 11.875 0.4375 C13.56689453 0.49647461 13.56689453 0.49647461 15.29296875 0.55664062 C16.36933594 0.59853516 17.44570313 0.64042969 18.5546875 0.68359375 C19.54968262 0.72025146 20.54467773 0.75690918 21.56982422 0.79467773 C24 1 24 1 26 2 C28.69893181 2.08675538 31.37169231 2.11557897 34.0703125 2.09765625 C34.86654022 2.0962413 35.66276794 2.09482635 36.48312378 2.09336853 C39.0304538 2.08776345 41.57769647 2.07521014 44.125 2.0625 C45.85025915 2.05748565 47.57551967 2.05292263 49.30078125 2.04882812 C53.53388791 2.03779237 57.76692914 2.02052436 62 2 C62 2.33 62 2.66 62 3 C43.99492472 6.49491929 25.8467387 5.8154528 7.90576172 2.36376953 C5.27818298 1.86222043 2.64015485 1.42959866 0 1 C0 0.67 0 0.34 0 0 Z " fill="#F8C56E" transform="translate(305,392)"/>
<path d="M0 0 C10.17240267 20.34480534 6.59512421 48.63168027 2 70 C1.67 70 1.34 70 1 70 C0.94443262 68.52129029 0.90652488 67.04191756 0.875 65.5625 C0.85179687 64.73878906 0.82859375 63.91507812 0.8046875 63.06640625 C0.97051927 60.46284744 1.36414178 58.38115219 1.99609375 55.875 C3.28214995 50.38413395 3.2594996 45.05346857 3.1875 39.4375 C3.18105469 38.39207031 3.17460937 37.34664062 3.16796875 36.26953125 C3.08493152 27.82049296 2.69346632 19.42066248 2 11 C1.34 11 0.68 11 0 11 C0 7.37 0 3.74 0 0 Z " fill="#FBDB98" transform="translate(483,213)"/>
<path d="M0 0 C1.98 0.66 3.96 1.32 6 2 C5.62070858 4.38887054 5.34501869 5.67853564 3.5480957 7.3527832 C2.93023193 7.74812256 2.31236816 8.14346191 1.67578125 8.55078125 C0.98307129 8.99905273 0.29036133 9.44732422 -0.42333984 9.90917969 C-1.1705127 10.37227539 -1.91768555 10.83537109 -2.6875 11.3125 C-3.44756348 11.79235352 -4.20762695 12.27220703 -4.99072266 12.76660156 C-11.68793401 16.93158264 -18.60782953 21.19390696 -26 24 C-26.99 23.67 -27.98 23.34 -29 23 C-28.071875 22.87625 -28.071875 22.87625 -27.125 22.75 C-24.81562433 22.18741541 -24.81562433 22.18741541 -23.75 19.9375 C-23.5025 19.298125 -23.255 18.65875 -23 18 C-21.02 18 -19.04 18 -17 18 C-17 17.01 -17 16.02 -17 15 C-15.02 14.67 -13.04 14.34 -11 14 C-10.67 12.68 -10.34 11.36 -10 10 C-8.02 9.67 -6.04 9.34 -4 9 C-4 8.34 -4 7.68 -4 7 C-2.35 7 -0.7 7 1 7 C0.67 4.69 0.34 2.38 0 0 Z " fill="#F05361" transform="translate(244,362)"/>
<path d="M0 0 C1.25228142 -0.0049926 1.25228142 -0.0049926 2.52986145 -0.01008606 C4.29407198 -0.01513745 6.05829201 -0.01749494 7.82250977 -0.01733398 C10.49316603 -0.01950977 13.16340167 -0.03765486 15.83398438 -0.05664062 C24.25408387 -0.08445512 32.13154793 0.05592219 40.33203125 2.16796875 C42.70413164 2.56089335 45.07884007 2.93877006 47.45703125 3.29296875 C49.13152344 3.54433594 49.13152344 3.54433594 50.83984375 3.80078125 C52.07347656 3.98253906 52.07347656 3.98253906 53.33203125 4.16796875 C53.33203125 4.49796875 53.33203125 4.82796875 53.33203125 5.16796875 C50.36203125 4.83796875 47.39203125 4.50796875 44.33203125 4.16796875 C44.33203125 4.82796875 44.33203125 5.48796875 44.33203125 6.16796875 C39.45703125 5.29296875 39.45703125 5.29296875 38.33203125 4.16796875 C29.70651193 1.7483977 20.90165335 1.88956961 12.03076172 1.9621582 C9.67665044 1.98070814 7.3229276 1.98266533 4.96875 1.98242188 C3.47265282 1.9873278 1.9765583 1.99315203 0.48046875 2 C-0.22357086 2.00111282 -0.92761047 2.00222565 -1.65298462 2.00337219 C-4.94290608 1.75476522 -4.94290608 1.75476522 -7.66796875 3.16796875 C-10.00094308 3.20889812 -12.335021 3.21038598 -14.66796875 3.16796875 C-14.33796875 2.50796875 -14.00796875 1.84796875 -13.66796875 1.16796875 C-9.22199898 -0.18403148 -4.60527118 0.00643906 0 0 Z " fill="#E31322" transform="translate(149.66796875,103.83203125)"/>
<path d="M0 0 C0.66 0.33 1.32 0.66 2 1 C-1.17603675 4.26678065 -4.42035723 7.18742354 -8 10 C-9.14668572 11.01987577 -10.29246243 12.04077417 -11.4375 13.0625 C-13.66040793 14.9973421 -15.2776513 16.12725684 -18 17.375 C-22.31219454 19.71077204 -24.9600562 23.21356112 -28 27 C-28.66 26.67 -29.32 26.34 -30 26 C-21.37093481 15.45663707 -11.51610463 7.19505315 0 0 Z " fill="#F26D77" transform="translate(81,125)"/>
<path d="M0 0 C8.14108722 7.37786029 14.38351821 17.08505615 19 27 C19 27.66 19 28.32 19 29 C17 29 17 29 15.4375 27.5 C14.963125 27.005 14.48875 26.51 14 26 C13.67 26 13.34 26 13 26 C12.7525 24.72125 12.505 23.4425 12.25 22.125 C11.75683953 19.92341605 11.75683953 19.92341605 11 18 C9.03327085 16.8499169 9.03327085 16.8499169 7 16 C6.26919734 14.02253397 5.60578253 12.01927511 5 10 C4.505 9.34 4.01 8.68 3.5 8 C1.62181647 5.49575529 0.88131299 2.98290552 0 0 Z " fill="#F6BE5B" transform="translate(454,156)"/>
<path d="M0 0 C-26.71982926 12.35529703 -26.71982926 12.35529703 -41 13 C-41 12.01 -41 11.02 -41 10 C-40.18015625 9.95101563 -39.3603125 9.90203125 -38.515625 9.8515625 C-37.43796875 9.77679688 -36.3603125 9.70203125 -35.25 9.625 C-34.18265625 9.55539062 -33.1153125 9.48578125 -32.015625 9.4140625 C-29.15434789 9.02119284 -27.48989493 8.36594668 -25 7 C-23.948125 6.835 -22.89625 6.67 -21.8125 6.5 C-20.884375 6.335 -19.95625 6.17 -19 6 C-18.67 5.34 -18.34 4.68 -18 4 C-16.02 4 -14.04 4 -12 4 C-12 3.34 -12 2.68 -12 2 C-10.56656 1.46809459 -9.12804633 0.94984742 -7.6875 0.4375 C-6.48673828 0.00244141 -6.48673828 0.00244141 -5.26171875 -0.44140625 C-3 -1 -3 -1 0 0 Z " fill="#F7CB77" transform="translate(409,381)"/>
<path d="M0 0 C0 0.66 0 1.32 0 2 C-0.65226562 2.19335938 -1.30453125 2.38671875 -1.9765625 2.5859375 C-3.78031405 3.12333841 -5.58234444 3.66654257 -7.3828125 4.21484375 C-9.41184559 4.82355368 -11.45376198 5.38940053 -13.5 5.9375 C-16.1466519 6.73405992 -16.1466519 6.73405992 -16.9375 9 C-18 11 -18 11 -21.4375 12.125 C-23.2009375 12.558125 -23.2009375 12.558125 -25 13 C-25.99 13.66 -26.98 14.32 -28 15 C-30.1875 14.625 -30.1875 14.625 -32 14 C-10.20512821 0 -10.20512821 0 0 0 Z " fill="#F6CB72" transform="translate(296,110)"/>
<path d="M0 0 C11.64544385 1.66363484 21.95292698 8.18052654 32 14 C29 15 29 15 26.375 14.1875 C24 13 24 13 23 11 C21.11736119 10.09656316 21.11736119 10.09656316 18.9375 9.375 C18.20402344 9.11460938 17.47054688 8.85421875 16.71484375 8.5859375 C16.14894531 8.39257812 15.58304687 8.19921875 15 8 C15 7.34 15 6.68 15 6 C14.43152344 5.96261719 13.86304688 5.92523438 13.27734375 5.88671875 C7.91564807 5.43021378 3.8330492 4.36510918 -1 2 C-0.67 1.34 -0.34 0.68 0 0 Z " fill="#F5C061" transform="translate(387,110)"/>
<path d="M0 0 C0 3.78713193 -1.26892594 5.83354401 -3 9.1875 C-3.556875 10.27417969 -4.11375 11.36085937 -4.6875 12.48046875 C-5.3371875 13.72763672 -5.3371875 13.72763672 -6 15 C-7.32 15 -8.64 15 -10 15 C-10.061875 15.763125 -10.12375 16.52625 -10.1875 17.3125 C-11 20 -11 20 -13.5625 21.8125 C-14.366875 22.204375 -15.17125 22.59625 -16 23 C-12.88628211 14.19898106 -6.13151496 6.89795433 0 0 Z " fill="#F27D85" transform="translate(50,152)"/>
<path d="M0 0 C0 7.47143957 -8.57668322 14.45241056 -13.4375 19.5625 C-16.86242573 22.82035618 -20.41846095 25.9161438 -24 29 C-24.66 28.67 -25.32 28.34 -26 28 C-24.88121617 26.82737096 -23.75476949 25.66204862 -22.625 24.5 C-21.99851562 23.8503125 -21.37203125 23.200625 -20.7265625 22.53125 C-19 21 -19 21 -17 21 C-16.67 20.01 -16.34 19.02 -16 18 C-14.85806002 16.82447355 -13.70994502 15.6541429 -12.52734375 14.51953125 C-8.00347816 10.01880564 -3.92475082 5.02368105 0 0 Z " fill="#FE9007" transform="translate(280,334)"/>
<path d="M0 0 C0.33 0 0.66 0 1 0 C1.63531905 6.03553102 -0.65527331 10.6002827 -3 16 C-3.52980469 17.35931641 -3.52980469 17.35931641 -4.0703125 18.74609375 C-5 21 -5 21 -6 22 C-6.061875 23.27875 -6.12375 24.5575 -6.1875 25.875 C-6.4140625 28.0546875 -6.4140625 28.0546875 -7 30 C-10.0625 32 -10.0625 32 -13 33 C-11.61589042 29.44379766 -10.09861957 25.96016935 -8.53735352 22.47851562 C-5.24293108 15.10860084 -2.35778397 7.73235985 0 0 Z " fill="#FE9308" transform="translate(301,289)"/>
<path d="M0 0 C1.40907283 2.81814566 0.50872691 4.17277204 -0.4375 7.125 C-0.72496094 8.03507813 -1.01242188 8.94515625 -1.30859375 9.8828125 C-1.53675781 10.58148438 -1.76492187 11.28015625 -2 12 C-2.66 12 -3.32 12 -4 12 C-4 12.99 -4 13.98 -4 15 C-4.66 15 -5.32 15 -6 15 C-6.0825 16.0725 -6.165 17.145 -6.25 18.25 C-7.07428346 22.37141729 -7.99095936 23.27982726 -11 26 C-9.07507373 16.35531732 -4.80395581 8.45541866 0 0 Z " fill="#ED616C" transform="translate(33,175)"/>
<path d="M0 0 C2.73866438 3.14946404 4.19664339 6.55418038 5.8125 10.34765625 C7.66695575 14.48968078 9.80906013 18.48303653 11.92578125 22.49609375 C12.28027344 23.32238281 12.63476562 24.14867187 13 25 C12.67 25.66 12.34 26.32 12 27 C11.8453125 26.0409375 11.8453125 26.0409375 11.6875 25.0625 C11.460625 24.381875 11.23375 23.70125 11 23 C10.01 22.67 9.02 22.34 8 22 C6.5522078 19.10441559 6 17.25811062 6 14 C5.34 14 4.68 14 4 14 C2.74335022 11.09399739 2 9.20395416 2 6 C1.34 6 0.68 6 0 6 C0 4.02 0 2.04 0 0 Z " fill="#F51305" transform="translate(204,302)"/>
<path d="M0 0 C0.33 0 0.66 0 1 0 C1.17015625 1.08796875 1.3403125 2.1759375 1.515625 3.296875 C2.82997534 11.3642985 4.34729386 18.92475126 7.328125 26.58203125 C8.05397974 29.19426431 7.91472132 30.48451637 7 33 C6.34 33 5.68 33 5 33 C4.9175 31.783125 4.835 30.56625 4.75 29.3125 C4.31575875 25.18396752 3.26577645 21.55350668 1.9375 17.625 C-0.03073853 11.59238444 -0.45466351 6.30214141 0 0 Z " fill="#F51406" transform="translate(196,269)"/>
<path d="M0 0 C-0.57143038 3.31429623 -1.428702 4.84194632 -4 7 C-6.26171875 7.94921875 -6.26171875 7.94921875 -8.6875 8.6875 C-9.89986328 9.06455078 -9.89986328 9.06455078 -11.13671875 9.44921875 C-11.75160156 9.63097656 -12.36648437 9.81273437 -13 10 C-13.99 9.01 -14.98 8.02 -16 7 C-15.27167969 6.89816406 -14.54335937 6.79632813 -13.79296875 6.69140625 C-10.71179243 5.92865351 -8.87840084 4.78024373 -6.3125 2.9375 C-2.2 0 -2.2 0 0 0 Z " fill="#F7B24A" transform="translate(264,125)"/>
<path d="M0 0 C3.0172342 0.43103346 5.80475485 0.93189123 8.6875 1.9375 C12.55023674 3.17649103 16.38713559 3.91828985 20.375 4.625 C21.11105469 4.7590625 21.84710938 4.893125 22.60546875 5.03125 C24.40294172 5.35806327 26.20137633 5.67958011 28 6 C28 6.66 28 7.32 28 8 C18.05547545 7.67920889 9.280855 4.30592547 0 1 C0 0.67 0 0.34 0 0 Z " fill="#F17E88" transform="translate(106,386)"/>
<path d="M0 0 C0.33 0 0.66 0 1 0 C0.67 7.92 0.34 15.84 0 24 C-0.66 24 -1.32 24 -2 24 C-2.0544207 21.31222198 -2.09387266 18.62556788 -2.125 15.9375 C-2.14175781 15.18533203 -2.15851563 14.43316406 -2.17578125 13.65820312 C-2.21865121 8.70672291 -1.58399375 4.69585549 0 0 Z " fill="#F81007" transform="translate(195,232)"/>
<path d="M0 0 C2 1 2 1 2.96484375 3.43359375 C3.61227113 5.4330783 4.25810985 7.43307797 4.90234375 9.43359375 C5.84922795 12.29445657 5.84922795 12.29445657 9 14 C9.51171875 16.1640625 9.51171875 16.1640625 9.6875 18.625 C9.75324219 19.44226563 9.81898438 20.25953125 9.88671875 21.1015625 C9.92410156 21.72804688 9.96148437 22.35453125 10 23 C6.6542811 19.6542811 5.02072393 15.23843667 3 11 C2.67257813 10.31550781 2.34515625 9.63101562 2.0078125 8.92578125 C0.50738688 5.63198978 0 3.70566517 0 0 Z " fill="#FE4D10" transform="translate(204,298)"/>
<path d="M0 0 C-2 3 -2 3 -4.23046875 3.68359375 C-7.28459481 4.03251365 -10.23889732 4.09627585 -13.3125 4.0625 C-14.38113281 4.05347656 -15.44976562 4.04445313 -16.55078125 4.03515625 C-17.35902344 4.02355469 -18.16726562 4.01195313 -19 4 C-12.65787037 0.71863728 -7.05290803 -0.24747046 0 0 Z " fill="#F1606D" transform="translate(136,105)"/>
<path d="M0 0 C-2.76203532 1.53723734 -5.53585152 3.05184161 -8.3125 4.5625 C-9.09818359 5.00013672 -9.88386719 5.43777344 -10.69335938 5.88867188 C-11.45068359 6.29794922 -12.20800781 6.70722656 -12.98828125 7.12890625 C-14.03302612 7.70233765 -14.03302612 7.70233765 -15.09887695 8.28735352 C-17 9 -17 9 -20 8 C-19.071875 7.87625 -19.071875 7.87625 -18.125 7.75 C-15.81562433 7.18741541 -15.81562433 7.18741541 -14.75 4.9375 C-14.5025 4.298125 -14.255 3.65875 -14 3 C-12.02 3 -10.04 3 -8 3 C-8 2.01 -8 1.02 -8 0 C-2.25 -1.125 -2.25 -1.125 0 0 Z " fill="#F2777F" transform="translate(235,377)"/>
<path d="M0 0 C2.41003178 2.41003178 3.48200366 4.96400731 5 8 C5.66 8.66 6.32 9.32 7 10 C7 10.99 7 11.98 7 13 C7.66 13 8.32 13 9 13 C9.33 15.64 9.66 18.28 10 21 C6.5883005 18.22865025 5.09282546 14.40259234 3.3125 10.5 C2.83200195 9.48486328 2.83200195 9.48486328 2.34179688 8.44921875 C0.96305234 5.4683084 0 3.32224796 0 0 Z " fill="#F4818D" transform="translate(24,303)"/>
<path d="M0 0 C0 4.84183796 -3.31505191 7.2636808 -6.5 10.6875 C-8.65886745 12.68445239 -10.30760082 13.90309663 -13 15 C-12.34 14.01 -11.68 13.02 -11 12 C-10.60986284 10.0103005 -10.26797351 8.00980131 -10 6 C-8.63875 5.62875 -8.63875 5.62875 -7.25 5.25 C-3.89648511 3.96018658 -2.32291764 2.68028958 0 0 Z " fill="#F8C86D" transform="translate(454,342)"/>
<path d="M0 0 C4.3914091 8.7828182 4.24827117 17.30363157 4 27 C3.67 27 3.34 27 3 27 C2.67 21.72 2.34 16.44 2 11 C1.34 11 0.68 11 0 11 C0 7.37 0 3.74 0 0 Z " fill="#F6C56C" transform="translate(483,213)"/>
<path d="M0 0 C5 5 10 10 15 15 C14.01 15.495 14.01 15.495 13 16 C10.07716631 13.82875212 7.62885994 11.65551482 5.375 8.8125 C3.24199897 5.79133392 3.24199897 5.79133392 0 5 C0 3.35 0 1.7 0 0 Z " fill="#F51106" transform="translate(228,343)"/>
<path d="M0 0 C1.40921425 4.44904666 0.10392146 7.83351167 -1.3125 12.125 C-1.6518457 13.21748047 -1.6518457 13.21748047 -1.99804688 14.33203125 C-3.72880527 19.72880527 -3.72880527 19.72880527 -6 22 C-4.9544186 15.30827902 -3.57451916 9.26839447 -1 3 C-0.67 2.01 -0.34 1.02 0 0 Z " fill="#FAD790" transform="translate(483,283)"/>
<path d="M0 0 C1.15294668 3.45884004 0.79943888 4.47127724 -0.21484375 7.88671875 C-0.48876953 8.82451172 -0.76269531 9.76230469 -1.04492188 10.72851562 C-1.33947266 11.70498047 -1.63402344 12.68144531 -1.9375 13.6875 C-2.22818359 14.67556641 -2.51886719 15.66363281 -2.81835938 16.68164062 C-3.53793217 19.1234696 -4.26540993 21.56265482 -5 24 C-5.33 24 -5.66 24 -6 24 C-6.48767483 15.05929471 -3.59863849 8.05409568 0 0 Z " fill="#F51005" transform="translate(203,197)"/>
<path d="M0 0 C0.99 0.33 1.98 0.66 3 1 C1.53967505 6.31027254 -0.98320986 10.46330032 -4 15 C-4.93423645 11.98968256 -5.04449911 11.13349732 -4 8 C-3.01 8 -2.02 8 -1 8 C-0.67 5.36 -0.34 2.72 0 0 Z " fill="#F7C86F" transform="translate(469,315)"/>
<path d="M0 0 C0 3.48961209 -0.90379374 5.11480295 -2.5 8.1875 C-2.9640625 9.08855469 -3.428125 9.98960937 -3.90625 10.91796875 C-4.2671875 11.60503906 -4.628125 12.29210937 -5 13 C-6 11 -6 11 -5.3125 7.625 C-4.00633213 4.01748875 -2.90026393 2.41688661 0 0 Z M-9 13 C-8.01 13 -7.02 13 -6 13 C-6 13.66 -6 14.32 -6 15 C-7.32 14.67 -8.64 14.34 -10 14 C-9.67 13.67 -9.34 13.34 -9 13 Z " fill="#EF3C49" transform="translate(50,152)"/>
<path d="M0 0 C-0.99 0.33 -1.98 0.66 -3 1 C-3 1.99 -3 2.98 -3 4 C-6.21451269 5.60725635 -9.43612536 5.05748185 -13 5 C-4.82022472 -1.60674157 -4.82022472 -1.60674157 0 0 Z " fill="#F26170" transform="translate(106,114)"/>
<path d="M0 0 C0 0.66 0 1.32 0 2 C-0.67546875 2.19335938 -1.3509375 2.38671875 -2.046875 2.5859375 C-3.38492187 2.97652344 -3.38492187 2.97652344 -4.75 3.375 C-5.63171875 3.63023438 -6.5134375 3.88546875 -7.421875 4.1484375 C-9.9821579 4.90336265 -9.9821579 4.90336265 -12.078125 6.1640625 C-14.46187066 7.20089496 -15.59865949 6.85762161 -18 6 C-15.7536764 4.99095625 -13.50356063 3.9926398 -11.25 3 C-10.61578125 2.71382813 -9.9815625 2.42765625 -9.328125 2.1328125 C-5.91582896 0.63993298 -3.79218083 0 0 0 Z " fill="#F9D381" transform="translate(296,110)"/>
<path d="M0 0 C1.58367747 0.14204741 3.16693318 0.28880153 4.75 0.4375 C5.63171875 0.51871094 6.5134375 0.59992188 7.421875 0.68359375 C11.99095023 1.24434389 11.99095023 1.24434389 14 2 C14.33 2.99 14.66 3.98 15 5 C9.54520815 4.43179252 5.08940744 3.05362055 0 1 C0 0.67 0 0.34 0 0 Z " fill="#FAC974" transform="translate(290,387)"/>
<path d="M0 0 C3.32710168 4.99065252 5.58827908 10.92111612 5 17 C4.34 16.67 3.68 16.34 3 16 C3 14.68 3 13.36 3 12 C2.34 12 1.68 12 1 12 C0.67 8.04 0.34 4.08 0 0 Z " fill="#F8CE7E" transform="translate(478,196)"/>
<path d="M0 0 C1 3 1 3 -0.36328125 5.7421875 C-1.00652344 6.77601563 -1.64976562 7.80984375 -2.3125 8.875 C-4.5640875 12.51955745 -6.53462347 15.96835492 -8 20 C-9.16171057 16.51486829 -8.58819684 15.35443798 -7.1015625 12.1171875 C-4.9381381 7.95911649 -2.47378871 3.97887699 0 0 Z " fill="#F51005" transform="translate(216,170)"/>
<path d="M0 0 C3.83663072 1.34929464 6.65172569 3.07751025 9.8125 5.625 C10.99779297 6.57246094 10.99779297 6.57246094 12.20703125 7.5390625 C12.79871094 8.02117187 13.39039063 8.50328125 14 9 C13.01 9.495 13.01 9.495 12 10 C11.01 9.67 10.02 9.34 9 9 C9 8.34 9 7.68 9 7 C6.34771188 5.92474806 3.71631546 4.90543849 1 4 C0.3125 1.9375 0.3125 1.9375 0 0 Z " fill="#F6CA71" transform="translate(419,125)"/>
<path d="M0 0 C-2.16099373 2.16099373 -3.5210418 2.71563716 -6.375 3.6875 C-7.14585937 3.95949219 -7.91671875 4.23148437 -8.7109375 4.51171875 C-11.20055308 5.04278009 -12.61553018 4.81115526 -15 4 C-9.96174932 0.68914955 -5.9781891 -0.1708054 0 0 Z " fill="#F37C86" transform="translate(212,387)"/>
<path d="M0 0 C4.77923358 0.57930104 8.02129144 2.39853671 12 5 C12.33 5.99 12.66 6.98 13 8 C7.73691968 6.58795406 4.2437012 4.31008693 0 1 C0 0.67 0 0.34 0 0 Z " fill="#EF7179" transform="translate(80,372)"/>
<path d="M0 0 C0 3.28565953 -0.24329531 4.28509275 -2 7 C-3.92358201 8.79056836 -5.92632276 10.37712216 -8 12 C-8 8.03869629 -6.65122875 7.17085599 -4 4.3125 C-3.2575 3.50425781 -2.515 2.69601563 -1.75 1.86328125 C-1.1725 1.24839844 -0.595 0.63351563 0 0 Z " fill="#FE4B0C" transform="translate(231,153)"/>
<path d="M0 0 C1.65 0 3.3 0 5 0 C1.71644638 3.67758005 -1.62778237 5.81389118 -6 8 C-6.66 7.67 -7.32 7.34 -8 7 C-7.67 6.34 -7.34 5.68 -7 5 C-6.34 5 -5.68 5 -5 5 C-5 4.34 -5 3.68 -5 3 C-3.35 2.67 -1.7 2.34 0 2 C0 1.34 0 0.68 0 0 Z " fill="#F8C871" transform="translate(417,372)"/>
<path d="M0 0 C0.66 0 1.32 0 2 0 C3.4375 2.01171875 3.4375 2.01171875 5 4.6875 C5.515625 5.55761719 6.03125 6.42773438 6.5625 7.32421875 C7.91214843 9.83647195 9.00011557 12.33203915 10 15 C5.04218483 10.17617983 1.97596585 6.68788443 0 0 Z " fill="#FF4A0F" transform="translate(214,321)"/>
<path d="M0 0 C1.8125 0.125 1.8125 0.125 4 1 C7.20021665 5.96585343 7.20021665 5.96585343 6.57421875 9.19921875 C6.38472656 9.79347656 6.19523437 10.38773437 6 11 C4.9944239 9.54550599 3.99569565 8.08627557 3 6.625 C2.443125 5.81289063 1.88625 5.00078125 1.3125 4.1640625 C0 2 0 2 0 0 Z " fill="#EF5D6B" transform="translate(34,324)"/>
<path d="M0 0 C3.26008643 3.16952847 6.22237877 6.39937989 9 10 C8.67 10.66 8.34 11.32 8 12 C3.92798692 9.1385854 1.90178748 6.60432758 0 2 C0 1.34 0 0.68 0 0 Z " fill="#F8C56F" transform="translate(454,156)"/>
<path d="M0 0 C0.33 1.32 0.66 2.64 1 4 C1.66 4 2.32 4 3 4 C3.33 8.62 3.66 13.24 4 18 C0.4317767 12.64766505 -0.32665309 6.36973531 0 0 Z " fill="#F58D96" transform="translate(16,274)"/>
<path d="M0 0 C2.1875 -0.3125 2.1875 -0.3125 5 0 C7.8125 2.375 7.8125 2.375 10 5 C10 5.66 10 6.32 10 7 C5.56541027 5.6062718 3.12621626 3.39417765 0 0 Z " fill="#EF616D" transform="translate(70,365)"/>
<path d="M0 0 C2.475 0.495 2.475 0.495 5 1 C5 1.99 5 2.98 5 4 C6.32 4.33 7.64 4.66 9 5 C9 5.99 9 6.98 9 8 C9.66 8.33 10.32 8.66 11 9 C8 9 8 9 5.95703125 7.28515625 C5.24933594 6.55167969 4.54164063 5.81820313 3.8125 5.0625 C3.09707031 4.33160156 2.38164062 3.60070312 1.64453125 2.84765625 C0 1 0 1 0 0 Z " fill="#FF4E0D" transform="translate(232,347)"/>
<path d="M0 0 C1.93719378 -0.05406122 3.87481921 -0.09282025 5.8125 -0.125 C6.89144531 -0.14820312 7.97039062 -0.17140625 9.08203125 -0.1953125 C12 0 12 0 15 2 C12.03 1.67 9.06 1.34 6 1 C6 1.66 6 2.32 6 3 C3.5625 2.625 3.5625 2.625 1 2 C0.67 1.34 0.34 0.68 0 0 Z " fill="#F23F4A" transform="translate(188,107)"/>
<path d="M0 0 C7.26153846 0.36923077 7.26153846 0.36923077 11 3.5625 C11.99 4.7690625 11.99 4.7690625 13 6 C8.14036821 5.39254603 4.2594482 3.27241033 0 1 C0 0.67 0 0.34 0 0 Z " fill="#F37984" transform="translate(93,380)"/>
<path d="M0 0 C1.05543251 3.18769143 0.97424908 4.94786631 -0.25 8.0625 C-0.62898438 9.06990234 -0.62898438 9.06990234 -1.015625 10.09765625 C-2.0785986 12.15189491 -3.29068058 13.45873165 -5 15 C-4.54705135 13.24859857 -4.08741252 11.49892656 -3.625 9.75 C-3.36976562 8.77546875 -3.11453125 7.8009375 -2.8515625 6.796875 C-2.10401491 4.34162697 -1.22876183 2.24382595 0 0 Z " fill="#F1858F" transform="translate(27,186)"/>
<path d="M0 0 C0 0.66 0 1.32 0 2 C-2.40545638 3.20272819 -3.94996953 3.10071472 -6.625 3.0625 C-7.85089844 3.04896484 -7.85089844 3.04896484 -9.1015625 3.03515625 C-10.04128906 3.01775391 -10.04128906 3.01775391 -11 3 C-8.15930939 0.15930939 -3.81147953 -1.90573977 0 0 Z " fill="#F06A74" transform="translate(117,110)"/>
<path d="M0 0 C3.3 0 6.6 0 10 0 C10 0.66 10 1.32 10 2 C6.7 2.33 3.4 2.66 0 3 C0 2.01 0 1.02 0 0 Z " fill="#F8BD58" transform="translate(368,391)"/>
<path d="M0 0 C-1.74468372 0.70088156 -3.49601161 1.38524009 -5.25 2.0625 C-6.22453125 2.44535156 -7.1990625 2.82820313 -8.203125 3.22265625 C-11.04007395 4.01113787 -12.29409552 4.02437812 -15 3 C-9.96822606 0.24450475 -5.6529036 -1.8843012 0 0 Z " fill="#FBD891" transform="translate(393,388)"/>
<path d="M0 0 C1.98 0.66 3.96 1.32 6 2 C5.67 3.32 5.34 4.64 5 6 C3.68 6 2.36 6 1 6 C0.67 4.02 0.34 2.04 0 0 Z " fill="#F02F38" transform="translate(244,362)"/>
<path d="M0 0 C0 3.77910478 -0.99703962 4.46106101 -3.5 7.1875 C-4.47453125 8.26064453 -4.47453125 8.26064453 -5.46875 9.35546875 C-5.9740625 9.89816406 -6.479375 10.44085938 -7 11 C-8 9 -8 9 -7.4375 7.1875 C-5.41557584 4.11065889 -2.89700709 2.26722294 0 0 Z " fill="#F50F07" transform="translate(231,151)"/>
<path d="M0 0 C0.66 1.32 1.32 2.64 2 4 C1.01 4.66 0.02 5.32 -1 6 C-2.33790641 6.99387334 -3.67218122 7.9926892 -5 9 C-5.66 8.67 -6.32 8.34 -7 8 C-6.34 7.01 -5.68 6.02 -5 5 C-4.34 5 -3.68 5 -3 5 C-2.690625 4.360625 -2.38125 3.72125 -2.0625 3.0625 C-1 1 -1 1 0 0 Z " fill="#ED0C1C" transform="translate(56,147)"/>
<path d="M0 0 C1.98 0 3.96 0 6 0 C6.99 1.98 7.98 3.96 9 6 C5.06326356 4.68775452 2.77280706 3.08089673 0 0 Z " fill="#F8C564" transform="translate(256,369)"/>
<path d="M0 0 C0.33 1.32 0.66 2.64 1 4 C0.01 4.495 0.01 4.495 -1 5 C-2.04808041 6.97522846 -3.0520411 8.97481509 -4 11 C-4.66 11 -5.32 11 -6 11 C-4.74194623 6.49197399 -3.09592835 3.5087188 0 0 Z " fill="#FE430C" transform="translate(221,165)"/>
<path d="M0 0 C4.30764815 1.56641751 8.06171464 3.68336156 12 6 C9 7 9 7 6.5625 6.375 C3.50443399 4.73408653 1.99374101 2.80600586 0 0 Z " fill="#F8CD7B" transform="translate(407,118)"/>
<path d="M0 0 C5.54050113 0.56825653 10.03715966 2.62886517 15 5 C15 5.33 15 5.66 15 6 C9.22621075 5.5188509 5.04140164 3.81532819 0 1 C0 0.67 0 0.34 0 0 Z " fill="#F49198" transform="translate(209,111)"/>
<path d="M0 0 C-0.99 0 -1.98 0 -3 0 C-3.33 0.99 -3.66 1.98 -4 3 C-8.455 3.495 -8.455 3.495 -13 4 C-8.93522219 0.68795882 -5.26054188 -1.94834884 0 0 Z " fill="#F6A016" transform="translate(295,113)"/>
<path d="M0 0 C2.375 0.5625 2.375 0.5625 5 2 C6.3125 5.625 6.3125 5.625 7 9 C4.03595495 6.19195732 1.55500981 3.81684226 0 0 Z " fill="#F07A86" transform="translate(41,335)"/>
<path d="M0 0 C1.32 0.33 2.64 0.66 4 1 C4.33 3.97 4.66 6.94 5 10 C3 7 3 7 3 5 C2.34 5 1.68 5 1 5 C0.67 3.35 0.34 1.7 0 0 Z " fill="#E93F4C" transform="translate(22,298)"/>
<path d="M0 0 C0 0.66 0 1.32 0 2 C-2.75 4.1875 -2.75 4.1875 -6 6 C-8.203125 5.61328125 -8.203125 5.61328125 -10 5 C-8.71186658 4.16121545 -7.41936744 3.32913217 -6.125 2.5 C-5.40570313 2.0359375 -4.68640625 1.571875 -3.9453125 1.09375 C-2 0 -2 0 0 0 Z " fill="#F0737F" transform="translate(93,119)"/>
<path d="M0 0 C1.32 0 2.64 0 4 0 C2.73058503 3.91402949 1.48832306 5.79072873 -2 8 C-1.34 5.36 -0.68 2.72 0 0 Z " fill="#FACB70" transform="translate(458,333)"/>
<path d="M0 0 C0.66 0.33 1.32 0.66 2 1 C-0.25 3.5625 -0.25 3.5625 -3 6 C-4.32 5.67 -5.64 5.34 -7 5 C-4.69 3.35 -2.38 1.7 0 0 Z " fill="#F06F77" transform="translate(81,125)"/>
<path d="M0 0 C0 0.66 0 1.32 0 2 C-0.99 2 -1.98 2 -3 2 C-3.66 3.32 -4.32 4.64 -5 6 C-6.32 5.67 -7.64 5.34 -9 5 C-7.87926138 4.16094435 -6.75325453 3.32892169 -5.625 2.5 C-4.99851562 2.0359375 -4.37203125 1.571875 -3.7265625 1.09375 C-2 0 -2 0 0 0 Z " fill="#F6CB76" transform="translate(264,125)"/>
<path d="M0 0 C0 0.33 0 0.66 0 1 C-3.98060777 2.17076699 -7.91621717 3.25749403 -12 4 C-12 3.34 -12 2.68 -12 2 C-8.09971775 -0.60018816 -4.52565431 -0.15085514 0 0 Z " fill="#F7A11F" transform="translate(390,387)"/>
<path d="M0 0 C0.33 1.32 0.66 2.64 1 4 C-1.97 6.475 -1.97 6.475 -5 9 C-3.7508258 5.54074837 -2.32472205 2.85306797 0 0 Z " fill="#FE9306" transform="translate(286,325)"/>
<path d="M0 0 C-0.66 1.32 -1.32 2.64 -2 4 C-3.32 4 -4.64 4 -6 4 C-6 3.01 -6 2.02 -6 1 C-4 0 -4 0 0 0 Z " fill="#F5B444" transform="translate(280,117)"/>
<path d="M0 0 C0.33 0.66 0.66 1.32 1 2 C-0.65 3.65 -2.3 5.3 -4 7 C-4 4 -4 4 -2 1.8125 C-1.34 1.214375 -0.68 0.61625 0 0 Z " fill="#EB5864" transform="translate(39,168)"/>
<path d="M0 0 C3.91402949 1.26941497 5.79072873 2.51167694 8 6 C7.67 6.66 7.34 7.32 7 8 C6.67 7.01 6.34 6.02 6 5 C4.67532254 4.3162955 3.34136367 3.65035814 2 3 C1.34 2.01 0.68 1.02 0 0 Z " fill="#FE8C08" transform="translate(258,140)"/>
</svg>
