<?xml version="1.0" encoding="UTF-8"?>
<svg version="1.1" xmlns="http://www.w3.org/2000/svg" width="669" height="373">
<path d="M0 0 C1.17146155 -0.00382555 2.3429231 -0.00765109 3.54988348 -0.01159257 C6.79318115 -0.02011677 10.03633393 -0.01969234 13.27963543 -0.01541197 C16.7807503 -0.01294363 20.2818386 -0.02196028 23.78294373 -0.02944946 C30.63889344 -0.04219562 37.49480398 -0.04399025 44.35076354 -0.0416492 C49.92406922 -0.03986573 55.49736301 -0.0416163 61.07066727 -0.04587364 C61.86407322 -0.04646883 62.65747917 -0.04706402 63.47492773 -0.04767724 C65.08677168 -0.04888901 66.69861562 -0.05010314 68.31045957 -0.05131962 C83.42490548 -0.06219491 98.53932908 -0.06003276 113.65377624 -0.05393478 C127.47668524 -0.04876604 141.29952375 -0.06001992 155.12241881 -0.07903299 C169.32012986 -0.09841172 183.51780758 -0.10666731 197.71553195 -0.10290974 C205.68471065 -0.1009977 213.65382937 -0.10348557 221.62299728 -0.11762428 C228.40752147 -0.12953951 235.19194875 -0.13094143 241.97647427 -0.11883412 C245.43672536 -0.1129463 248.89679922 -0.11184313 252.3570385 -0.12383652 C256.11131859 -0.13427153 259.86512193 -0.12622861 263.61938477 -0.11352539 C264.70869148 -0.12089968 265.79799819 -0.12827396 266.92031419 -0.13587171 C273.77095559 -0.08708588 279.93586181 0.40868174 285.46011353 4.90913391 C285.90612915 5.47889954 286.35214478 6.04866516 286.81167603 6.63569641 C287.50390259 7.48261047 287.50390259 7.48261047 288.21011353 8.34663391 C291.32003096 13.19968979 291.75551189 17.68313194 291.77261353 23.34272766 C291.77927032 24.11573715 291.78592712 24.88874664 291.79278564 25.68518066 C291.80288153 27.31652967 291.80760361 28.94791972 291.80728149 30.57929993 C291.81164429 33.0551842 291.84796447 35.52926892 291.88589478 38.00483704 C291.89176599 39.59662788 291.89573334 41.1884271 291.89761353 42.78022766 C291.91198456 43.51070816 291.92635559 44.24118866 291.94116211 44.99380493 C291.88823344 51.0494598 290.18273659 56.35653207 285.95385742 60.82888794 C281.88025252 64.35999346 278.78450813 65.38426179 273.51119614 65.39491749 C271.9777594 65.40160425 271.9777594 65.40160425 270.41334414 65.40842611 C269.28680966 65.40824174 268.16027517 65.40805738 266.99960327 65.40786743 C265.80549812 65.41154412 264.61139296 65.41522081 263.3811028 65.41900891 C260.06072017 65.42813781 256.74038698 65.43274588 253.4199965 65.43539822 C249.84114199 65.43930089 246.26230179 65.44887921 242.68345642 65.45761108 C234.03795811 65.47737593 225.39245862 65.48744145 216.74694335 65.49633887 C212.67639011 65.50072149 208.60583817 65.50608835 204.53528595 65.51132774 C191.00539291 65.52833957 177.47550069 65.54283422 163.9455986 65.55007648 C160.43432362 65.5519864 156.92304864 65.55390673 153.41177368 65.55586243 C152.10269751 65.55658804 152.10269751 65.55658804 150.76717535 65.55732831 C136.62652792 65.56563041 122.48596503 65.59097057 108.34535453 65.6234431 C93.83021476 65.65650421 79.31511797 65.67452436 64.79994035 65.67772073 C56.64907225 65.67988664 48.49832746 65.68864717 40.34749603 65.7141819 C33.4065887 65.73587592 26.46583464 65.74394574 19.52489725 65.73421512 C15.98372341 65.72966667 12.44286588 65.7315878 8.90173531 65.75097656 C5.06158631 65.7718209 1.22187431 65.76163491 -2.61831665 65.7484436 C-3.73592825 65.75941285 -4.85353985 65.7703821 -6.00501847 65.78168374 C-12.42621264 65.72833001 -16.3379481 65.079614 -21.56332397 61.26069641 C-26.89718831 55.78267358 -27.87394942 49.94581919 -27.86410522 42.51850891 C-27.86839035 41.79130646 -27.87267548 41.064104 -27.87709045 40.31486511 C-27.88280637 38.78363582 -27.88335432 37.25237939 -27.8789978 35.72114563 C-27.87584234 33.39921406 -27.89931382 31.0785642 -27.9246521 28.75679016 C-27.9269261 27.260698 -27.92762812 25.76460245 -27.92660522 24.26850891 C-27.93581497 23.58491302 -27.94502472 22.90131714 -27.95451355 22.19700623 C-27.89961893 16.37391669 -26.64219537 10.86809443 -22.95004272 6.23725891 C-22.38930054 5.79124329 -21.82855835 5.34522766 -21.25082397 4.88569641 C-20.69781616 4.42421204 -20.14480835 3.96272766 -19.57504272 3.48725891 C-13.35093568 -0.30763354 -7.05125991 -0.02436439 0 0 Z " fill="#0BA5DA" transform="translate(204.56332397460938,112.73930358886719)"/>
<path d="M0 0 C0.95312195 -0.00583219 1.90624389 -0.01166439 2.88824832 -0.01767331 C4.44674666 -0.01200433 4.44674666 -0.01200433 6.03672981 -0.00622082 C7.70181892 -0.01195914 7.70181892 -0.01195914 9.40054619 -0.01781338 C13.12763942 -0.02814868 16.85457875 -0.02415016 20.58168221 -0.02018261 C23.25083618 -0.0245288 25.9199788 -0.02964702 28.58912849 -0.03567028 C35.09128094 -0.04842172 41.59339209 -0.0502104 48.09555493 -0.04787002 C53.38094519 -0.0460871 58.6663229 -0.04783593 63.95171165 -0.05209446 C64.7039114 -0.05268965 65.45611115 -0.05328484 66.23110483 -0.05389806 C67.75920104 -0.05510981 69.28729725 -0.05632395 70.81539346 -0.05754044 C85.14722362 -0.06841781 99.47903024 -0.06625262 113.81086172 -0.06015559 C126.91996022 -0.05498692 140.02898439 -0.0662402 153.13806818 -0.08525381 C166.60010505 -0.10462958 180.06210674 -0.11288863 193.52415764 -0.10913056 C201.08140135 -0.10721803 208.6385818 -0.10971105 216.19581413 -0.1238451 C222.62978595 -0.13575659 229.06365558 -0.13716648 235.49762879 -0.12505493 C238.77953957 -0.11916439 242.06122478 -0.11969781 245.34313011 -0.13005733 C248.90295449 -0.14048453 252.4622753 -0.13245585 256.02208138 -0.11974621 C257.05661882 -0.12712049 258.09115627 -0.13449478 259.15704334 -0.14209253 C267.13577691 -0.08209374 273.3071415 1.40522786 279.15638924 7.25447559 C281.9338951 12.596285 282.60307274 16.81730232 282.55482674 22.78572559 C282.55769691 23.58047291 282.56056709 24.37522022 282.56352425 25.19405079 C282.56555449 26.86475308 282.56009784 28.53547971 282.54750252 30.20613575 C282.53143312 32.7475349 282.54738588 35.28734402 282.56654549 37.82869434 C282.56456287 39.46020823 282.56071881 41.09172114 282.55482674 42.72322559 C282.56089943 43.47446705 282.56697212 44.2257085 282.57322884 44.99971485 C282.49641866 50.8287812 281.39712593 55.69799873 277.43763924 60.21541309 C276.84982674 60.68205372 276.26201424 61.14869434 275.65638924 61.62947559 C275.06857674 62.11158497 274.48076424 62.59369434 273.87513924 63.09041309 C270.79322236 65.17771134 268.10652533 65.38139643 264.49919796 65.39148998 C263.05551286 65.3991018 263.05551286 65.3991018 261.5826624 65.40686738 C259.99310303 65.40761402 259.99310303 65.40761402 258.37143135 65.40837574 C257.24745215 65.41275799 256.12347295 65.41714025 254.96543378 65.4216553 C251.17923042 65.43506628 247.39305036 65.44122733 243.60682869 65.44734669 C240.90018621 65.45471842 238.19354862 65.46350945 235.48690987 65.47212696 C227.35012857 65.49664851 219.21334117 65.51127766 211.0765343 65.52418703 C208.77832684 65.52789911 206.48011999 65.53187233 204.18191314 65.53593969 C189.91018096 65.56117613 175.63844783 65.58322911 161.36669827 65.59566784 C158.06099952 65.59859753 154.7553008 65.6015592 151.44960213 65.60457325 C150.62798744 65.6053193 149.80637275 65.60606535 148.95986065 65.60683401 C135.65081256 65.61948708 122.34189809 65.65270965 109.03291247 65.69437508 C95.36866802 65.73680201 81.70449196 65.76036373 68.04018182 65.7655884 C60.36823286 65.76900164 52.69649272 65.78074642 45.02460861 65.81369114 C38.49067309 65.8417033 31.95698919 65.85268597 25.42299829 65.84149568 C22.09010339 65.83631171 18.7581618 65.84190726 15.42527199 65.86396122 C11.80849599 65.88659141 8.19304759 65.87838431 4.57626534 65.8624773 C3.5277127 65.87635939 2.47916006 65.89024148 1.3988331 65.90454423 C-5.15789074 65.83348568 -9.87530204 64.72118562 -14.84361076 60.25447559 C-18.99301966 54.7584057 -20.00612304 49.52449711 -20.04673576 42.80525684 C-20.05243584 42.07380955 -20.05813591 41.34236225 -20.06400871 40.58874989 C-20.07345056 39.03959564 -20.07998946 37.49042139 -20.08384514 35.94124317 C-20.09350449 33.59281334 -20.12451479 31.24527651 -20.15611076 28.89705372 C-20.16264613 27.38729325 -20.1678945 25.87752657 -20.17173576 24.36775684 C-20.18408257 23.67474979 -20.19642937 22.98174274 -20.20915031 22.26773548 C-20.18290174 16.40404251 -18.96824725 10.86244171 -15.19517326 6.23103809 C-14.62540764 5.78502247 -14.05564201 5.33900684 -13.46861076 4.87947559 C-12.90400139 4.41799122 -12.33939201 3.95650684 -11.75767326 3.48103809 C-7.94715084 1.03919311 -4.5099871 0.0047639 0 0 Z " fill="#0BA5DB" transform="translate(196.8436107635498,195.7455244064331)"/>
<path d="M0 0 C1.10204116 -0.00382555 2.20408232 -0.00765109 3.33951867 -0.01159257 C7.03353333 -0.02191413 10.72739231 -0.01793195 14.42141724 -0.01396179 C17.06939205 -0.01830874 19.71735543 -0.02342734 22.36532593 -0.02944946 C28.81219731 -0.04219293 35.25902703 -0.04399058 41.70590888 -0.0416492 C46.94693027 -0.03986542 52.18793902 -0.04161697 57.42895889 -0.04587364 C58.1751837 -0.04646883 58.92140852 -0.04706402 59.6902462 -0.04767724 C61.20626115 -0.04888901 62.7222761 -0.05010315 64.23829104 -0.05131962 C78.4528403 -0.06219389 92.66736583 -0.06003326 106.88191642 -0.05393478 C119.88034508 -0.0487662 132.87869878 -0.06001968 145.87711261 -0.07903299 C159.22957482 -0.09841419 172.58200156 -0.10666687 185.93447793 -0.10290974 C193.42858161 -0.10099806 200.92262151 -0.10348199 208.41671371 -0.11762428 C214.7968342 -0.12954268 221.17685164 -0.1309379 227.55697356 -0.11883412 C230.81066204 -0.11294847 234.06412333 -0.11346714 237.31780624 -0.12383652 C240.84876442 -0.13427807 244.37921634 -0.12622344 247.91015625 -0.11352539 C248.93331684 -0.12089968 249.95647743 -0.12827396 251.01064289 -0.13587171 C257.88506554 -0.08387372 263.88599834 0.59091444 269.35940552 5.16304016 C270.18118286 6.1704425 270.18118286 6.1704425 271.01956177 7.19819641 C271.58546021 7.86721985 272.15135864 8.53624329 272.73440552 9.22554016 C275.5966307 13.547915 275.25646255 18.24590092 275.28518677 23.28022766 C275.29088684 24.05702377 275.29658691 24.83381989 275.30245972 25.63415527 C275.31188925 27.27568712 275.31843555 28.91723772 275.32229614 30.55879211 C275.33198787 33.05416879 275.36302395 35.54871643 275.39456177 38.04389954 C275.40109408 39.64350405 275.40634365 41.24311442 275.41018677 42.84272766 C275.42253357 43.5815065 275.43488037 44.32028534 275.44760132 45.08145142 C275.4203424 51.50591081 273.94384952 56.11247977 269.64456177 61.07319641 C265.86178286 64.30239792 263.25106995 65.50874668 258.27058792 65.52355194 C257.29917335 65.53123423 256.32775877 65.53891652 255.3269074 65.54683161 C253.73004444 65.54423216 253.73004444 65.54423216 252.10092163 65.5415802 C250.9679209 65.54752244 249.83492017 65.55346469 248.66758609 65.559587 C244.85682178 65.57698224 241.04618298 65.57997926 237.23538208 65.58296204 C234.50888323 65.59114059 231.78239764 65.60222467 229.0559082 65.61305237 C221.63849569 65.64021007 214.22110481 65.65226704 206.80365086 65.66107368 C202.1715836 65.66660007 197.53952469 65.67507507 192.90746307 65.68408203 C180.08095957 65.70846624 167.25446274 65.72906507 154.42793655 65.73583221 C153.19667213 65.73649091 153.19667213 65.73649091 151.94053368 65.73716292 C150.70633448 65.73781775 150.70633448 65.73781775 149.44720197 65.73848581 C147.77991565 65.73937274 146.11262933 65.74026587 144.44534302 65.74116516 C143.6183126 65.74160802 142.79128218 65.74205088 141.93919024 65.74250716 C128.53963918 65.75040246 115.1403057 65.78530879 101.74083868 65.83188421 C87.98163374 65.87932374 74.22253796 65.90423647 60.46324992 65.90656805 C52.73874865 65.9084009 45.01453087 65.91988831 37.29010773 65.95620728 C30.71224029 65.98702647 24.13474395 65.9972406 17.55681804 65.98073107 C14.20150923 65.97292307 10.84755427 65.97801767 7.49223709 66.00284576 C3.85122628 66.02820827 0.21213337 66.0165761 -3.42886353 65.99568176 C-5.01234215 66.01985098 -5.01234215 66.01985098 -6.62781024 66.04450846 C-13.69445781 65.94965014 -17.89962362 64.30421911 -22.91793823 59.26069641 C-26.81838223 53.97622389 -27.08201155 49.12736548 -27.12106323 42.71382141 C-27.12676331 41.98378906 -27.13246338 41.25375671 -27.13833618 40.50160217 C-27.14776413 38.95842426 -27.15431139 37.41522642 -27.15817261 35.87202454 C-27.1678482 33.53246599 -27.19887868 31.19379792 -27.23043823 28.85444641 C-27.23697231 27.34924325 -27.24222119 25.84403385 -27.24606323 24.33882141 C-27.26458344 23.30401642 -27.26458344 23.30401642 -27.28347778 22.24830627 C-27.25714122 16.39328206 -26.01810522 10.89480415 -22.30465698 6.23725891 C-21.74391479 5.79124329 -21.18317261 5.34522766 -20.60543823 4.88569641 C-20.05243042 4.42421204 -19.49942261 3.96272766 -18.92965698 3.48725891 C-12.88474294 -0.198378 -6.84812801 -0.02518561 0 0 Z " fill="#0CA5DA" transform="translate(203.91793823242188,29.739303588867188)"/>
<path d="M0 0 C1.3135849 -0.0071553 2.6271698 -0.01431061 3.9805603 -0.02168274 C5.43986488 -0.02452301 6.8991697 -0.02723474 8.35847473 -0.02983093 C9.89271702 -0.03609631 11.42695779 -0.04274317 12.9611969 -0.04974365 C18.00352421 -0.07078004 23.04585181 -0.08114655 28.08821106 -0.09111023 C29.82495451 -0.09515813 31.56169781 -0.09927506 33.29844093 -0.10346031 C41.45912165 -0.1225121 49.61979333 -0.13674241 57.78049201 -0.14507228 C67.19510246 -0.15484105 76.60947757 -0.18115115 86.02400512 -0.22157317 C93.30396255 -0.25175551 100.58385261 -0.26654322 107.8638714 -0.26985329 C112.21029973 -0.27220164 116.55647664 -0.28113362 120.90283775 -0.30631447 C124.99459226 -0.32963698 129.08593056 -0.33381179 133.17773438 -0.32355309 C134.67568155 -0.3230586 136.17364949 -0.3293532 137.67153358 -0.34310913 C145.57826992 -0.41163083 151.97932149 -0.38279947 158.73274231 4.14717102 C164.2229837 9.55380965 164.90725324 13.60973935 164.97102356 21.10029602 C164.97909531 21.99327393 164.98716705 22.88625183 164.9954834 23.80628967 C165.00932801 25.69935665 165.02004847 27.59244864 165.02790833 29.48554993 C165.04509211 32.37194112 165.08897073 35.25717824 165.13313293 38.14326477 C165.14326251 39.9831001 165.15177778 41.82294517 165.15852356 43.66279602 C165.17603165 44.52237915 165.19353973 45.38196228 165.21157837 46.26759338 C165.1889544 52.56196317 163.61170104 56.18374407 159.13508606 60.79170227 C154.39193406 64.57357546 151.40166621 65.27218005 145.42752075 65.29434204 C144.46434072 65.29985707 144.46434072 65.29985707 143.48170251 65.30548352 C141.32619793 65.31651221 139.17074157 65.32036282 137.01521301 65.32417297 C135.47111864 65.33043831 133.92702578 65.33708517 132.38293457 65.34408569 C127.30814157 65.36512246 122.23334829 65.37548861 117.15852356 65.38545227 C115.41063611 65.38950015 113.66274881 65.39361708 111.91486168 65.39780235 C103.70185522 65.41685421 95.48885774 65.43108452 87.27583343 65.43941432 C77.80066311 65.4491832 68.32572663 65.47549357 58.85063869 65.51591522 C51.52397252 65.54609684 44.1973733 65.56088519 36.87064618 65.56419533 C32.49627285 65.56654375 28.12214933 65.57547673 23.74784279 65.60065651 C19.62982423 65.62397778 15.51221923 65.62815432 11.39415169 65.61789513 C9.88652926 65.61740061 8.3788862 65.62369608 6.87132645 65.63745117 C-1.06491435 65.70578339 -7.47190239 65.66382405 -14.26725769 61.14717102 C-19.05470996 56.35971875 -20.4733059 51.1823728 -20.57080078 44.48875427 C-20.56988937 43.80110992 -20.56897797 43.11346558 -20.56803894 42.40498352 C-20.57232407 41.67778107 -20.57660919 40.95057861 -20.58102417 40.20133972 C-20.58674009 38.67011043 -20.58728803 37.138854 -20.58293152 35.60762024 C-20.57977606 33.28568867 -20.60324753 30.96503881 -20.62858582 28.64326477 C-20.63085982 27.14717261 -20.63156184 25.65107706 -20.63053894 24.15498352 C-20.63974869 23.47138763 -20.64895844 22.78779175 -20.65844727 22.08348083 C-20.60168882 16.06268089 -19.29672283 10.53261089 -15.32975769 5.86982727 C-14.30882019 5.04804993 -14.30882019 5.04804993 -13.26725769 4.20967102 C-12.58663269 3.64377258 -11.90600769 3.07787415 -11.20475769 2.49482727 C-7.53926546 -0.05475906 -4.33636425 0.01619003 0 0 Z " fill="#0DA6DB" transform="translate(197.2672576904297,278.8528289794922)"/>
<path d="M0 0 C1.17146155 -0.00382555 2.3429231 -0.00765109 3.54988348 -0.01159257 C6.79318115 -0.02011677 10.03633393 -0.01969234 13.27963543 -0.01541197 C16.7807503 -0.01294363 20.2818386 -0.02196028 23.78294373 -0.02944946 C30.63889344 -0.04219562 37.49480398 -0.04399025 44.35076354 -0.0416492 C49.92406922 -0.03986573 55.49736301 -0.0416163 61.07066727 -0.04587364 C61.86407322 -0.04646883 62.65747917 -0.04706402 63.47492773 -0.04767724 C65.08677168 -0.04888901 66.69861562 -0.05010314 68.31045957 -0.05131962 C83.42490548 -0.06219491 98.53932908 -0.06003276 113.65377624 -0.05393478 C127.47668524 -0.04876604 141.29952375 -0.06001992 155.12241881 -0.07903299 C169.32012986 -0.09841172 183.51780758 -0.10666731 197.71553195 -0.10290974 C205.68471065 -0.1009977 213.65382937 -0.10348557 221.62299728 -0.11762428 C228.40752147 -0.12953951 235.19194875 -0.13094143 241.97647427 -0.11883412 C245.43672536 -0.1129463 248.89679922 -0.11184313 252.3570385 -0.12383652 C256.11131859 -0.13427153 259.86512193 -0.12622861 263.61938477 -0.11352539 C264.70869148 -0.12089968 265.79799819 -0.12827396 266.92031419 -0.13587171 C273.11492115 -0.09175773 277.84188432 0.51137497 283.43667603 3.26069641 C284.09667603 4.25069641 284.75667603 5.24069641 285.43667603 6.26069641 C282.13667603 5.60069641 278.83667603 4.94069641 275.43667603 4.26069641 C275.43667603 3.60069641 275.43667603 2.94069641 275.43667603 2.26069641 C238.81523062 2.34241981 202.19382635 2.43456808 165.5724435 2.54074802 C161.25147175 2.55326728 156.93049975 2.56569999 152.60952759 2.57807922 C151.74927978 2.58054522 150.88903196 2.58301121 150.00271603 2.58555193 C136.06359786 2.62530343 122.12447156 2.65804018 108.18532971 2.68819623 C93.88836901 2.71928209 79.59144291 2.75787916 65.29452109 2.80348647 C56.46863469 2.83140325 47.64277367 2.85342243 38.81685492 2.86795892 C32.76913517 2.87848022 26.72146449 2.89628046 20.67378166 2.91986345 C17.18171269 2.93326401 13.68971265 2.94339885 10.19761658 2.94491005 C6.41541037 2.94821627 2.63344528 2.96364943 -1.14871216 2.98222351 C-2.2576539 2.98028878 -3.36659564 2.97835404 -4.50914168 2.97636068 C-5.5203238 2.98382617 -6.53150592 2.99129166 -7.57332993 2.99898338 C-8.44668669 3.00126171 -9.32004344 3.00354003 -10.21986556 3.00588739 C-12.77596895 3.28381773 -14.33337685 4.01799215 -16.56332397 5.26069641 C-18.55552954 5.95030603 -20.55438004 6.62148698 -22.56332397 7.26069641 C-15.8945593 -0.19262881 -9.43575146 -0.03260358 0 0 Z " fill="#9AE1F2" transform="translate(204.56332397460938,112.73930358886719)"/>
<path d="M0 0 C0.33 0 0.66 0 1 0 C1.02187378 1.43666016 1.02187378 1.43666016 1.04418945 2.90234375 C1.10258363 6.48848011 1.17980984 10.07401526 1.26245117 13.65966797 C1.29550862 15.20546643 1.32359903 16.75138004 1.34643555 18.29736328 C1.42033537 29.98627683 1.42033537 29.98627683 5 41 C9.61507774 42.04214691 9.61507774 42.04214691 14 41 C13.67 42.32 13.34 43.64 13 45 C132.295 45.495 132.295 45.495 254 46 C254 46.33 254 46.66 254 47 C271.16 47.33 288.32 47.66 306 48 C306 48.33 306 48.66 306 49 C268.79270833 49.0915463 231.58543361 49.16203403 194.37805211 49.20426132 C189.9858399 49.20926417 185.5936279 49.21444146 181.20141602 49.21972656 C180.32700206 49.2207758 179.45258811 49.22182505 178.55167676 49.22290608 C164.39144503 49.24031349 150.23127823 49.27185303 136.07108503 49.30861118 C121.54248584 49.34601126 107.01392068 49.36823388 92.48527533 49.37635398 C83.51958725 49.38184369 74.55408269 49.3991853 65.58845109 49.43166587 C59.44120059 49.45280223 53.29404502 49.45920204 47.14676081 49.45400551 C43.59952597 49.45144234 40.05261191 49.45538404 36.50543404 49.4768219 C32.65856888 49.49990105 28.81212155 49.491952 24.9651947 49.48101807 C23.28570776 49.49849512 23.28570776 49.49849512 21.57229179 49.51632524 C15.14500228 49.46684761 11.22946944 48.8243333 6 45 C1.17643131 40.04606459 -0.22811519 34.99094576 -0.22659302 28.13638306 C-0.21627045 27.42364227 -0.20594788 26.71090149 -0.1953125 25.9765625 C-0.1924826 25.23038666 -0.18965271 24.48421082 -0.18673706 23.71542358 C-0.17561687 21.35178012 -0.15052821 18.98852732 -0.125 16.625 C-0.11495962 15.01432842 -0.10583562 13.40365085 -0.09765625 11.79296875 C-0.0757044 7.86183056 -0.04123185 3.93098133 0 0 Z " fill="#66CAEB" transform="translate(177,129)"/>
<path d="M0 0 C0.99 0.33 1.98 0.66 3 1 C-0.17687343 5.17531937 -1.94724239 7.27937716 -7 9 C-9.38150722 9.25415033 -9.38150722 9.25415033 -11.90328693 9.26006222 C-12.86972576 9.26712781 -13.83616459 9.2741934 -14.83188945 9.2814731 C-15.88577002 9.27905802 -16.93965058 9.27664293 -18.02546692 9.27415466 C-19.71399899 9.28200968 -19.71399899 9.28200968 -21.43664283 9.29002339 C-25.21666806 9.30505065 -28.99655825 9.30572915 -32.77661133 9.30639648 C-35.48355252 9.31293495 -38.19048198 9.32239431 -40.89741516 9.33161926 C-48.25692507 9.3544559 -55.61640612 9.3623883 -62.97594666 9.36744571 C-67.57233945 9.37070401 -72.16872387 9.37722726 -76.76511192 9.3844471 C-89.49472312 9.40401059 -102.22432655 9.4204165 -114.95395374 9.42332363 C-116.17551265 9.42360499 -116.17551265 9.42360499 -117.42174951 9.42389202 C-119.07262878 9.42425827 -120.72350804 9.42462197 -122.3743873 9.42498314 C-123.60361026 9.42525735 -123.60361026 9.42525735 -124.85766602 9.42553711 C-126.08839154 9.42580793 -126.08839154 9.42580793 -127.34398022 9.42608423 C-140.63997543 9.4296262 -153.93580873 9.45665106 -167.23174778 9.494035 C-180.88702324 9.53212166 -194.54221834 9.55148113 -208.19754809 9.55178314 C-215.8627501 9.5523676 -223.52775889 9.56085217 -231.19291115 9.58978081 C-237.71948991 9.61429946 -244.24580497 9.62157441 -250.77241734 9.60653328 C-254.10126713 9.59936613 -257.42917267 9.60293535 -260.75803375 9.62294388 C-264.37033875 9.64333258 -267.98129485 9.63289267 -271.59358215 9.61473083 C-272.64077055 9.6279308 -273.68795895 9.64113077 -274.76688033 9.65473074 C-281.08184931 9.58220824 -286.385461 8.66966061 -291 4 C-291 3.01 -291 2.02 -291 1 C-287.04 2.98 -287.04 2.98 -283 5 C-283 5.66 -283 6.32 -283 7 C-247.61846713 6.89543278 -212.23695423 6.78566488 -176.85545952 6.66888306 C-172.68212288 6.65511282 -168.50878609 6.64138583 -164.33544922 6.62768555 C-163.08914979 6.62359309 -163.08914979 6.62359309 -161.8176726 6.61941796 C-148.34925684 6.57529511 -134.88083267 6.53467798 -121.41240217 6.49534739 C-107.60136803 6.45493863 -93.79034956 6.41078348 -79.97933853 6.36312145 C-71.4513322 6.33381011 -62.92332709 6.30745104 -54.39530037 6.28482103 C-48.55412035 6.26904143 -42.71295952 6.24963597 -36.8718008 6.22733159 C-33.49745534 6.21455526 -30.1231396 6.20395908 -26.74877548 6.19658089 C-23.0973051 6.18834652 -19.44590813 6.17407745 -15.79446411 6.15821838 C-14.71860617 6.15724028 -13.64274822 6.15626217 -12.53428853 6.15525442 C-11.07573942 6.14704276 -11.07573942 6.14704276 -9.58772469 6.1386652 C-8.32211682 6.13467814 -8.32211682 6.13467814 -7.03094113 6.13061053 C-4.93147054 6.12777248 -4.93147054 6.12777248 -3 5 C-2.835 4.34 -2.67 3.68 -2.5 3 C-2.335 2.34 -2.17 1.68 -2 1 C-1.34 0.67 -0.68 0.34 0 0 Z " fill="#78CEE7" transform="translate(473,252)"/>
<path d="M0 0 C0.94913985 -0.00384115 1.8982797 -0.00768229 2.87618136 -0.01163983 C3.92100594 -0.01077335 4.96583051 -0.00990687 6.04231644 -0.00901413 C7.15066699 -0.01198525 8.25901755 -0.01495637 9.40095448 -0.01801753 C13.13421956 -0.02672521 16.86745264 -0.02821453 20.60072708 -0.02970505 C23.26958239 -0.03433176 25.93843476 -0.03933547 28.60728836 -0.04475021 C35.87181017 -0.05833699 43.13632647 -0.06435888 50.40085888 -0.06876087 C54.93659139 -0.07152289 59.47232176 -0.07576018 64.00805283 -0.08026505 C76.5651613 -0.09245849 89.12226806 -0.10275744 101.67938232 -0.10614014 C102.48320629 -0.1063597 103.28703025 -0.10657927 104.11521251 -0.10680549 C104.92096585 -0.10702377 105.72671919 -0.10724204 106.5568893 -0.10746694 C108.18966595 -0.1079104 109.82244261 -0.10835697 111.45521927 -0.10880661 C112.26513381 -0.10902804 113.07504835 -0.10924947 113.90950575 -0.10947761 C127.03166045 -0.11342522 140.15375959 -0.13087778 153.27589282 -0.15416613 C166.74690164 -0.17788073 180.2178826 -0.19034205 193.68891263 -0.19150805 C201.25289894 -0.19242479 208.81681289 -0.19817667 216.38077927 -0.21632767 C222.82211213 -0.23173017 229.26335028 -0.23684829 235.70469806 -0.22858956 C238.99065048 -0.22468345 242.27637232 -0.22724351 245.56230927 -0.23964691 C249.12661061 -0.25231292 252.69042114 -0.24651818 256.25471878 -0.23606491 C257.29062047 -0.24412132 258.32652215 -0.25217772 259.3938148 -0.26047826 C267.72822775 -0.20324175 273.00566022 1.50997578 279.40248489 7.13142776 C279.07248489 7.79142776 278.74248489 8.45142776 278.40248489 9.13142776 C277.74248489 8.69830276 277.08248489 8.26517776 276.40248489 7.81892776 C268.75567076 3.51759482 262.64458309 2.69849745 254.00038528 2.77066422 C252.30566684 2.7668193 252.30566684 2.7668193 250.57671165 2.76289672 C246.80104174 2.75796586 243.02577406 2.77444084 239.25014114 2.79085159 C236.53963341 2.79337017 233.82913346 2.79135444 231.11862564 2.78952408 C225.28829684 2.78795394 219.45806905 2.79733592 213.62776566 2.81423759 C205.19822822 2.83865833 196.76873943 2.846436 188.33917046 2.85020157 C174.66151714 2.85676124 160.98391761 2.87670923 147.30629349 2.90510941 C134.02276757 2.93266253 120.73925629 2.95388997 107.45570755 2.96663284 C106.63638555 2.96742101 105.81706356 2.96820918 104.97291362 2.96902124 C100.8624592 2.97293646 96.75200466 2.97672756 92.64155006 2.98045695 C58.56182267 3.01153777 24.48216039 3.06436035 -9.59751511 3.13142776 C-6.60598507 0.13989772 -4.04131106 0.00613327 0 0 Z " fill="#9AD9EC" transform="translate(196.59751510620117,195.86857223510742)"/>
<path d="M0 0 C0.94354741 -0.00384115 1.88709482 -0.00768229 2.85923457 -0.01163983 C3.89268229 -0.01077335 4.92613 -0.00990687 5.99089432 -0.00901413 C7.09122663 -0.01198525 8.19155894 -0.01495637 9.32523465 -0.01801753 C13.02542067 -0.02671382 16.72557437 -0.02821357 20.42576981 -0.02970505 C23.07344593 -0.03433255 25.72111909 -0.03933648 28.36879349 -0.04475021 C35.57134172 -0.05832812 42.77388439 -0.06435742 49.97644329 -0.06876087 C54.47449931 -0.07152423 58.97255319 -0.07576176 63.47060776 -0.08026505 C75.9265301 -0.09245705 88.38245073 -0.10275647 100.83837891 -0.10614014 C101.63548096 -0.1063597 102.43258302 -0.10657927 103.25383969 -0.10680549 C104.05283957 -0.10702377 104.85183945 -0.10724204 105.67505145 -0.10746694 C107.29410601 -0.1079104 108.91316056 -0.10835696 110.53221512 -0.10880661 C111.73687337 -0.10913875 111.73687337 -0.10913875 112.96586815 -0.10947761 C125.97735296 -0.11342514 138.98878176 -0.13087807 152.00024495 -0.15416613 C165.36167907 -0.17788737 178.72308509 -0.19034234 192.08454061 -0.19150805 C199.58538696 -0.19242439 207.08616031 -0.19816612 214.58698654 -0.21632767 C220.97446803 -0.23173909 227.36185397 -0.236843 233.74935052 -0.22858956 C237.00708071 -0.22468669 240.26457858 -0.22723173 243.52229309 -0.23964691 C247.05772822 -0.25233033 250.59266976 -0.24650866 254.12810135 -0.23606491 C255.15262618 -0.24412132 256.17715101 -0.25217772 257.23272204 -0.26047826 C263.27344774 -0.21875044 267.83180987 0.52045465 273.31346512 3.13142776 C273.64346512 3.79142776 273.97346512 4.45142776 274.31346512 5.13142776 C272.33346512 5.13142776 270.35346512 5.13142776 268.31346512 5.13142776 C268.31346512 4.14142776 268.31346512 3.15142776 268.31346512 2.13142776 C176.24346512 2.46142776 84.17346512 2.79142776 -10.68653488 3.13142776 C-7.51631661 -0.0387905 -4.33891574 0.00664151 0 0 Z " fill="#90D7EA" transform="translate(197.6865348815918,29.868572235107422)"/>
<path d="M0 0 C1.3135849 -0.0071553 2.6271698 -0.01431061 3.9805603 -0.02168274 C5.43986488 -0.02452301 6.8991697 -0.02723474 8.35847473 -0.02983093 C9.89271702 -0.03609631 11.42695779 -0.04274317 12.9611969 -0.04974365 C18.00352421 -0.07078004 23.04585181 -0.08114655 28.08821106 -0.09111023 C29.82495451 -0.09515813 31.56169781 -0.09927506 33.29844093 -0.10346031 C41.45912165 -0.1225121 49.61979333 -0.13674241 57.78049201 -0.14507228 C67.19510246 -0.15484105 76.60947757 -0.18115115 86.02400512 -0.22157317 C93.30396255 -0.25175551 100.58385261 -0.26654322 107.8638714 -0.26985329 C112.21029973 -0.27220164 116.55647664 -0.28113362 120.90283775 -0.30631447 C124.99459226 -0.32963698 129.08593056 -0.33381179 133.17773438 -0.32355309 C134.67568155 -0.3230586 136.17364949 -0.3293532 137.67153358 -0.34310913 C145.57826992 -0.41163083 151.97932149 -0.38279947 158.73274231 4.14717102 C164.2229837 9.55380965 164.90725324 13.60973935 164.97102356 21.10029602 C164.97909531 21.99327393 164.98716705 22.88625183 164.9954834 23.80628967 C165.00932801 25.69935665 165.02004847 27.59244864 165.02790833 29.48554993 C165.04509211 32.37194112 165.08897073 35.25717824 165.13313293 38.14326477 C165.14326251 39.9831001 165.15177778 41.82294517 165.15852356 43.66279602 C165.17603165 44.52237915 165.19353973 45.38196228 165.21157837 46.26759338 C165.19151315 51.8500755 164.37647264 54.85863396 160.73274231 59.14717102 C159.74274231 59.64217102 159.74274231 59.64217102 158.73274231 60.14717102 C158.54524231 57.89717102 158.54524231 57.89717102 158.73274231 55.14717102 C159.2210553 54.6054425 159.70936829 54.06371399 160.21247864 53.50556946 C162.43322019 50.06051351 162.21226266 46.63692606 162.24446106 42.66279602 C162.26241226 41.84720215 162.28036346 41.03160828 162.29885864 40.19129944 C162.35292251 37.59330879 162.38684413 34.99550144 162.42024231 32.39717102 C162.45341892 30.63282262 162.4879089 28.86849839 162.52375793 27.10420227 C162.60864651 22.78532419 162.67547608 18.4665001 162.73274231 14.14717102 C161.74274231 13.81717102 160.75274231 13.48717102 159.73274231 13.14717102 C159.02026499 11.49956722 158.35873848 9.82953573 157.73274231 8.14717102 C156.58576273 5.83993745 156.58576273 5.83993745 154.73274231 4.14717102 C150.52331805 3.21215543 146.46645949 3.01351361 142.16477966 2.98895264 C140.2087381 2.97426941 140.2087381 2.97426941 138.21318054 2.95928955 C136.78041113 2.95338647 135.34764134 2.94757596 133.91487122 2.94184875 C132.39676146 2.93226216 130.87865432 2.92225163 129.36054993 2.91184998 C125.24948294 2.88487944 121.13840456 2.86382751 117.02729845 2.84384799 C112.72713695 2.82193985 108.42701024 2.79457484 104.12687683 2.76779175 C95.98850642 2.71793003 87.85011664 2.67296707 79.71170843 2.62976938 C70.44449169 2.5803412 61.17730987 2.5254438 51.91012692 2.47008979 C32.85103116 2.35636988 13.79190242 2.24950918 -5.26725769 2.14717102 C-5.26725769 2.80717102 -5.26725769 3.46717102 -5.26725769 4.14717102 C-7.90725769 4.47717102 -10.54725769 4.80717102 -13.26725769 5.14717102 C-8.98041883 0.5646881 -6.17984274 0.02307275 0 0 Z " fill="#8AD6ED" transform="translate(197.2672576904297,278.8528289794922)"/>
<path d="M0 0 C1.11176924 -0.00085442 2.22353848 -0.00170885 3.36899769 -0.00258917 C7.09547162 -0.00423668 10.82190057 0.00126554 14.54837036 0.00672913 C17.21917319 0.00701118 19.88997326 0.00689694 22.56077576 0.00628662 C28.31143535 0.00576268 34.06208359 0.00889591 39.81274033 0.01452446 C48.12718834 0.02265706 56.44163087 0.02525649 64.75608243 0.02651245 C78.24625574 0.0287002 91.73642299 0.03535279 105.22659302 0.04481506 C118.32978281 0.05399634 131.43297097 0.06107368 144.53616333 0.06532288 C145.74801252 0.06571696 145.74801252 0.06571696 146.98434351 0.06611901 C151.03740301 0.06742406 155.09046251 0.06868776 159.14352202 0.06993091 C192.75910737 0.0802949 226.37468539 0.09790569 259.99026489 0.12025452 C259.99026489 0.45025452 259.99026489 0.78025452 259.99026489 1.12025452 C259.42394446 1.12123133 258.85762404 1.12220813 258.27414238 1.12321454 C224.73855909 1.18143701 191.2030489 1.25519603 157.66754711 1.3492408 C153.6444234 1.36050949 149.62129934 1.37164786 145.59817505 1.38270569 C144.39673484 1.38601121 144.39673484 1.38601121 143.17102312 1.38938352 C130.18759925 1.42479376 117.20417545 1.44963682 104.22072114 1.47060154 C90.90686661 1.49233397 77.59307495 1.52535989 64.27927387 1.56895608 C56.05834327 1.59551705 47.83749108 1.61317961 39.61651967 1.61960056 C33.98555042 1.62484091 28.35467997 1.64101199 22.7237636 1.66592018 C19.47087848 1.67998199 16.21820677 1.68747327 12.96528625 1.68526268 C9.44501069 1.68362496 5.92529017 1.70018038 2.40509033 1.7215271 C0.84966764 1.71425574 0.84966764 1.71425574 -0.73717773 1.70683748 C-2.1434759 1.72102229 -2.1434759 1.72102229 -3.57818413 1.73549366 C-4.79822555 1.73834156 -4.79822555 1.73834156 -6.04291427 1.741247 C-7.01649059 1.92885572 -7.01649059 1.92885572 -8.00973511 2.12025452 C-8.99973511 3.60525452 -8.99973511 3.60525452 -10.00973511 5.12025452 C-10.66973511 5.12025452 -11.32973511 5.12025452 -12.00973511 5.12025452 C-12.00973511 4.46025452 -12.00973511 3.80025452 -12.00973511 3.12025452 C-13.32973511 3.12025452 -14.64973511 3.12025452 -16.00973511 3.12025452 C-15.34973511 3.45025452 -14.68973511 3.78025452 -14.00973511 4.12025452 C-14.00973511 4.78025452 -14.00973511 5.44025452 -14.00973511 6.12025452 C-15.65973511 6.45025452 -17.30973511 6.78025452 -19.00973511 7.12025452 C-19.11286011 7.75962952 -19.21598511 8.39900452 -19.32223511 9.05775452 C-19.54911011 9.73837952 -19.77598511 10.41900452 -20.00973511 11.12025452 C-20.99973511 11.45025452 -21.98973511 11.78025452 -23.00973511 12.12025452 C-23.33973511 12.78025452 -23.66973511 13.44025452 -24.00973511 14.12025452 C-23.76124144 9.0261343 -21.98547547 6.33861135 -18.87301636 2.53822327 C-13.92599307 -1.22649257 -5.93634636 -0.01667516 0 0 Z " fill="#1DA6CF" transform="translate(202.00973510742188,197.87974548339844)"/>
<path d="M0 0 C1.65 0 3.3 0 5 0 C3.90218639 1.47745228 3.90218639 1.47745228 2 3 C-0.86792278 3.36914349 -0.86792278 3.36914349 -4.4349823 3.36076355 C-5.41887978 3.36460846 -5.41887978 3.36460846 -6.42265397 3.36853105 C-8.62470996 3.37347994 -10.82608316 3.35695873 -13.02807617 3.34057617 C-14.60485315 3.33973013 -16.18163131 3.34020459 -17.75840759 3.34190369 C-22.04332036 3.34276598 -26.32798224 3.32510248 -30.6128366 3.30418181 C-35.08915298 3.28545392 -39.56547483 3.28366765 -44.04182434 3.28010559 C-52.5203626 3.27077368 -60.9987851 3.24614441 -69.47727233 3.21605712 C-79.12889528 3.18254875 -88.78052369 3.16603608 -98.4321903 3.15097082 C-118.28819153 3.11959584 -138.14408848 3.06681309 -158 3 C-158 2.67 -158 2.34 -158 2 C-105.86 2 -53.72 2 0 2 C0 1.34 0 0.68 0 0 Z " fill="#33A2CC" transform="translate(350,340)"/>
<path d="M0 0 C4.30499044 2.94551978 5.72302592 4.97271244 7 10 C7.19660313 12.77358959 7.30422014 15.44334368 7.30078125 18.21484375 C7.30506638 18.98880997 7.3093515 19.76277618 7.31376648 20.56019592 C7.31948439 22.18977891 7.32002886 23.81938741 7.31567383 25.44897461 C7.31251375 27.9267171 7.33600389 30.40326414 7.36132812 32.88085938 C7.36360156 34.47135268 7.36430441 36.06184915 7.36328125 37.65234375 C7.372491 38.38484848 7.38170074 39.11735321 7.39118958 39.87205505 C7.34617726 44.93675955 6.37056667 48.50123299 4 53 C3.01 53.495 3.01 53.495 2 54 C2 52.68 2 51.36 2 50 C2.66 50 3.32 50 4 50 C4 37.46 4 24.92 4 12 C3.34 11.67 2.68 11.34 2 11 C2.04125 10.21625 2.0825 9.4325 2.125 8.625 C2.28728734 5.83883881 2.28728734 5.83883881 0 4 C0 2.68 0 1.36 0 0 Z " fill="#7CCDE6" transform="translate(472,35)"/>
<path d="M0 0 C1.14072968 0.00007553 2.28145935 0.00015106 3.45675659 0.00022888 C4.6725943 0.00539017 5.88843201 0.01055145 7.14111328 0.01586914 C8.39779816 0.01728409 9.65448303 0.01869904 10.94924927 0.02015686 C14.27334518 0.02479465 17.5973712 0.03376359 20.92144775 0.04486084 C24.32018432 0.05513138 27.71892814 0.05966652 31.11767578 0.06469727 C37.77394495 0.0757084 44.43018133 0.09243317 51.08642578 0.11352539 C51.08642578 0.44352539 51.08642578 0.77352539 51.08642578 1.11352539 C50.07831345 1.12232475 50.07831345 1.12232475 49.04983521 1.13130188 C42.07460819 1.19508014 35.09984927 1.27945868 28.125 1.37597656 C25.5195939 1.40929585 22.9141144 1.43730565 20.30859375 1.45996094 C16.57015605 1.49337793 12.83239538 1.54568785 9.09423828 1.60180664 C7.92337677 1.60819656 6.75251526 1.61458649 5.5461731 1.62117004 C3.92471878 1.65086128 3.92471878 1.65086128 2.27050781 1.68115234 C0.83821335 1.69780693 0.83821335 1.69780693 -0.62301636 1.71479797 C-1.37890045 1.84637802 -2.13478455 1.97795807 -2.91357422 2.11352539 C-3.90357422 3.59852539 -3.90357422 3.59852539 -4.91357422 5.11352539 C-5.57357422 5.11352539 -6.23357422 5.11352539 -6.91357422 5.11352539 C-6.91357422 4.45352539 -6.91357422 3.79352539 -6.91357422 3.11352539 C-8.23357422 3.11352539 -9.55357422 3.11352539 -10.91357422 3.11352539 C-10.25357422 3.44352539 -9.59357422 3.77352539 -8.91357422 4.11352539 C-8.91357422 4.77352539 -8.91357422 5.43352539 -8.91357422 6.11352539 C-10.56357422 6.44352539 -12.21357422 6.77352539 -13.91357422 7.11352539 C-14.01669922 7.75290039 -14.11982422 8.39227539 -14.22607422 9.05102539 C-14.45294922 9.73165039 -14.67982422 10.41227539 -14.91357422 11.11352539 C-15.90357422 11.44352539 -16.89357422 11.77352539 -17.91357422 12.11352539 C-18.24357422 12.77352539 -18.57357422 13.43352539 -18.91357422 14.11352539 C-18.66508055 9.01940517 -16.88931458 6.33188222 -13.77685547 2.53149414 C-9.92926749 -0.39654451 -4.66664459 -0.01037032 0 0 Z " fill="#1DA5CE" transform="translate(196.91357421875,197.886474609375)"/>
<path d="M0 0 C0.99 0.33 1.98 0.66 3 1 C-1.75 6.875 -1.75 6.875 -4 8 C-6.4414156 8.09279918 -8.85400059 8.12583928 -11.29541016 8.11352539 C-12.42238564 8.11374443 -12.42238564 8.11374443 -13.5721283 8.1139679 C-16.0611355 8.11326996 -18.55006833 8.10548314 -21.0390625 8.09765625 C-22.76256265 8.09579165 -24.48606334 8.09436794 -26.20956421 8.09336853 C-30.75025897 8.08954669 -35.29092185 8.07971922 -39.831604 8.06866455 C-44.46325245 8.05844329 -49.09490603 8.05386937 -53.7265625 8.04882812 C-62.81772236 8.03809667 -71.90885853 8.02102422 -81 8 C-81 7.67 -81 7.34 -81 7 C-79.57846115 6.9845388 -79.57846115 6.9845388 -78.12820435 6.96876526 C-69.21077881 6.87114208 -60.29342479 6.76841866 -51.3761158 6.66066074 C-46.79129595 6.60542224 -42.20646973 6.55200075 -37.62158203 6.50268555 C-33.19952607 6.45505568 -28.77754901 6.40271337 -24.35558701 6.34705925 C-22.66586133 6.32662945 -20.976114 6.30791741 -19.28635025 6.29092598 C-16.92535808 6.26689578 -14.56451567 6.23683944 -12.20361328 6.20532227 C-11.14841492 6.19668907 -11.14841492 6.19668907 -10.07189941 6.18788147 C-6.41246722 6.17511443 -6.41246722 6.17511443 -3 5 C-2.835 4.34 -2.67 3.68 -2.5 3 C-2.335 2.34 -2.17 1.68 -2 1 C-1.34 0.67 -0.68 0.34 0 0 Z " fill="#35AFD4" transform="translate(473,252)"/>
<path d="M0 0 C0.66 0.33 1.32 0.66 2 1 C1.55011719 1.38800781 1.10023438 1.77601562 0.63671875 2.17578125 C-1.3360986 4.37460154 -2.14891897 6.42988829 -3.1875 9.1875 C-3.53167969 10.08855469 -3.87585938 10.98960938 -4.23046875 11.91796875 C-4.61138672 12.94857422 -4.61138672 12.94857422 -5 14 C-5.66 14 -6.32 14 -7 14 C-7 24.89 -7 35.78 -7 47 C-7.33 47 -7.66 47 -8 47 C-8.07466101 42.30439657 -8.12884101 37.60914557 -8.16479492 32.91308594 C-8.17979745 31.31862359 -8.20020621 29.72420192 -8.22631836 28.12988281 C-8.26308134 25.82606923 -8.27981155 23.5228054 -8.29296875 21.21875 C-8.30845261 20.51633179 -8.32393646 19.81391357 -8.33988953 19.09020996 C-8.34203613 12.64733664 -6.9575436 6.67927546 -2.3125 2 C-1.549375 1.34 -0.78625 0.68 0 0 Z " fill="#C5F4FF" transform="translate(185,33)"/>
<path d="M0 0 C0.33 0 0.66 0 1 0 C1.12377604 5.74739758 1.21442248 11.49401627 1.2746582 17.24243164 C1.29977281 19.19699623 1.33387131 21.15146717 1.37719727 23.10571289 C1.43798434 25.91836668 1.46623983 28.72977702 1.48828125 31.54296875 C1.51408768 32.41398727 1.5398941 33.2850058 1.56648254 34.18241882 C1.5685873 38.75509757 1.47340398 40.42173007 -1.53051758 44.09106445 C-2.34544678 44.72101318 -3.16037598 45.35096191 -4 46 C-4.1875 43.75 -4.1875 43.75 -4 41 C-3.51168701 40.45827148 -3.02337402 39.91654297 -2.52026367 39.35839844 C-0.29952212 35.91334249 -0.52047965 32.48975504 -0.48828125 28.515625 C-0.46135445 27.29223419 -0.46135445 27.29223419 -0.43388367 26.04412842 C-0.3798198 23.44613777 -0.34589818 20.84833042 -0.3125 18.25 C-0.27932339 16.4856516 -0.24483341 14.72132737 -0.20898438 12.95703125 C-0.1240958 8.63815317 -0.05726623 4.31932908 0 0 Z " fill="#2AA3CB" transform="translate(360,293)"/>
<path d="M0 0 C3.25851063 3.11683626 3.97926098 4.27096758 4.11352539 8.99072266 C4.11336668 10.71517738 4.10769599 12.439637 4.09765625 14.1640625 C4.0962413 15.07127045 4.09482635 15.97847839 4.09336853 16.91317749 C4.08776096 19.81715155 4.07520718 22.72104915 4.0625 25.625 C4.05748598 27.59114472 4.0529229 29.55729065 4.04882812 31.5234375 C4.03778906 36.3489879 4.02051935 41.17448097 4 46 C3.67 46 3.34 46 3 46 C3 33.13 3 20.26 3 7 C2.34 7 1.68 7 1 7 C0.67 4.69 0.34 2.38 0 0 Z " fill="#93E2F8" transform="translate(358,286)"/>
<path d="M0 0 C0.79339783 0.00565979 1.58679565 0.01131958 2.40423584 0.01715088 C4.93156973 0.03949353 7.45747165 0.08968324 9.984375 0.140625 C11.70050032 0.16069286 13.41664792 0.17894313 15.1328125 0.1953125 C19.3338828 0.23935105 23.53388635 0.30836174 27.734375 0.390625 C27.734375 0.720625 27.734375 1.050625 27.734375 1.390625 C17.174375 1.390625 6.614375 1.390625 -4.265625 1.390625 C-4.265625 2.050625 -4.265625 2.710625 -4.265625 3.390625 C-6.905625 3.720625 -9.545625 4.050625 -12.265625 4.390625 C-8.81412222 -0.20607686 -5.36508032 -0.1444461 0 0 Z " fill="#3FAFD5" transform="translate(196.265625,279.609375)"/>
<path d="M0 0 C0.66 0.33 1.32 0.66 2 1 C2.625 3.0625 2.625 3.0625 3 5 C1.35 5.33 -0.3 5.66 -2 6 C-2.103125 6.639375 -2.20625 7.27875 -2.3125 7.9375 C-2.539375 8.618125 -2.76625 9.29875 -3 10 C-3.99 10.33 -4.98 10.66 -6 11 C-6.33 11.66 -6.66 12.32 -7 13 C-6.70876501 7.02968261 -3.97185616 4.105466 0 0 Z " fill="#51BFE0" transform="translate(185,199)"/>
<path d="M0 0 C6.75 2.875 6.75 2.875 9 4 C9 4.66 9 5.32 9 6 C11.64 6 14.28 6 17 6 C17 6.33 17 6.66 17 7 C11.87102106 7.36490759 8.10182889 7.56057961 3.4375 5.1875 C1 3 1 3 0 0 Z " fill="#60C4E1" transform="translate(181,253)"/>
<path d="M0 0 C0.99 0 1.98 0 3 0 C3.66 1.65 4.32 3.3 5 5 C1.5647952 7.29013653 0.014669 7.17842973 -4 7 C-3.01 6.67 -2.02 6.34 -1 6 C-1.020625 5.195625 -1.04125 4.39125 -1.0625 3.5625 C-1 1 -1 1 0 0 Z " fill="#34B1DC" transform="translate(469,86)"/>
<path d="M0 0 C0.66 0.33 1.32 0.66 2 1 C1.55011719 1.38800781 1.10023438 1.77601562 0.63671875 2.17578125 C-1.3360986 4.37460154 -2.14891897 6.42988829 -3.1875 9.1875 C-3.53167969 10.08855469 -3.87585938 10.98960938 -4.23046875 11.91796875 C-4.61138672 12.94857422 -4.61138672 12.94857422 -5 14 C-5.66 14 -6.32 14 -7 14 C-6.73672346 7.54972485 -4.49335977 4.52084209 0 0 Z " fill="#71CCE4" transform="translate(185,33)"/>
<path d="M0 0 C0.625 1.875 0.625 1.875 1 4 C0.34 4.66 -0.32 5.32 -1 6 C-1.71408334 7.98356483 -2.38617742 9.98315437 -3 12 C-3.66 12 -4.32 12 -5 12 C-4.50769231 4.61538462 -4.50769231 4.61538462 -1.9375 1.5 C-1.298125 1.005 -0.65875 0.51 0 0 Z " fill="#5CC1E0" transform="translate(183,284)"/>
<path d="M0 0 C0.33 1.65 0.66 3.3 1 5 C-1.97 4.505 -1.97 4.505 -5 4 C-5.33 2.68 -5.66 1.36 -6 0 C-3.50907189 -1.24546405 -2.58919267 -0.7767578 0 0 Z " fill="#2DACDD" transform="translate(492,120)"/>
<path d="M0 0 C0.33 0.66 0.66 1.32 1 2 C1.99 2 2.98 2 4 2 C4.28875 3.093125 4.5775 4.18625 4.875 5.3125 C5.81893204 9.04013845 5.81893204 9.04013845 8 12 C3.78456242 10.49448658 2.13950875 7.82055134 0 4 C0 2.68 0 1.36 0 0 Z " fill="#76CFE8" transform="translate(178,80)"/>
<path d="M0 0 C2.22855574 -0.0814222 4.45797655 -0.13938079 6.6875 -0.1875 C8.54955078 -0.23970703 8.54955078 -0.23970703 10.44921875 -0.29296875 C14.19092269 0.0157527 16.03782121 0.75146276 19 3 C19 3.33 19 3.66 19 4 C17.02 4 15.04 4 13 4 C13 3.01 13 2.02 13 1 C8.71 1 4.42 1 0 1 C0 0.67 0 0.34 0 0 Z " fill="#66C0DF" transform="translate(453,31)"/>
<path d="M0 0 C1.9375 0.9375 1.9375 0.9375 4 3 C4.66174825 5.9858081 4.87205948 8.94861869 5 12 C4.01 11.67 3.02 11.34 2 11 C2.04125 10.21625 2.0825 9.4325 2.125 8.625 C2.28728734 5.83883881 2.28728734 5.83883881 0 4 C0 2.68 0 1.36 0 0 Z " fill="#2FACD9" transform="translate(472,35)"/>
<path d="M0 0 C0.66 0 1.32 0 2 0 C1.38461538 6.52307692 1.38461538 6.52307692 -0.5625 8.9375 C-1.036875 9.288125 -1.51125 9.63875 -2 10 C-2.33 8.02 -2.66 6.04 -3 4 C-2.01 3.67 -1.02 3.34 0 3 C0 2.01 0 1.02 0 0 Z " fill="#59BEE0" transform="translate(493,162)"/>
<path d="M0 0 C1.65 0 3.3 0 5 0 C4.01171875 1.48828125 4.01171875 1.48828125 2 3 C-0.81127043 3.21714241 -3.3883345 3.28284276 -6.1875 3.1875 C-6.93708984 3.17396484 -7.68667969 3.16042969 -8.45898438 3.14648438 C-10.30629767 3.11118539 -12.15324066 3.05737917 -14 3 C-14 2.67 -14 2.34 -14 2 C-9.38 2 -4.76 2 0 2 C0 1.34 0 0.68 0 0 Z " fill="#5CBCDC" transform="translate(350,340)"/>
<path d="M0 0 C0.66 0 1.32 0 2 0 C1.50769231 5.53846154 1.50769231 5.53846154 -1.0625 7.875 C-2.0215625 8.431875 -2.0215625 8.431875 -3 9 C-3.25532751 5.93606987 -3.21861333 4.36766788 -1.625 1.6875 C-0.820625 0.8521875 -0.820625 0.8521875 0 0 Z " fill="#4FBCDE" transform="translate(359,330)"/>
<path d="M0 0 C3.17218843 3.62535821 4.42902597 7.51150278 6 12 C2.49890916 10.83296972 1.76015131 10.1850357 0 7 C-0.1875 3.25 -0.1875 3.25 0 0 Z " fill="#6EC4E3" transform="translate(179,328)"/>
<path d="M0 0 C0.99 0.33 1.98 0.66 3 1 C-1.30769231 6.78461538 -1.30769231 6.78461538 -4.8125 7.875 C-5.8953125 7.936875 -5.8953125 7.936875 -7 8 C-6.360625 7.5875 -5.72125 7.175 -5.0625 6.75 C-2.73907828 4.77861188 -2.57649237 3.88246184 -2 1 C-1.34 0.67 -0.68 0.34 0 0 Z " fill="#71C9E4" transform="translate(473,252)"/>
<path d="M0 0 C2.475 0.99 2.475 0.99 5 2 C5.33 4.64 5.66 7.28 6 10 C3.19151983 8.59575991 3.07585415 6.89135802 2 4 C1.34786461 2.65949948 0.68620031 1.32338632 0 0 Z " fill="#28ABD7" transform="translate(353,283)"/>
<path d="M0 0 C-0.99 0.33 -1.98 0.66 -3 1 C-3 1.66 -3 2.32 -3 3 C-5.64 3.33 -8.28 3.66 -11 4 C-7.65667474 -0.27945633 -5.29105716 -0.4070044 0 0 Z " fill="#67C6E2" transform="translate(195,280)"/>
<path d="M0 0 C0.66 0.66 1.32 1.32 2 2 C1.625 4.125 1.625 4.125 1 6 C0.62875 5.175 0.2575 4.35 -0.125 3.5 C-0.74375 2.675 -1.3625 1.85 -2 1 C-5.12635209 0.58253392 -5.12635209 0.58253392 -8 1 C-8 0.34 -8 -0.32 -8 -1 C-4.34765818 -2.21744727 -3.37046678 -1.64202228 0 0 Z " fill="#19A0D1" transform="translate(474,203)"/>
<path d="M0 0 C2.75 -0.25 2.75 -0.25 6 0 C8.375 2 8.375 2 10 4 C6.7 3.34 3.4 2.68 0 2 C0 1.34 0 0.68 0 0 Z " fill="#52BCDB" transform="translate(480,115)"/>
<path d="M0 0 C1.134375 0.020625 2.26875 0.04125 3.4375 0.0625 C2.7775 1.3825 2.1175 2.7025 1.4375 4.0625 C0.7775 4.0625 0.1175 4.0625 -0.5625 4.0625 C-0.5625 3.4025 -0.5625 2.7425 -0.5625 2.0625 C-1.8825 1.7325 -3.2025 1.4025 -4.5625 1.0625 C-3.5625 0.0625 -3.5625 0.0625 0 0 Z " fill="#15A6D6" transform="translate(190.5625,198.9375)"/>
<path d="M0 0 C1.093125 0.0825 2.18625 0.165 3.3125 0.25 C0.08734237 1.98662334 -3.20079166 3.1405928 -6.6875 4.25 C-4.79150483 0.68106792 -4.16790733 0.28256999 0 0 Z " fill="#5EBDDD" transform="translate(188.6875,115.75)"/>
<path d="M0 0 C0.66 0 1.32 0 2 0 C1.6875 2.875 1.6875 2.875 1 6 C0.01 6.66 -0.98 7.32 -2 8 C-2 6.68 -2 5.36 -2 4 C-1.34 4 -0.68 4 0 4 C0 2.68 0 1.36 0 0 Z " fill="#68C2DF" transform="translate(476,81)"/>
</svg>
