<?xml version="1.0" encoding="UTF-8"?>
<svg version="1.1" xmlns="http://www.w3.org/2000/svg" width="500" height="500">
<path d="M0 0 C0.78955078 -0.01224609 1.57910156 -0.02449219 2.39257812 -0.03710938 C4.45057435 -0.04237279 6.50812009 0.06543715 8.5625 0.1875 C9.5525 1.1775 9.5525 1.1775 10.5625 2.1875 C12.21723651 2.52361835 13.88790355 2.78353938 15.5625 3 C32.07687451 5.81324195 46.86035506 18.03442285 56.38793945 31.35473633 C61.5625 38.75965808 61.5625 38.75965808 61.5625 41.1875 C62.2225 41.1875 62.8825 41.1875 63.5625 41.1875 C65.86922095 44.64758142 66.04384006 47.11231479 66.5625 51.1875 C66.8925 51.8475 67.2225 52.5075 67.5625 53.1875 C68.2225 53.1875 68.8825 53.1875 69.5625 53.1875 C69.5625 53.8475 69.5625 54.5075 69.5625 55.1875 C71.4496875 54.6925 71.4496875 54.6925 73.375 54.1875 C83.32094119 52.04290643 92.31651524 52.71662325 101.5625 57.1875 C108.82352194 62.31136557 113.6381136 70.77657583 115.29296875 79.4375 C115.90334238 85.66508024 115.70050034 91.93915143 115.5625 98.1875 C111.36661547 99.36251825 107.29289871 99.33124805 102.96484375 99.3203125 C102.13416885 99.32126923 101.30349396 99.32222595 100.44764709 99.32321167 C98.69515914 99.32389099 96.94266864 99.32205401 95.19018555 99.31787109 C92.50629033 99.31251256 89.82256194 99.31782795 87.13867188 99.32421875 C85.43489546 99.32355806 83.73111916 99.32227708 82.02734375 99.3203125 C80.82258644 99.32334885 80.82258644 99.32334885 79.5934906 99.32644653 C76.32556681 99.31266869 73.68471234 99.22823745 70.5625 98.1875 C70.75703336 102.36996733 71.27182418 103.89006428 74.25 106.9375 C80.70250316 112.15515754 88.7251395 111.67557515 96.5625 111.1875 C98.9807701 110.77678355 101.31192217 110.25302864 103.68359375 109.6328125 C106.00660011 109.08224551 108.18577654 109.034163 110.5625 109.1875 C114.62132353 124.06985294 114.62132353 124.06985294 112.5625 128.1875 C99.51073749 133.59983802 81.81328495 134.37404853 68.68359375 129.01171875 C65.14075952 127.26350797 61.85050146 125.37950098 58.5625 123.1875 C58.5625 122.5275 58.5625 121.8675 58.5625 121.1875 C57.9025 121.1875 57.2425 121.1875 56.5625 121.1875 C56.2325 120.5275 55.9025 119.8675 55.5625 119.1875 C52.61954491 119.52900332 50.97696497 119.79677091 48.7890625 121.859375 C48.26054687 122.54515625 47.73203125 123.2309375 47.1875 123.9375 C39.52100665 133.832186 25.18617219 140.04017391 13.1875 142.6875 C-8.6741679 145.45394563 -28.68033833 140.95358543 -46.5 127.6875 C-50.61143023 124.23264798 -54.1387217 120.41854173 -57.4375 116.1875 C-57.95054688 115.53394531 -58.46359375 114.88039063 -58.9921875 114.20703125 C-65.38424122 105.38069801 -69.90313681 93.98558092 -71.4375 83.1875 C-71.581875 82.34832031 -71.72625 81.50914062 -71.875 80.64453125 C-73.70665409 66.81172696 -71.05176516 48.85327966 -62.875 37.3125 C-61.6684375 35.765625 -61.6684375 35.765625 -60.4375 34.1875 C-59.921875 33.32125 -59.40625 32.455 -58.875 31.5625 C-57.25766986 28.89038934 -55.50850931 26.52573631 -53.4375 24.1875 C-52.7775 24.1875 -52.1175 24.1875 -51.4375 24.1875 C-51.21835938 23.61773437 -50.99921875 23.04796875 -50.7734375 22.4609375 C-45.41297054 13.33873934 -30.89057759 6.60313083 -21.16015625 3.96875 C-18.32153353 3.24406853 -15.47312369 2.58423281 -12.61328125 1.94921875 C-4.5017854 0.00365701 -4.5017854 0.00365701 0 0 Z M-49.4375 36.1875 C-46.27827406 49.6998875 -46.27827406 49.6998875 -39.4375 61.1875 C-39.10416667 62.85416667 -38.77083333 64.52083333 -38.4375 66.1875 C-37.7775 66.8475 -37.1175 67.5075 -36.4375 68.1875 C-35.94799278 70.17816269 -35.46117804 72.16965501 -35.00390625 74.16796875 C-34.26059794 76.81824733 -32.90149188 78.86951285 -31.4375 81.1875 C-30.75724363 83.18291868 -30.09259503 85.18367991 -29.4375 87.1875 C-28.79094003 88.79987568 -28.12302982 90.40380327 -27.4375 92 C-27.1075 92.76957031 -26.7775 93.53914063 -26.4375 94.33203125 C-25.57490015 96.35846051 -25.57490015 96.35846051 -23.4375 97.1875 C-23.31246094 98.02796875 -23.18742187 98.8684375 -23.05859375 99.734375 C-22.27277542 104.10332724 -20.5263789 107.52102963 -18.5 111.4375 C-18.13970703 112.15679687 -17.77941406 112.87609375 -17.40820312 113.6171875 C-15.96019669 116.46520016 -14.71116567 118.91383433 -12.4375 121.1875 C-12.1075 122.1775 -11.7775 123.1675 -11.4375 124.1875 C-10.4475 124.1875 -9.4575 124.1875 -8.4375 124.1875 C-8.9325 125.6725 -8.9325 125.6725 -9.4375 127.1875 C-3.8275 127.1875 1.7825 127.1875 7.5625 127.1875 C8.09875 125.929375 8.635 124.67125 9.1875 123.375 C10.76602423 119.81916646 12.49138892 116.40362968 14.375 113 C23.58597316 96.30943961 30.7405359 78.90759209 37.7578125 61.20800781 C39.95908643 55.65859624 42.24640831 50.15964045 44.65234375 44.6953125 C45.67512772 41.87716955 46.15199246 39.15179653 46.5625 36.1875 C43.85533758 35.28511253 42.32473232 35.06898698 39.55078125 35.08984375 C38.79345703 35.09306641 38.03613281 35.09628906 37.25585938 35.09960938 C36.47017578 35.10798828 35.68449219 35.11636719 34.875 35.125 C33.67907227 35.13176758 33.67907227 35.13176758 32.45898438 35.13867188 C30.49345743 35.1504415 28.52796915 35.16837652 26.5625 35.1875 C25.59716842 37.5042958 24.67139567 39.74848752 24.06640625 42.1875 C23.44638805 44.64834742 22.50041423 46.85433055 21.5 49.1875 C19.08166888 54.91252877 16.74535759 60.66705929 14.4375 66.4375 C13.93271118 67.69626953 13.93271118 67.69626953 13.41772461 68.98046875 C11.88213004 72.82343929 10.37472911 76.6708711 8.9453125 80.5546875 C7.93477728 83.20948341 6.92820835 85.59284407 5.5625 88.0625 C3.5179143 91.95805534 2.46055245 95.90970817 1.46875 100.18359375 C1.1696875 100.84488281 0.870625 101.50617188 0.5625 102.1875 C-1.53125 102.97265625 -1.53125 102.97265625 -3.4375 103.1875 C-3.52515625 102.39601563 -3.6128125 101.60453125 -3.703125 100.7890625 C-4.65486674 96.12147803 -6.3743995 91.95506732 -8.1875 87.5625 C-8.55093506 86.66805176 -8.91437012 85.77360352 -9.28881836 84.85205078 C-11.53944302 79.32583387 -13.84070162 73.82123717 -16.15234375 68.3203125 C-18.44196606 62.73892315 -20.61187426 57.11039463 -22.7890625 51.484375 C-23.06524414 50.77345703 -23.34142578 50.06253906 -23.62597656 49.33007812 C-24.17403707 47.88309287 -24.70161612 46.4282079 -25.20996094 44.96679688 C-26.94216492 39.9732693 -26.94216492 39.9732693 -30.4375 36.1875 C-33.08746326 35.9702899 -35.48826558 35.90398446 -38.125 36 C-38.82689453 36.01353516 -39.52878906 36.02707031 -40.25195312 36.04101562 C-41.98079829 36.07629818 -43.70924765 36.13010417 -45.4375 36.1875 C-45.4375 37.5075 -45.4375 38.8275 -45.4375 40.1875 C-46.0975 40.1875 -46.7575 40.1875 -47.4375 40.1875 C-47.1075 38.5375 -46.7775 36.8875 -46.4375 35.1875 C-47.6611068 35.1129644 -47.6611068 35.1129644 -49.4375 36.1875 Z M71.5625 74.1875 C70.5725 76.8275 69.5825 79.4675 68.5625 82.1875 C77.4725 82.1875 86.3825 82.1875 95.5625 82.1875 C93.38153579 74.60387052 93.38153579 74.60387052 89.9375 71.6875 C83.21153622 68.69818276 77.07144755 68.94088328 71.5625 74.1875 Z " fill="#F10808" transform="translate(121.4375,175.8125)"/>
<path d="M0 0 C0 0.66 0 1.32 0 2 C1.98 2 3.96 2 6 2 C6 2.66 6 3.32 6 4 C6.66 4 7.32 4 8 4 C8 4.99 8 5.98 8 7 C8.54140625 6.79503906 9.0828125 6.59007812 9.640625 6.37890625 C12.82791424 5.86704026 14.76555247 6.76503847 17.75 7.9375 C18.73484375 8.31777344 19.7196875 8.69804687 20.734375 9.08984375 C21.48203125 9.39019531 22.2296875 9.69054687 23 10 C23 10.99 23 11.98 23 13 C24.32 13.33 25.64 13.66 27 14 C27 14.99 27 15.98 27 17 C27.61875 17.103125 28.2375 17.20625 28.875 17.3125 C31 18 31 18 33 21 C33.625 23.1875 33.625 23.1875 34 25 C30.99984088 26.00005304 29.02576244 26.11575585 25.89453125 26.09765625 C24.91162109 26.09443359 23.92871094 26.09121094 22.91601562 26.08789062 C21.89185547 26.07951172 20.86769531 26.07113281 19.8125 26.0625 C18.77673828 26.05798828 17.74097656 26.05347656 16.67382812 26.04882812 C14.11582734 26.0370401 11.55794267 26.02058515 9 26 C8.7525 26.9075 8.505 27.815 8.25 28.75 C5.4326833 38.55578965 1.89474195 48.0514402 -1.9375 57.5 C-2.35451172 58.53769531 -2.77152344 59.57539063 -3.20117188 60.64453125 C-6.07839899 67.78645822 -9.02694409 74.89751871 -12 82 C-12.527641 83.26550111 -13.05504257 84.53110211 -13.58203125 85.796875 C-14.72135417 88.53125 -15.86067708 91.265625 -17 94 C-19.98337319 92.5083134 -20.24203992 90.378002 -21.4609375 87.3125 C-21.93273437 86.13816406 -22.40453125 84.96382813 -22.890625 83.75390625 C-23.38573876 82.50273158 -23.88052835 81.25142858 -24.375 80 C-25.33981546 77.5828019 -26.30593614 75.16612431 -27.2734375 72.75 C-27.73862793 71.58718506 -28.20381836 70.42437012 -28.68310547 69.22631836 C-30.08683419 65.78726106 -31.58168522 62.40059003 -33.11083984 59.01611328 C-34.57214548 55.70269705 -35.85707673 52.3286916 -37.125 48.9375 C-37.37636719 48.28201172 -37.62773438 47.62652344 -37.88671875 46.95117188 C-39.17989903 43.50833328 -40.2148567 40.16376498 -40.9921875 36.56640625 C-41.32476562 35.38949219 -41.65734375 34.21257812 -42 33 C-42.99 32.67 -43.98 32.34 -45 32 C-45 31.34 -45 30.68 -45 30 C-50.61 29.67 -56.22 29.34 -62 29 C-62 30.32 -62 31.64 -62 33 C-62.66 33 -63.32 33 -64 33 C-64 31.68 -64 30.36 -64 29 C-64.66 29 -65.32 29 -66 29 C-64.55025254 32.79500579 -63.08876303 36.58538039 -61.625 40.375 C-61.2125 41.45523438 -60.8 42.53546875 -60.375 43.6484375 C-59.97539063 44.6796875 -59.57578125 45.7109375 -59.1640625 46.7734375 C-58.79748535 47.72653809 -58.4309082 48.67963867 -58.05322266 49.66162109 C-57.10865049 52.12757462 -57.10865049 52.12757462 -55 54 C-54.7525 55.2684375 -54.7525 55.2684375 -54.5 56.5625 C-54.2525 57.7690625 -54.2525 57.7690625 -54 59 C-53.01 59.495 -53.01 59.495 -52 60 C-51.3671875 62.06640625 -51.3671875 62.06640625 -50.875 64.5625 C-50.62363281 65.80193359 -50.62363281 65.80193359 -50.3671875 67.06640625 C-50.24601562 67.70449219 -50.12484375 68.34257812 -50 69 C-49.34 69 -48.68 69 -48 69 C-47.85304688 69.94359375 -47.85304688 69.94359375 -47.703125 70.90625 C-46.64513576 76.96232635 -44.8969889 81.59228739 -42 87 C-42 87.66 -42 88.32 -42 89 C-41.01 89.33 -40.02 89.66 -39 90 C-38.87625 90.928125 -38.7525 91.85625 -38.625 92.8125 C-38.18466918 96.13925235 -38.18466918 96.13925235 -36 99 C-35.40234375 100.97265625 -35.40234375 100.97265625 -34.9375 103.0625 C-34.44398841 105.25271258 -34.00743074 106.98513852 -33 109 C-32.63151441 111.45848979 -32.29902007 113.90808445 -32 116.375 C-31.30671673 122.24392465 -31.30671673 122.24392465 -30 128 C-29.34 128 -28.68 128 -28 128 C-28 127.34 -28 126.68 -28 126 C-27.34 126 -26.68 126 -26 126 C-26 126.99 -26 127.98 -26 129 C-28.75078884 129.91692961 -30.35948913 130.10886083 -33.1875 130.0625 C-34.445625 130.041875 -35.70375 130.02125 -37 130 C-37.33 129.01 -37.66 128.02 -38 127 C-38.825 127.0825 -39.65 127.165 -40.5 127.25 C-44.40913844 126.97077583 -46.50477389 125.90960303 -49.87109375 124.05078125 C-52.03943321 122.98053664 -54.03301728 122.44913686 -56.375 121.875 C-67.05252013 118.46923927 -74.43958838 106.3566783 -79.65625 97.04296875 C-87.30511659 81.83897168 -89.1146009 64.80037155 -85.25 48.25 C-85.09329834 47.55777344 -84.93659668 46.86554688 -84.77514648 46.15234375 C-83.52073758 41.35349339 -83.52073758 41.35349339 -80.859375 39.546875 C-80.24578125 39.36640625 -79.6321875 39.1859375 -79 39 C-79 38.01 -79 37.02 -79 36 C-78.34 36 -77.68 36 -77 36 C-76.7834375 34.824375 -76.7834375 34.824375 -76.5625 33.625 C-76 31 -76 31 -75 29 C-74.88527344 28.22269531 -74.77054688 27.44539063 -74.65234375 26.64453125 C-72.83903625 19.2935781 -64.40913633 13.08204866 -58.66015625 8.5859375 C-55.0095182 6.40949249 -51.64146558 5.82234606 -47.4453125 5.44921875 C-44.57105815 4.92120078 -43.24406062 3.82038942 -41 2 C-27.80292045 -2.56821984 -13.66736694 -1.25265556 0 0 Z " fill="#F50605" transform="translate(138,183)"/>
<path d="M0 0 C0 0.66 0 1.32 0 2 C1.10601562 2.28810547 1.10601562 2.28810547 2.234375 2.58203125 C5.92479721 4.4741545 7.34297055 7.16316288 9.25 10.6875 C9.600625 11.28755859 9.95125 11.88761719 10.3125 12.50585938 C13.97645692 19.06575148 14.13971879 25.44201191 14.125 32.875 C14.12886719 34.85113281 14.12886719 34.85113281 14.1328125 36.8671875 C14 40 14 40 13 41 C10.28516457 41.24932162 7.59643987 41.43001171 4.875 41.5625 C4.04419922 41.60568359 3.21339844 41.64886719 2.35742188 41.69335938 C-5.60218837 42.06343719 -13.55366643 42.06037966 -21.52001953 41.96313477 C-22.91776611 41.95044556 -22.91776611 41.95044556 -24.34375 41.9375 C-25.58415039 41.92009766 -25.58415039 41.92009766 -26.84960938 41.90234375 C-29.1861466 41.9104579 -29.1861466 41.9104579 -32 43 C-32 43.66 -32 44.32 -32 45 C-31.34 45.33 -30.68 45.66 -30 46 C-27.66843116 47.79351449 -25.43843062 49.52649493 -23.4375 51.6875 C-19.57004129 55.21865795 -13.27590042 54.19537908 -8.40234375 54.16796875 C-4.50972136 53.97579566 -0.90123095 53.35544225 2.87890625 52.4375 C5 52 5 52 9 52 C10.22899346 58.06815522 11.27560214 63.79895188 11 70 C-1.28803952 76.28690394 -16.98365878 76.73843752 -30.11328125 73.03125 C-39.9166752 69.52909032 -46.74195497 63.76441666 -51.28125 54.33984375 C-56.26896775 42.24462822 -56.76850435 29.40110742 -52.390625 16.9765625 C-48.72298956 9.12617429 -43.06206168 2.44317217 -35 -1 C-22.67012856 -5.30844939 -11.94718927 -5.26805196 0 0 Z M-30 17 C-30.99 19.64 -31.98 22.28 -33 25 C-24.42 25 -15.84 25 -7 25 C-8.03299867 18.80200795 -8.45569791 17.78691841 -13 14 C-19.62928172 11.79023943 -24.81693874 12.17854767 -30 17 Z " fill="#10495B" transform="translate(439,233)"/>
<path d="M0 0 C6.78725329 6.22525142 11.19063948 14.45051008 12.08984375 23.625 C12.28813854 28.95899668 12.20767061 34.29006144 12.08984375 39.625 C7.89395922 40.80001825 3.82024246 40.76874805 -0.5078125 40.7578125 C-1.75382484 40.75924759 -1.75382484 40.75924759 -3.02500916 40.76071167 C-4.77749711 40.76139099 -6.52998761 40.75955401 -8.2824707 40.75537109 C-10.96636592 40.75001256 -13.65009431 40.75532795 -16.33398438 40.76171875 C-18.03776079 40.76105806 -19.74153709 40.75977708 -21.4453125 40.7578125 C-22.65006981 40.76084885 -22.65006981 40.76084885 -23.87916565 40.76394653 C-27.14708944 40.75016869 -29.78794391 40.66573745 -32.91015625 39.625 C-32.71562289 43.80746733 -32.20083207 45.32756428 -29.22265625 48.375 C-22.77015309 53.59265754 -14.74751675 53.11307515 -6.91015625 52.625 C-4.49188615 52.21428355 -2.16073408 51.69052864 0.2109375 51.0703125 C2.53394386 50.51974551 4.71312029 50.471663 7.08984375 50.625 C11.14866728 65.50735294 11.14866728 65.50735294 9.08984375 69.625 C-4.07380114 75.08373369 -21.54274156 75.68302291 -34.82421875 70.484375 C-41.45053002 67.31443935 -41.45053002 67.31443935 -43.91015625 63.625 C-43.91015625 62.305 -43.91015625 60.985 -43.91015625 59.625 C-44.48765625 59.480625 -45.06515625 59.33625 -45.66015625 59.1875 C-47.74348958 58.66666667 -49.82682292 58.14583333 -51.91015625 57.625 C-54.87329718 49.5821889 -55.23888449 41.80593847 -55.28515625 33.3125 C-55.29869141 32.27480469 -55.31222656 31.23710937 -55.32617188 30.16796875 C-55.29135894 24.1646715 -54.69424538 19.95017797 -51.91015625 14.625 C-51.43578125 13.42875 -50.96140625 12.2325 -50.47265625 11 C-47.98491428 5.62647734 -45.24075151 2.29029763 -39.91015625 -0.375 C-39.25015625 -0.375 -38.59015625 -0.375 -37.91015625 -0.375 C-37.58015625 -1.035 -37.25015625 -1.695 -36.91015625 -2.375 C-26.52594402 -4.19252655 -8.97787677 -6.4626025 0 0 Z M-31.91015625 15.625 C-32.90015625 18.265 -33.89015625 20.905 -34.91015625 23.625 C-26.00015625 23.625 -17.09015625 23.625 -7.91015625 23.625 C-10.09112046 16.04137052 -10.09112046 16.04137052 -13.53515625 13.125 C-20.26112003 10.13568276 -26.4012087 10.37838328 -31.91015625 15.625 Z " fill="#114B5E" transform="translate(224.91015625,234.375)"/>
<path d="M0 0 C0 0.66 0 1.32 0 2 C-1.609375 3.3671875 -1.609375 3.3671875 -3.75 4.875 C-6.17434491 6.62258431 -8.25332587 8.25332587 -10.375 10.375 C-10.91125 10.91125 -11.4475 11.4475 -12 12 C-12.66 12 -13.32 12 -14 12 C-14.2165625 12.8971875 -14.2165625 12.8971875 -14.4375 13.8125 C-14.8872439 15.56150404 -15.42892341 17.28677023 -16 19 C-7.09 19 1.82 19 11 19 C13.25 24.625 13.25 24.625 12 28 C12 27.34 12 26.68 12 26 C11.01 25.67 10.02 25.34 9 25 C9 24.34 9 23.68 9 23 C3.39 22.67 -2.22 22.34 -8 22 C-8 23.32 -8 24.64 -8 26 C-8.66 26 -9.32 26 -10 26 C-10 24.68 -10 23.36 -10 22 C-10.66 22 -11.32 22 -12 22 C-10.55025254 25.79500579 -9.08876303 29.58538039 -7.625 33.375 C-7.2125 34.45523438 -6.8 35.53546875 -6.375 36.6484375 C-5.97539063 37.6796875 -5.57578125 38.7109375 -5.1640625 39.7734375 C-4.79748535 40.72653809 -4.4309082 41.67963867 -4.05322266 42.66162109 C-3.10865049 45.12757462 -3.10865049 45.12757462 -1 47 C-0.7525 48.2684375 -0.7525 48.2684375 -0.5 49.5625 C-0.2525 50.7690625 -0.2525 50.7690625 0 52 C0.99 52.495 0.99 52.495 2 53 C2.6328125 55.06640625 2.6328125 55.06640625 3.125 57.5625 C3.29257813 58.38878906 3.46015625 59.21507812 3.6328125 60.06640625 C3.75398438 60.70449219 3.87515625 61.34257812 4 62 C4.66 62 5.32 62 6 62 C6.09796875 62.6290625 6.1959375 63.258125 6.296875 63.90625 C7.35486424 69.96232635 9.1030111 74.59228739 12 80 C12 80.66 12 81.32 12 82 C12.99 82.33 13.98 82.66 15 83 C15.12375 83.928125 15.2475 84.85625 15.375 85.8125 C15.81533082 89.13925235 15.81533082 89.13925235 18 92 C18.59765625 93.97265625 18.59765625 93.97265625 19.0625 96.0625 C19.55601159 98.25271258 19.99256926 99.98513852 21 102 C21.36848559 104.45848979 21.70097993 106.90808445 22 109.375 C22.69328327 115.24392465 22.69328327 115.24392465 24 121 C24.66 121 25.32 121 26 121 C26 120.34 26 119.68 26 119 C26.66 119 27.32 119 28 119 C28 119.99 28 120.98 28 122 C25.24921116 122.91692961 23.64051087 123.10886083 20.8125 123.0625 C19.554375 123.041875 18.29625 123.02125 17 123 C16.67 122.01 16.34 121.02 16 120 C15.175 120.0825 14.35 120.165 13.5 120.25 C9.59086156 119.97077583 7.49522611 118.90960303 4.12890625 117.05078125 C1.96056679 115.98053664 -0.03301728 115.44913686 -2.375 114.875 C-13.05252013 111.46923927 -20.43958838 99.3566783 -25.65625 90.04296875 C-33.30511659 74.83897168 -35.1146009 57.80037155 -31.25 41.25 C-31.09329834 40.55777344 -30.93659668 39.86554688 -30.77514648 39.15234375 C-29.52073758 34.35349339 -29.52073758 34.35349339 -26.859375 32.546875 C-26.24578125 32.36640625 -25.6321875 32.1859375 -25 32 C-25 31.01 -25 30.02 -25 29 C-24.34 29 -23.68 29 -23 29 C-22.855625 28.21625 -22.71125 27.4325 -22.5625 26.625 C-22 24 -22 24 -21 22 C-20.88527344 21.22269531 -20.77054688 20.44539063 -20.65234375 19.64453125 C-19.03470635 13.08680358 -7.00637554 0 0 0 Z " fill="#F60606" transform="translate(84,190)"/>
<path d="M0 0 C7.59 0 15.18 0 23 0 C23.92232422 3.32578125 23.92232422 3.32578125 24.86328125 6.71875 C25.46813897 8.89021372 26.07422183 11.06133201 26.68041992 13.23242188 C27.09771493 14.72946167 27.51375621 16.22685158 27.9284668 17.72460938 C28.52835758 19.89028006 29.13290208 22.05460794 29.73828125 24.21875 C29.91966141 24.87742065 30.10104156 25.53609131 30.28791809 26.21472168 C32.09571936 32.64448288 34.48759832 38.81562664 37 45 C38.51768525 40.52203906 40.02901495 36.04199754 41.53491211 31.56005859 C42.04626188 30.04094039 42.55923669 28.52236804 43.07397461 27.00439453 C46.10266429 18.06872779 48.86033495 9.20129 51 0 C58.59 0 66.18 0 74 0 C73.25286431 5.22994984 72.29124793 9.67120757 70.6015625 14.5859375 C70.36593597 15.28715729 70.13030945 15.98837708 69.88754272 16.71084595 C69.13903035 18.93419256 68.38221668 21.15460473 67.625 23.375 C67.12443941 24.85658155 66.62443474 26.33835105 66.125 27.8203125 C65.17370545 30.64217347 64.21624976 33.46183022 63.25488281 36.28027344 C62.22400475 39.33600459 61.24114525 42.40059082 60.2734375 45.4765625 C59 49 59 49 57 50 C56.34186829 52.00903365 55.68972949 54.02016757 55.0625 56.0390625 C53.45725685 60.51249746 51.39084195 64.75154231 49.3371582 69.03369141 C47.71132954 71.89545996 47.71132954 71.89545996 47 75 C40.73 75 34.46 75 28 75 C25.67485819 70.43275715 23.36842195 65.86476606 21.11132812 61.26464844 C20.42176336 59.8594633 19.7284591 58.45609865 19.02929688 57.05566406 C13.47260577 45.81840657 9.48076764 34.05017585 5.5 22.1875 C5.22643677 21.37825073 4.95287354 20.56900146 4.67102051 19.73522949 C3.88597812 17.40327178 3.11269779 15.06777695 2.34375 12.73046875 C1.98811981 11.67363136 1.98811981 11.67363136 1.62530518 10.59544373 C0.38451322 6.7649743 0 4.12224891 0 0 Z " fill="#164E5E" transform="translate(305,231)"/>
<path d="M0 0 C0.78109131 0.03826904 1.56218262 0.07653809 2.36694336 0.1159668 C6.53172509 0.39010093 9.9397775 0.89061142 13.75 2.75 C13.75 6.05 13.75 9.35 13.75 12.75 C13.42 12.75 13.09 12.75 12.75 12.75 C12.42 15.06 12.09 17.37 11.75 19.75 C7.38244023 21.10436349 3.14803599 20.73118862 -1.375 20.58984375 C-4.56495801 20.57683483 -4.56495801 20.57683483 -8.25 22.75 C-8.58 40.57 -8.91 58.39 -9.25 76.75 C-16.51 76.75 -23.77 76.75 -31.25 76.75 C-31.49366309 68.08379705 -31.71582991 59.41777386 -31.90021229 50.750103 C-31.98668785 46.72533196 -32.08256204 42.70124356 -32.19995117 38.67724609 C-32.31289731 34.79367562 -32.40110772 30.91025754 -32.47220421 27.02570343 C-32.50366816 25.54393414 -32.54403682 24.06232627 -32.59345436 22.58104706 C-32.66118274 20.50525413 -32.69718113 18.43114125 -32.72583008 16.35449219 C-32.75469803 15.17312683 -32.78356598 13.99176147 -32.81330872 12.77459717 C-32.25 9.75 -32.25 9.75 -29.85404968 7.41192627 C-20.25750575 1.28733173 -11.22672034 -0.55982147 0 0 Z " fill="#134C5D" transform="translate(282.25,229.25)"/>
<path d="M0 0 C5.51883997 5.87489416 5.14034142 12.12758288 5.125 19.875 C5.12886719 21.85113281 5.12886719 21.85113281 5.1328125 23.8671875 C5 27 5 27 4 28 C1.28516457 28.24932162 -1.40356013 28.43001171 -4.125 28.5625 C-4.95580078 28.60568359 -5.78660156 28.64886719 -6.64257812 28.69335938 C-14.60218837 29.06343719 -22.55366643 29.06037966 -30.52001953 28.96313477 C-31.91776611 28.95044556 -31.91776611 28.95044556 -33.34375 28.9375 C-34.58415039 28.92009766 -34.58415039 28.92009766 -35.84960938 28.90234375 C-38.1861466 28.9104579 -38.1861466 28.9104579 -41 30 C-41 30.66 -41 31.32 -41 32 C-40.34 32.33 -39.68 32.66 -39 33 C-36.66843116 34.79351449 -34.43843062 36.52649493 -32.4375 38.6875 C-28.57004129 42.21865795 -22.27590042 41.19537908 -17.40234375 41.16796875 C-13.50972136 40.97579566 -9.90123095 40.35544225 -6.12109375 39.4375 C-4 39 -4 39 0 39 C1.22899346 45.06815522 2.27560214 50.79895188 2 57 C-10.29764093 63.29181629 -25.96705834 63.72028732 -39.109375 60.0390625 C-46.76980689 57.28544779 -53.57231936 52.9834963 -58 46 C-58 45.34 -58 44.68 -58 44 C-53.125 44.875 -53.125 44.875 -52 46 C-51.34 46 -50.68 46 -50 46 C-50.33 44.68 -50.66 43.36 -51 42 C-49.68 41.34 -48.36 40.68 -47 40 C-45.68 35.71 -44.36 31.42 -43 27 C-27.82 27 -12.64 27 3 27 C3.37896145 10.0919472 3.37896145 10.0919472 0 4 C0 2.68 0 1.36 0 0 Z " fill="#154D5E" transform="translate(448,246)"/>
<path d="M0 0 C0.78955078 -0.01224609 1.57910156 -0.02449219 2.39257812 -0.03710938 C4.45057435 -0.04237279 6.50812009 0.06543715 8.5625 0.1875 C9.2225 0.8475 9.8825 1.5075 10.5625 2.1875 C12.21723651 2.52361835 13.88790355 2.78353938 15.5625 3 C32.07687451 5.81324195 46.86035506 18.03442285 56.38793945 31.35473633 C61.5625 38.75965808 61.5625 38.75965808 61.5625 41.1875 C62.2225 41.1875 62.8825 41.1875 63.5625 41.1875 C65.86922095 44.64758142 66.04384006 47.11231479 66.5625 51.1875 C66.8925 51.8475 67.2225 52.5075 67.5625 53.1875 C68.2225 53.1875 68.8825 53.1875 69.5625 53.1875 C69.5625 53.8475 69.5625 54.5075 69.5625 55.1875 C70.820625 54.8575 72.07875 54.5275 73.375 54.1875 C81.31290469 52.43741078 88.88633633 52.45819736 96.5625 55.1875 C93.7976001 55.97261411 91.38587685 56.2988092 88.515625 56.25 C87.7525 56.24226563 86.989375 56.23453125 86.203125 56.2265625 C84.62499581 56.20077608 83.04687068 56.17473951 81.46875 56.1484375 C77.61082394 56.10959932 73.92467372 56.21564868 70.1015625 56.765625 C66.5625 57.1875 66.5625 57.1875 64.6875 55.9375 C64.31625 55.36 63.945 54.7825 63.5625 54.1875 C62.9025 53.1975 62.2425 52.2075 61.5625 51.1875 C61.01755822 49.11268463 60.62023159 47.03722282 60.22265625 44.9296875 C60.00480469 44.35476562 59.78695312 43.77984375 59.5625 43.1875 C58.0775 42.6925 58.0775 42.6925 56.5625 42.1875 C56.0675 39.2175 56.0675 39.2175 55.5625 36.1875 C54.2425 36.1875 52.9225 36.1875 51.5625 36.1875 C51.5625 37.5075 51.5625 38.8275 51.5625 40.1875 C50.5725 40.1875 49.5825 40.1875 48.5625 40.1875 C48.376875 42.04375 48.376875 42.04375 48.1875 43.9375 C47.80503695 47.0637197 47.25700477 49.47629237 45.5625 52.1875 C44.9025 52.1875 44.2425 52.1875 43.5625 52.1875 C43.376875 53.734375 43.376875 53.734375 43.1875 55.3125 C42.39441475 60.22962854 41.33082677 64.03500984 38.5625 68.1875 C37.9025 68.1875 37.2425 68.1875 36.5625 68.1875 C36.0675 74.1275 36.0675 74.1275 35.5625 80.1875 C36.2225 80.5175 36.8825 80.8475 37.5625 81.1875 C36.83933594 81.75017578 36.83933594 81.75017578 36.1015625 82.32421875 C32.43399654 85.29569566 29.81631167 87.45087814 28.5625 92.1875 C27.9025 92.1875 27.2425 92.1875 26.5625 92.1875 C26.0675 94.1675 26.0675 94.1675 25.5625 96.1875 C24.9025 96.1875 24.2425 96.1875 23.5625 96.1875 C22.5725 98.1675 22.5725 98.1675 21.5625 100.1875 C22.14735007 96.83536437 22.9735902 93.91861268 24.34765625 90.80859375 C24.70956055 89.979646 25.07146484 89.15069824 25.44433594 88.29663086 C26.02876465 86.97417358 26.02876465 86.97417358 26.625 85.625 C30.16214997 77.5058913 33.55175522 69.3445622 36.80712891 61.10864258 C38.98982957 55.59098349 41.26102919 50.1264337 43.65234375 44.6953125 C44.67512772 41.87716955 45.15199246 39.15179653 45.5625 36.1875 C44.77746094 36.19910156 43.99242187 36.21070313 43.18359375 36.22265625 C37.52530225 36.27125507 32.13371122 36.20044749 26.5625 35.1875 C26.48902344 36.14462891 26.48902344 36.14462891 26.4140625 37.12109375 C26.33929688 37.94738281 26.26453125 38.77367187 26.1875 39.625 C26.11789063 40.44871094 26.04828125 41.27242187 25.9765625 42.12109375 C25.83992188 42.80300781 25.70328125 43.48492187 25.5625 44.1875 C24.5725 44.6825 24.5725 44.6825 23.5625 45.1875 C22.57198948 47.37749666 21.68961786 49.53821956 20.84765625 51.78515625 C20.59124863 52.45284531 20.334841 53.12053436 20.07066345 53.80845642 C19.24884566 55.95318366 18.43685396 58.10148391 17.625 60.25 C17.08201667 61.67146724 16.53840402 63.09269426 15.99414062 64.51367188 C13.90427627 69.97928682 11.83087629 75.45035624 9.80859375 80.94140625 C8.84690924 83.44660947 7.85585918 85.72367548 6.5625 88.0625 C4.54990001 91.93406639 3.38144051 95.87552606 2.2734375 100.0859375 C1.5625 102.1875 1.5625 102.1875 -0.4375 104.1875 C-1.4275 103.8575 -2.4175 103.5275 -3.4375 103.1875 C-4.47517383 100.89176144 -5.3217704 98.69043058 -6.125 96.3125 C-8.32757845 90.11433502 -10.71422496 84.04282369 -13.3125 78 C-16.28404341 71.02364614 -19.1385889 64.00956381 -21.875 56.9375 C-22.21708496 56.06843018 -22.55916992 55.19936035 -22.91162109 54.30395508 C-24.72653747 49.56162015 -25.9520647 45.24696655 -26.4375 40.1875 C-23.9785377 43.15210807 -22.74820385 45.76529014 -21.625 49.4375 C-18.06450714 60.55219444 -13.96929459 71.31267594 -8.9609375 81.859375 C-6.21040252 87.86823603 -3.83828022 94.03230816 -1.4375 100.1875 C2.65576492 90.89213182 6.72668078 81.59284204 10.5625 72.1875 C11.02124512 71.06504883 11.02124512 71.06504883 11.48925781 69.91992188 C16.97485348 56.50113605 16.97485348 56.50113605 21.67578125 42.79296875 C22.78860294 39.52313587 24.20189914 36.36223534 25.5625 33.1875 C37.9375 32.6925 37.9375 32.6925 50.5625 32.1875 C49.5725 30.7025 49.5725 30.7025 48.5625 29.1875 C48.0984375 28.135625 48.0984375 28.135625 47.625 27.0625 C46.64341355 24.84254271 46.64341355 24.84254271 43.5625 24.1875 C43.0675 22.7025 43.0675 22.7025 42.5625 21.1875 C41.0775 20.6925 41.0775 20.6925 39.5625 20.1875 C39.5625 19.1975 39.5625 18.2075 39.5625 17.1875 C38.716875 17.06375 37.87125 16.94 37 16.8125 C33.43355996 16.16405636 30.04289127 15.19145902 26.5625 14.1875 C25.9025 14.1875 25.2425 14.1875 24.5625 14.1875 C24.5625 13.1975 24.5625 12.2075 24.5625 11.1875 C23.9025 11.1875 23.2425 11.1875 22.5625 11.1875 C22.5625 10.5275 22.5625 9.8675 22.5625 9.1875 C20.5825 9.1875 18.6025 9.1875 16.5625 9.1875 C16.5625 8.5275 16.5625 7.8675 16.5625 7.1875 C12.43756128 7.12874019 8.31273232 7.09365062 4.1875 7.0625 C2.45306641 7.03736328 2.45306641 7.03736328 0.68359375 7.01171875 C-6.28974432 6.97232136 -12.67307444 7.48190918 -19.4375 9.1875 C-20.695625 9.496875 -21.95375 9.80625 -23.25 10.125 C-26.42384741 11.03789034 -26.42384741 11.03789034 -28.875 12.75 C-31.4375 14.1875 -31.4375 14.1875 -35.0625 14.3125 C-41.42739592 14.81242478 -45.93520195 20.09073983 -50.4375 24.1875 C-50.4375 21.1875 -50.4375 21.1875 -48.77734375 19.42578125 C-37.63949257 10.49738998 -26.45561484 4.82744995 -12.5078125 1.87890625 C-4.17927111 0.00339502 -4.17927111 0.00339502 0 0 Z M54.5625 42.1875 C55.2225 42.1875 55.8825 42.1875 56.5625 42.1875 C56.2325 43.1775 55.9025 44.1675 55.5625 45.1875 C55.2325 44.1975 54.9025 43.2075 54.5625 42.1875 Z " fill="#DF2926" transform="translate(121.4375,175.8125)"/>
<path d="M0 0 C0.78955078 -0.01224609 1.57910156 -0.02449219 2.39257812 -0.03710938 C4.45057435 -0.04237279 6.50812009 0.06543715 8.5625 0.1875 C9.2225 0.8475 9.8825 1.5075 10.5625 2.1875 C12.21723651 2.52361835 13.88790355 2.78353938 15.5625 3 C21.34146878 3.96824411 26.81154173 5.64872038 31.5625 9.1875 C32.18359375 11.28125 32.18359375 11.28125 32.5625 13.1875 C34.98633077 14.35703416 34.98633077 14.35703416 37.5625 15.1875 C38.5525 16.1775 38.5525 16.1775 39.5625 17.1875 C35.09606078 16.53387475 30.89583938 15.43750174 26.5625 14.1875 C25.9025 14.1875 25.2425 14.1875 24.5625 14.1875 C24.5625 13.1975 24.5625 12.2075 24.5625 11.1875 C23.9025 11.1875 23.2425 11.1875 22.5625 11.1875 C22.5625 10.5275 22.5625 9.8675 22.5625 9.1875 C20.5825 9.1875 18.6025 9.1875 16.5625 9.1875 C16.5625 8.5275 16.5625 7.8675 16.5625 7.1875 C12.43756128 7.12874019 8.31273232 7.09365062 4.1875 7.0625 C2.45306641 7.03736328 2.45306641 7.03736328 0.68359375 7.01171875 C-6.28974432 6.97232136 -12.67307444 7.48190918 -19.4375 9.1875 C-20.695625 9.496875 -21.95375 9.80625 -23.25 10.125 C-26.42384741 11.03789034 -26.42384741 11.03789034 -28.875 12.75 C-31.4375 14.1875 -31.4375 14.1875 -35.0625 14.3125 C-41.42739592 14.81242478 -45.93520195 20.09073983 -50.4375 24.1875 C-50.4375 21.1875 -50.4375 21.1875 -48.77734375 19.42578125 C-37.63949257 10.49738998 -26.45561484 4.82744995 -12.5078125 1.87890625 C-4.17927111 0.00339502 -4.17927111 0.00339502 0 0 Z " fill="#DE181A" transform="translate(121.4375,175.8125)"/>
<path d="M0 0 C7.92 0 15.84 0 24 0 C23.34 1.98 22.68 3.96 22 6 C21.61328125 5.34386719 21.2265625 4.68773437 20.828125 4.01171875 C19.17052576 1.75922903 19.17052576 1.75922903 16.546875 1.64453125 C15.62390625 1.69996094 14.7009375 1.75539062 13.75 1.8125 C9.31131084 1.98344553 5.36560544 1.77610763 1 1 C0.95101562 1.63808594 0.90203125 2.27617187 0.8515625 2.93359375 C0.77679688 3.75988281 0.70203125 4.58617187 0.625 5.4375 C0.52058594 6.67306641 0.52058594 6.67306641 0.4140625 7.93359375 C0.27742188 8.61550781 0.14078125 9.29742187 0 10 C-0.66 10.33 -1.32 10.66 -2 11 C-2.99051052 13.18999666 -3.87288214 15.35071956 -4.71484375 17.59765625 C-4.97125137 18.26534531 -5.227659 18.93303436 -5.49183655 19.62095642 C-6.31365434 21.76568366 -7.12564604 23.91398391 -7.9375 26.0625 C-8.48048333 27.48396724 -9.02409598 28.90519426 -9.56835938 30.32617188 C-11.65822373 35.79178682 -13.73162371 41.26285624 -15.75390625 46.75390625 C-16.71559076 49.25910947 -17.70664082 51.53617548 -19 53.875 C-21.01259999 57.74656639 -22.18105949 61.68802606 -23.2890625 65.8984375 C-24 68 -24 68 -26 70 C-27.485 69.505 -27.485 69.505 -29 69 C-30.03767383 66.70426144 -30.8842704 64.50293058 -31.6875 62.125 C-33.89007845 55.92683502 -36.27672496 49.85532369 -38.875 43.8125 C-41.84654341 36.83614614 -44.7010889 29.82206381 -47.4375 22.75 C-47.95062744 21.44639526 -47.95062744 21.44639526 -48.47412109 20.11645508 C-50.28903747 15.37412015 -51.5145647 11.05946655 -52 6 C-49.5410377 8.96460807 -48.31070385 11.57779014 -47.1875 15.25 C-43.62700714 26.36469444 -39.53179459 37.12517594 -34.5234375 47.671875 C-31.77290252 53.68073603 -29.40078022 59.84480816 -27 66 C-22.90673508 56.70463182 -18.83581922 47.40534204 -15 38 C-14.69416992 37.25169922 -14.38833984 36.50339844 -14.07324219 35.73242188 C-8.56877871 22.27117449 -8.56877871 22.27117449 -3.88671875 8.5078125 C-2.8473559 5.56829289 -1.39434936 2.78869872 0 0 Z " fill="#FAC7C4" transform="translate(147,210)"/>
<path d="M0 0 C3.97921094 -0.02682614 7.95824341 -0.04675393 11.9375 -0.0625 C13.07380859 -0.07087891 14.21011719 -0.07925781 15.38085938 -0.08789062 C16.46044922 -0.09111328 17.54003906 -0.09433594 18.65234375 -0.09765625 C20.15269165 -0.10551147 20.15269165 -0.10551147 21.68334961 -0.11352539 C24 0 24 0 25 1 C25.04063832 2.66617115 25.042721 4.33388095 25 6 C24.34 5.67 23.68 5.34 23 5 C23 4.34 23 3.68 23 3 C17.39 2.67 11.78 2.34 6 2 C6 3.32 6 4.64 6 6 C5.34 6 4.68 6 4 6 C4 4.68 4 3.36 4 2 C3.34 2 2.68 2 2 2 C3.44974746 5.79500579 4.91123697 9.58538039 6.375 13.375 C6.7875 14.45523438 7.2 15.53546875 7.625 16.6484375 C8.02460937 17.6796875 8.42421875 18.7109375 8.8359375 19.7734375 C9.20251465 20.72653809 9.5690918 21.67963867 9.94677734 22.66162109 C10.89134951 25.12757462 10.89134951 25.12757462 13 27 C13.165 27.845625 13.33 28.69125 13.5 29.5625 C13.665 30.366875 13.83 31.17125 14 32 C14.66 32.33 15.32 32.66 16 33 C16.6328125 35.06640625 16.6328125 35.06640625 17.125 37.5625 C17.29257813 38.38878906 17.46015625 39.21507812 17.6328125 40.06640625 C17.75398438 40.70449219 17.87515625 41.34257812 18 42 C18.66 42 19.32 42 20 42 C20.625 44.375 20.625 44.375 21 47 C20.34 47.66 19.68 48.32 19 49 C18.34 47.02 17.68 45.04 17 43 C15.515 43.495 15.515 43.495 14 44 C13.67 41.69 13.34 39.38 13 37 C12.34 37 11.68 37 11 37 C10.32880451 35.5437455 9.66318193 34.08492133 9 32.625 C8.62875 31.81289062 8.2575 31.00078125 7.875 30.1640625 C7 28 7 28 7 26 C6.34 26 5.68 26 5 26 C3.70756464 21.8803623 2.73747375 18.33168317 3 14 C2.34 14 1.68 14 1 14 C0.67 9.38 0.34 4.76 0 0 Z " fill="#DA2828" transform="translate(70,210)"/>
<path d="M0 0 C0.66 0.33 1.32 0.66 2 1 C1.3503125 1.67095703 1.3503125 1.67095703 0.6875 2.35546875 C-2.85356661 5.93288824 -2.85356661 5.93288824 -4.1875 10.5625 C-4.125625 11.366875 -4.06375 12.17125 -4 13 C-5.5 16.3125 -5.5 16.3125 -7 19 C-7.66 19 -8.32 19 -9 19 C-9 19.99 -9 20.98 -9 22 C-9.62390625 22.59039062 -10.2478125 23.18078125 -10.890625 23.7890625 C-16.18783662 29.34132505 -16.18967484 39.52938467 -16.375 46.875 C-15.74808297 68.47952535 -7.92320872 85.65683377 7.6875 100.6875 C13.24520787 105.56024855 19.38741866 108.77662571 26 112 C23 113 23 113 20.109375 111.77734375 C0.95676435 101.28794885 -10.34716085 86.30844919 -16.78515625 65.45703125 C-17.31403841 63.3062438 -17.68846382 61.1924359 -18 59 C-18.144375 58.16082031 -18.28875 57.32164062 -18.4375 56.45703125 C-20.26915409 42.62422696 -17.61426516 24.66577966 -9.4375 13.125 C-8.2309375 11.578125 -8.2309375 11.578125 -7 10 C-6.484375 9.13375 -5.96875 8.2675 -5.4375 7.375 C-3.83102347 4.72082138 -1.97748461 2.38661936 0 0 Z " fill="#FDCBC7" transform="translate(68,200)"/>
<path d="M0 0 C3.82737577 0.11598108 5.81520629 1.45620202 8.5 4 C19.07099359 15.28493869 19.32270074 27.38882774 19 42 C14.80411547 43.17501825 10.73039871 43.14374805 6.40234375 43.1328125 C5.15633141 43.13424759 5.15633141 43.13424759 3.88514709 43.13571167 C2.13265914 43.13639099 0.38016864 43.13455401 -1.37231445 43.13037109 C-4.05620967 43.12501256 -6.73993806 43.13032795 -9.42382812 43.13671875 C-11.12760454 43.13605806 -12.83138084 43.13477708 -14.53515625 43.1328125 C-15.73991356 43.13584885 -15.73991356 43.13584885 -16.9690094 43.13894653 C-20.23693319 43.12516869 -22.87778766 43.04073745 -26 42 C-26.33 43.32 -26.66 44.64 -27 46 C-27.66 45.34 -28.32 44.68 -29 44 C-29 43.01 -29 42.02 -29 41 C-27.91581787 40.97494385 -26.83163574 40.9498877 -25.71459961 40.92407227 C-21.66843091 40.82946071 -17.62241253 40.72937414 -13.57641602 40.62768555 C-11.82970715 40.58453898 -10.0829616 40.54285083 -8.33618164 40.50268555 C-5.81645684 40.44448831 -3.29691329 40.38094003 -0.77734375 40.31640625 C-0.00414291 40.29969376 0.76905792 40.28298126 1.56568909 40.26576233 C6.12184973 40.14299979 10.50034275 39.73213879 15 39 C15.02685412 36.68756208 15.04632841 34.3750373 15.0625 32.0625 C15.07410156 30.77472656 15.08570313 29.48695313 15.09765625 28.16015625 C15.36532549 25.13701597 15.36532549 25.13701597 14 24 C13.85884839 21.32941149 13.95752893 18.67567762 14 16 C13.34 16 12.68 16 12 16 C11.71125 15.38125 11.4225 14.7625 11.125 14.125 C10.06279958 11.86674235 10.06279958 11.86674235 8 10 C7.7525 9.21625 7.505 8.4325 7.25 7.625 C5.58577261 4.13012247 3.25062332 2.97864028 0 1 C0 0.67 0 0.34 0 0 Z " fill="#1A4B53" transform="translate(218,232)"/>
<path d="M0 0 C0.33 0 0.66 0 1 0 C1.02705729 1.77074917 1.04642195 3.54161711 1.0625 5.3125 C1.07410156 6.29863281 1.08570313 7.28476562 1.09765625 8.30078125 C1 11 1 11 0 14 C-0.99 14 -1.98 14 -3 14 C-3 14.99 -3 15.98 -3 17 C-3.66 17 -4.32 17 -5 17 C-5.103125 18.051875 -5.20625 19.10375 -5.3125 20.1875 C-6.40692895 26.25660599 -6.40692895 26.25660599 -9 29 C-12.73803581 29.64429799 -16.4087834 29.46707305 -20.1875 29.3125 C-21.22326172 29.28994141 -22.25902344 29.26738281 -23.32617188 29.24414062 C-25.88556404 29.18516846 -28.44205951 29.10292567 -31 29 C-32.53723734 26.23796468 -34.05184161 23.46414848 -35.5625 20.6875 C-36.00013672 19.90181641 -36.43777344 19.11613281 -36.88867188 18.30664062 C-37.29794922 17.54931641 -37.70722656 16.79199219 -38.12890625 16.01171875 C-38.51119385 15.31522217 -38.89348145 14.61872559 -39.28735352 13.90112305 C-40 12 -40 12 -39 9 C-38.59007813 9.77085937 -38.18015625 10.54171875 -37.7578125 11.3359375 C-37.21898438 12.33882813 -36.68015625 13.34171875 -36.125 14.375 C-35.59132813 15.37273437 -35.05765625 16.37046875 -34.5078125 17.3984375 C-33.1179862 20.05348395 -33.1179862 20.05348395 -31 22 C-31.33 22.33 -31.66 22.66 -32 23 C-31.01 23.33 -30.02 23.66 -29 24 C-29 24.66 -29 25.32 -29 26 C-23.72 26.33 -18.44 26.66 -13 27 C-12.62875 25.741875 -12.2575 24.48375 -11.875 23.1875 C-9.95059865 17.39605517 -7.03616099 12.27166334 -4 7 C-3.57847656 6.25621094 -3.15695313 5.51242187 -2.72265625 4.74609375 C-1.82225676 3.15998076 -0.91243745 1.57921866 0 0 Z " fill="#DC3437" transform="translate(142,276)"/>
<path d="M0 0 C1 2 1 2 0.2590332 4.57861328 C-0.13968994 5.64837402 -0.53841309 6.71813477 -0.94921875 7.8203125 C-1.38556641 8.9959375 -1.82191406 10.1715625 -2.27148438 11.3828125 C-2.6208606 12.30562012 -2.6208606 12.30562012 -2.97729492 13.24707031 C-3.67561884 15.09358374 -4.36039412 16.94520281 -5.04492188 18.796875 C-7.39243847 25.07058748 -9.91009156 31.06043519 -13 37 C-13.77680584 38.82213715 -14.53206256 40.65387515 -15.25 42.5 C-15.58515625 43.3559375 -15.9203125 44.211875 -16.265625 45.09375 C-16.50796875 45.7228125 -16.7503125 46.351875 -17 47 C-20.0319853 45.48400735 -20.41024437 43.1403567 -21.6875 40.0625 C-22.14511719 38.98097656 -22.60273437 37.89945312 -23.07421875 36.78515625 C-24 34 -24 34 -23 32 C-22.01 32.33 -21.02 32.66 -20 33 C-20 31.35 -20 29.7 -20 28 C-18.35 27.34 -16.7 26.68 -15 26 C-14.67 26.99 -14.34 27.98 -14 29 C-11.2027092 26.93243723 -10.97307727 25.85559629 -10.3125 22.3125 C-10.209375 21.219375 -10.10625 20.12625 -10 19 C-9.34 19 -8.68 19 -8 19 C-7.80664062 18.41992188 -7.61328125 17.83984375 -7.4140625 17.2421875 C-5.94270833 12.828125 -4.47135417 8.4140625 -3 4 C-2.34 4 -1.68 4 -1 4 C-0.67 2.68 -0.34 1.36 0 0 Z " fill="#ED0C0B" transform="translate(138,230)"/>
<path d="M0 0 C0.33 0 0.66 0 1 0 C1.04254356 1.99954746 1.04080783 4.00041636 1 6 C0.67 6.33 0.34 6.66 0 7 C-0.20775561 8.66204487 -0.36718255 10.33029491 -0.5 12 C-0.88888889 16.88888889 -0.88888889 16.88888889 -2 18 C-2.12801963 20.55443814 -2.18522276 23.06994129 -2.1875 25.625 C-2.19974609 26.32496094 -2.21199219 27.02492187 -2.22460938 27.74609375 C-2.23784723 32.50289788 -1.44339737 36.42832697 0 41 C0.45388303 43.66763327 0.71640061 46.30580583 1 49 C1.99 49 2.98 49 4 49 C4.19335938 49.60328125 4.38671875 50.2065625 4.5859375 50.828125 C4.84632812 51.62734375 5.10671875 52.4265625 5.375 53.25 C5.63023438 54.03890625 5.88546875 54.8278125 6.1484375 55.640625 C6.94112701 58.00248856 6.94112701 58.00248856 8.1015625 60.109375 C9 62 9 62 9 65 C11.64 65 14.28 65 17 65 C16.814375 65.9075 16.62875 66.815 16.4375 67.75 C16.04265379 70.68314324 16.05308428 72.2644657 17 75 C4.90913231 66.15302364 -1.75875478 51.49340441 -4.22387695 37.01318359 C-6.11031556 24.32866719 -4.80401589 13.14535195 -1 1 C-0.67 0.67 -0.34 0.34 0 0 Z " fill="#DD3935" transform="translate(56,223)"/>
<path d="M0 0 C0.78955078 -0.01224609 1.57910156 -0.02449219 2.39257812 -0.03710938 C4.45057435 -0.04237279 6.50812009 0.06543715 8.5625 0.1875 C9.2225 0.8475 9.8825 1.5075 10.5625 2.1875 C12.21723651 2.52361835 13.88790355 2.78353938 15.5625 3 C21.46238362 3.97293595 26.52310161 5.95233066 31.5625 9.1875 C32.0575 10.1775 32.0575 10.1775 32.5625 11.1875 C31.97984375 11.00574219 31.3971875 10.82398438 30.796875 10.63671875 C28.05850498 9.79712417 25.31203212 8.98981172 22.5625 8.1875 C21.66176758 7.92163086 20.76103516 7.65576172 19.83300781 7.38183594 C12.31802028 5.32140088 5.33618815 4.69922175 -2.4375 4.75 C-3.52289063 4.73001953 -4.60828125 4.71003906 -5.7265625 4.68945312 C-23.08417695 4.6998097 -37.72035445 12.92231202 -50.4375 24.1875 C-50.4375 21.1875 -50.4375 21.1875 -48.77734375 19.42578125 C-37.63949257 10.49738998 -26.45561484 4.82744995 -12.5078125 1.87890625 C-4.17927111 0.00339502 -4.17927111 0.00339502 0 0 Z " fill="#FDD1D2" transform="translate(121.4375,175.8125)"/>
<path d="M0 0 C0 0.66 0 1.32 0 2 C-1.609375 3.3671875 -1.609375 3.3671875 -3.75 4.875 C-6.17434491 6.62258431 -8.25332587 8.25332587 -10.375 10.375 C-10.91125 10.91125 -11.4475 11.4475 -12 12 C-12.66 12 -13.32 12 -14 12 C-14.2165625 12.8971875 -14.2165625 12.8971875 -14.4375 13.8125 C-14.8872439 15.56150404 -15.42892341 17.28677023 -16 19 C-7.09 19 1.82 19 11 19 C13.25 24.625 13.25 24.625 12 28 C11.34 25.69 10.68 23.38 10 21 C2.08 20.67 -5.84 20.34 -14 20 C-13.34 23.63 -12.68 27.26 -12 31 C-16 29 -16 29 -17 27 C-18.65 27.33 -20.3 27.66 -22 28 C-22.33 27.34 -22.66 26.68 -23 26 C-22.35191436 24.65753688 -21.68177416 23.32567199 -21 22 C-20.88269531 21.21882813 -20.76539063 20.43765625 -20.64453125 19.6328125 C-19.04030744 13.0798013 -6.99379839 0 0 0 Z " fill="#E42422" transform="translate(84,190)"/>
<path d="M0 0 C0 3 0 3 -1.4765625 4.796875 C-17.54823101 19.40748273 -37.42739363 24.17784944 -58.60742188 23.21289062 C-64.63288128 22.67674771 -71.63103171 21.36896829 -76 17 C-72.70887707 17.49366844 -69.59701571 18.11426611 -66.390625 19.0234375 C-61.65887063 20.21616143 -57.10981585 20.30500271 -52.25 20.25 C-51.36747559 20.24178223 -50.48495117 20.23356445 -49.57568359 20.22509766 C-29.88562884 19.88916387 -14.76996941 12.82655238 0 0 Z " fill="#FCC9C0" transform="translate(170,296)"/>
<path d="M0 0 C0.33 0 0.66 0 1 0 C1.03738281 1.24394531 1.07476562 2.48789062 1.11328125 3.76953125 C1.18785269 17.27947732 1.18785269 17.27947732 5 30 C7.28527799 31.44749787 9.42146732 32.14048911 12 33 C12.495 35.475 12.495 35.475 13 38 C12.34 38 11.68 38 11 38 C11 37.34 11 36.68 11 36 C10.34 36 9.68 36 9 36 C8.67 35.34 8.34 34.68 8 34 C3.20449873 34.46178901 0.34137488 36.78304976 -3.25 39.75 C-14.54495802 48.71928978 -14.54495802 48.71928978 -19 50 C-21.24609375 49.109375 -21.24609375 49.109375 -23 48 C-21.35 48 -19.7 48 -18 48 C-18 47.34 -18 46.68 -18 46 C-17.360625 45.71125 -16.72125 45.4225 -16.0625 45.125 C-13.84793921 44.17176549 -13.84793921 44.17176549 -13 42 C-11.68 42 -10.36 42 -9 42 C-9 41.01 -9 40.02 -9 39 C-8.34 39 -7.68 39 -7 39 C-7 38.34 -7 37.68 -7 37 C-6.195625 36.731875 -5.39125 36.46375 -4.5625 36.1875 C-3.716875 35.795625 -2.87125 35.40375 -2 35 C-1.67 34.01 -1.34 33.02 -1 32 C0.32 32 1.64 32 3 32 C2.78561279 31.49025635 2.57122559 30.9805127 2.3503418 30.45532227 C-0.16270057 23.8584946 -0.35979308 17.9396673 -0.1875 10.9375 C-0.16719727 9.35291992 -0.16719727 9.35291992 -0.14648438 7.73632812 C-0.1114709 5.15700191 -0.06236675 2.57878506 0 0 Z " fill="#DF1B18" transform="translate(169,261)"/>
<path d="M0 0 C4.68484607 1.29580849 9.28854249 2.74012202 13.88671875 4.31640625 C15.98217144 5.04366388 15.98217144 5.04366388 18.14453125 5.40234375 C20 6 20 6 22 9 C26.4373739 10.13475449 30.80613093 10.11650359 35.3671875 10.09765625 C36.04677521 10.0962413 36.72636292 10.09482635 37.42654419 10.09336853 C39.57607612 10.08781518 41.72550008 10.07527169 43.875 10.0625 C45.34114432 10.05747896 46.80729029 10.05291711 48.2734375 10.04882812 C51.84899283 10.03786111 55.42448586 10.02062919 59 10 C59 9.34 59 8.68 59 8 C61.64 7.67 64.28 7.34 67 7 C64.87432641 9.12567359 63.67608418 9.63043192 60.875 10.5625 C60.15054688 10.81128906 59.42609375 11.06007813 58.6796875 11.31640625 C39.27400207 16.26683621 20.17337457 13.06514003 2.94140625 3.33203125 C1 2 1 2 0 0 Z " fill="#D92C28" transform="translate(80,304)"/>
<path d="M0 0 C0 3.3 0 6.6 0 10 C-0.33 10 -0.66 10 -1 10 C-1.33 12.31 -1.66 14.62 -2 17 C-5.86723631 18.26582219 -9.73151262 18.1118765 -13.75 18.0625 C-14.44738281 18.05798828 -15.14476562 18.05347656 -15.86328125 18.04882812 C-17.57555803 18.0371002 -19.28779033 18.01916653 -21 18 C-19 16 -19 16 -15.5234375 15.8046875 C-14.14049032 15.81798507 -12.75761346 15.84183768 -11.375 15.875 C-10.31539063 15.88853516 -10.31539063 15.88853516 -9.234375 15.90234375 C-7.48943902 15.92592397 -5.74467705 15.96179539 -4 16 C-3.90912109 14.64455078 -3.90912109 14.64455078 -3.81640625 13.26171875 C-3.73261719 12.08222656 -3.64882813 10.90273437 -3.5625 9.6875 C-3.48128906 8.51574219 -3.40007812 7.34398437 -3.31640625 6.13671875 C-3 3 -3 3 -2 0 C-15.03436448 -0.17501298 -15.03436448 -0.17501298 -28 1 C-28 1.66 -28 2.32 -28 3 C-28.92232422 3.07347656 -28.92232422 3.07347656 -29.86328125 3.1484375 C-30.67152344 3.22320312 -31.47976563 3.29796875 -32.3125 3.375 C-33.11300781 3.44460937 -33.91351563 3.51421875 -34.73828125 3.5859375 C-37.27224441 3.89564426 -37.27224441 3.89564426 -40 6 C-42.1875 5.625 -42.1875 5.625 -44 5 C-30.79605986 -2.10465814 -14.53950433 -7.09527811 0 0 Z " fill="#B0C7CE" transform="translate(296,232)"/>
<path d="M0 0 C5.51883997 5.87489416 5.14034142 12.12758288 5.125 19.875 C5.12886719 21.85113281 5.12886719 21.85113281 5.1328125 23.8671875 C5 27 5 27 4 28 C1.28516457 28.24932162 -1.40356013 28.43001171 -4.125 28.5625 C-4.95580078 28.60568359 -5.78660156 28.64886719 -6.64257812 28.69335938 C-14.60218837 29.06343719 -22.55366643 29.06037966 -30.52001953 28.96313477 C-31.91776611 28.95044556 -31.91776611 28.95044556 -33.34375 28.9375 C-34.17068359 28.92589844 -34.99761719 28.91429687 -35.84960938 28.90234375 C-38.1861466 28.9104579 -38.1861466 28.9104579 -41 30 C-41 30.66 -41 31.32 -41 32 C-40.34 32.33 -39.68 32.66 -39 33 C-39.99 33 -40.98 33 -42 33 C-42.33 31.02 -42.66 29.04 -43 27 C-27.82 27 -12.64 27 3 27 C3.37896145 10.0919472 3.37896145 10.0919472 0 4 C0 2.68 0 1.36 0 0 Z " fill="#B1C5CA" transform="translate(448,246)"/>
<path d="M0 0 C1.53166168 4.08443115 0.63081652 7.79455657 0 12 C0.66 12.33 1.32 12.66 2 13 C1.51789063 13.37511719 1.03578125 13.75023437 0.5390625 14.13671875 C-3.12850346 17.10819566 -5.74618833 19.26337814 -7 24 C-7.66 24 -8.32 24 -9 24 C-9.33 25.32 -9.66 26.64 -10 28 C-10.66 28 -11.32 28 -12 28 C-12.66 29.32 -13.32 30.64 -14 32 C-13.39079584 28.44267578 -12.43839809 25.36690463 -11.00390625 22.05859375 C-10.61009766 21.14529297 -10.21628906 20.23199219 -9.81054688 19.29101562 C-9.19276367 17.87852539 -9.19276367 17.87852539 -8.5625 16.4375 C-8.15451172 15.49197266 -7.74652344 14.54644531 -7.32617188 13.57226562 C-5.63429944 9.66688308 -3.93456389 5.79231182 -2 2 C-1.34 2 -0.68 2 0 2 C0 1.34 0 0.68 0 0 Z " fill="#EA6A68" transform="translate(157,244)"/>
<path d="M0 0 C0.33 0 0.66 0 1 0 C2.11165232 4.4378561 2.11527763 8.76956386 2.0625 13.3125 C2.05798828 14.05306641 2.05347656 14.79363281 2.04882812 15.55664062 C2.03712175 17.37112899 2.01918898 19.18557534 2 21 C-2.19588453 22.17501825 -6.26960129 22.14374805 -10.59765625 22.1328125 C-11.84366859 22.13424759 -11.84366859 22.13424759 -13.11485291 22.13571167 C-14.86734086 22.13639099 -16.61983136 22.13455401 -18.37231445 22.13037109 C-21.05620967 22.12501256 -23.73993806 22.13032795 -26.42382812 22.13671875 C-28.12760454 22.13605806 -29.83138084 22.13477708 -31.53515625 22.1328125 C-32.73991356 22.13584885 -32.73991356 22.13584885 -33.9690094 22.13894653 C-37.23693319 22.12516869 -39.87778766 22.04073745 -43 21 C-43.33 22.32 -43.66 23.64 -44 25 C-44.66 24.34 -45.32 23.68 -46 23 C-46 22.01 -46 21.02 -46 20 C-30.49 20 -14.98 20 1 20 C0.67 13.4 0.34 6.8 0 0 Z " fill="#B1C6CB" transform="translate(235,253)"/>
<path d="M0 0 C1.31677734 0.13148438 1.31677734 0.13148438 2.66015625 0.265625 C4.9375 0.75 4.9375 0.75 6.9375 2.75 C6.33421875 2.78738281 5.7309375 2.82476562 5.109375 2.86328125 C0.4901711 3.24324802 -2.53184101 3.50179373 -6.0625 6.75 C-6.7225 6.75 -7.3825 6.75 -8.0625 6.75 C-8.7225 9.06 -9.3825 11.37 -10.0625 13.75 C-1.8125 13.75 6.4375 13.75 14.9375 13.75 C13.6175 10.78 12.2975 7.81 10.9375 4.75 C12.2575 5.08 13.5775 5.41 14.9375 5.75 C15.5975 9.05 16.2575 12.35 16.9375 15.75 C7.3675 15.75 -2.2025 15.75 -12.0625 15.75 C-10.91118421 8.84210526 -10.91118421 8.84210526 -9.6875 5.5 C-9.45289063 4.83484375 -9.21828125 4.1696875 -8.9765625 3.484375 C-6.84695923 -0.5564107 -4.03184322 -0.45128142 0 0 Z " fill="#ADC8D0" transform="translate(201.0625,243.25)"/>
<path d="M0 0 C0.99 0.33 1.98 0.66 3 1 C1.9171875 1.8353125 1.9171875 1.8353125 0.8125 2.6875 C-2.04834845 4.95405207 -2.04834845 4.95405207 -4.5625 7.625 C-6.70218264 9.70981899 -8.27083122 10.88811642 -11 12 C-10.65555119 14.47266765 -10.65555119 14.47266765 -10 17 C-6.828262 18.585869 -3.36486178 18.37866445 0.125 18.5625 C0.87910156 18.60568359 1.63320312 18.64886719 2.41015625 18.69335938 C4.27321888 18.7994832 6.13658524 18.90025001 8 19 C8 19.33 8 19.66 8 20 C-0.58 20 -9.16 20 -18 20 C-16.75096546 15.00386183 -16.07145288 12.78586737 -12.1875 9.5 C-11.15689453 8.61828125 -11.15689453 8.61828125 -10.10546875 7.71875 C-4.325 3 -4.325 3 -2 3 C-2 2.34 -2 1.68 -2 1 C-1.34 0.67 -0.68 0.34 0 0 Z " fill="#E70E09" transform="translate(86,189)"/>
<path d="M0 0 C7.59 0 15.18 0 23 0 C22.67 1.32 22.34 2.64 22 4 C22 3.01 22 2.02 22 1 C15.07 1 8.14 1 1 1 C1.15786155 6.131353 1.15786155 6.131353 1.36035156 11.26098633 C1.390625 13.20703125 1.390625 13.20703125 1 17 C-0.9375 18.84375 -0.9375 18.84375 -3 20 C-4.26847685 22.58498512 -4.26847685 22.58498512 -5 25 C-6.28722703 21.13831892 -5.27470417 18.5165175 -4.1875 14.75 C-4.00896484 14.10675781 -3.83042969 13.46351563 -3.64648438 12.80078125 C-3.10687132 10.86440804 -2.55495954 8.93203201 -2 7 C-1.34 4.69 -0.68 2.38 0 0 Z " fill="#9EB8C0" transform="translate(356,231)"/>
<path d="M0 0 C1.56085441 4.68256324 -0.10514088 8.73472234 -1.25 13.4375 C-1.57677734 14.86932617 -1.57677734 14.86932617 -1.91015625 16.33007812 C-2.13058594 17.25111328 -2.35101563 18.17214844 -2.578125 19.12109375 C-2.87831543 20.38070923 -2.87831543 20.38070923 -3.18457031 21.66577148 C-4.09478579 24.2713314 -5.10658585 25.99236798 -7 28 C-7.99 28 -8.98 28 -10 28 C-10.33 28.66 -10.66 29.32 -11 30 C-10.34695118 26.10982879 -9.19461184 22.69556088 -7.71484375 19.04296875 C-7.26689453 17.93115234 -6.81894531 16.81933594 -6.35742188 15.67382812 C-5.88884766 14.52333984 -5.42027344 13.37285156 -4.9375 12.1875 C-4.46505859 11.01767578 -3.99261719 9.84785156 -3.50585938 8.64257812 C-2.34111284 5.76012457 -1.17236766 2.87936035 0 0 Z " fill="#E77575" transform="translate(167,216)"/>
<path d="M0 0 C1 2 1 2 0.2590332 4.57861328 C-0.13968994 5.64837402 -0.53841309 6.71813477 -0.94921875 7.8203125 C-1.38556641 8.9959375 -1.82191406 10.1715625 -2.27148438 11.3828125 C-2.6208606 12.30562012 -2.6208606 12.30562012 -2.97729492 13.24707031 C-3.67561884 15.09358374 -4.36039412 16.94520281 -5.04492188 18.796875 C-7.39090736 25.0664956 -9.88474998 31.0761465 -13 37 C-13.69040574 38.65697379 -14.36971413 40.31923769 -15 42 C-16.27522109 38.45049926 -15.72829518 36.69353818 -14.1875 33.3125 C-12.15175641 28.57182375 -10.97932331 24.05983711 -10 19 C-9.34 19 -8.68 19 -8 19 C-7.80664062 18.41992188 -7.61328125 17.83984375 -7.4140625 17.2421875 C-5.94270833 12.828125 -4.47135417 8.4140625 -3 4 C-2.34 4 -1.68 4 -1 4 C-0.67 2.68 -0.34 1.36 0 0 Z " fill="#D32223" transform="translate(138,230)"/>
<path d="M0 0 C0.66 0 1.32 0 2 0 C2.40992187 1.16917969 2.81984375 2.33835938 3.2421875 3.54296875 C3.78640215 5.09116559 4.3306761 6.63934157 4.875 8.1875 C5.14441406 8.95642578 5.41382812 9.72535156 5.69140625 10.51757812 C6.79932976 13.66570223 7.9092181 16.78253879 9.1953125 19.86328125 C10 22 10 22 10 25 C10.66 25 11.32 25 12 25 C12.28875 26.11375 12.5775 27.2275 12.875 28.375 C13.69241329 32.00291092 13.69241329 32.00291092 16 34 C16.4140625 36.1640625 16.4140625 36.1640625 16.625 38.625 C16.69976562 39.44226563 16.77453125 40.25953125 16.8515625 41.1015625 C16.90054688 41.72804688 16.94953125 42.35453125 17 43 C8.10333656 34.10333656 3.49666057 13.88864593 0 2 C0 1.34 0 0.68 0 0 Z " fill="#DC393A" transform="translate(97,218)"/>
<path d="M0 0 C2.72092615 5.02324827 4.69795076 10.44458991 6 16 C8.64 16 11.28 16 14 16 C13.814375 16.9075 13.62875 17.815 13.4375 18.75 C13.04265379 21.68314324 13.05308428 23.2644657 14 26 C6.83893505 20.76019638 1.33347407 13.23564183 -2 5 C-2 3.68 -2 2.36 -2 1 C-1.34 0.67 -0.68 0.34 0 0 Z " fill="#D82823" transform="translate(59,272)"/>
<path d="M0 0 C9.2192542 2.88101694 17.65461005 11.13913242 23 19 C22.67 19.66 22.34 20.32 22 21 C21.01 20.67 20.02 20.34 19 20 C19 19.34 19 18.68 19 18 C17.68 18 16.36 18 15 18 C14.8453125 17.0409375 14.8453125 17.0409375 14.6875 16.0625 C14.460625 15.381875 14.23375 14.70125 14 14 C13.01 13.67 12.02 13.34 11 13 C10.67 12.01 10.34 11.02 10 10 C9.01 9.67 8.02 9.34 7 9 C7 7.68 7 6.36 7 5 C6.21625 4.690625 5.4325 4.38125 4.625 4.0625 C2 3 2 3 0 2 C0 1.34 0 0.68 0 0 Z " fill="#E88684" transform="translate(154,187)"/>
<path d="M0 0 C2.78702389 1.39351194 3.1857454 3.14470897 4.5 5.9375 C6.30611242 9.7751351 6.30611242 9.7751351 9 13 C8.67 13.33 8.34 13.66 8 14 C8.99 14.33 9.98 14.66 11 15 C11 15.66 11 16.32 11 17 C16.28 17.33 21.56 17.66 27 18 C27.33 17.01 27.66 16.02 28 15 C28.33 15.66 28.66 16.32 29 17 C28.67 17.99 28.34 18.98 28 20 C21.73 20 15.46 20 9 20 C7.515 17.256875 6.03 14.51375 4.5 11.6875 C4.03013672 10.82729248 3.56027344 9.96708496 3.07617188 9.08081055 C2.71072266 8.39801025 2.34527344 7.71520996 1.96875 7.01171875 C1.59169922 6.31522217 1.21464844 5.61872559 0.82617188 4.90112305 C0 3 0 3 0 0 Z " fill="#FDCECB" transform="translate(102,285)"/>
<path d="M0 0 C0.99 0.495 0.99 0.495 2 1 C2 1.66 2 2.32 2 3 C2.66 3 3.32 3 4 3 C6.30672095 6.46008142 6.48134006 8.92481479 7 13 C7.33 13.66 7.66 14.32 8 15 C8.66 15 9.32 15 10 15 C10 15.66 10 16.32 10 17 C11.258125 16.67 12.51625 16.34 13.8125 16 C21.75040469 14.24991078 29.32383633 14.27069736 37 17 C34.2351001 17.78511411 31.82337685 18.1113092 28.953125 18.0625 C28.19 18.05476563 27.426875 18.04703125 26.640625 18.0390625 C25.06249581 18.01327608 23.48437068 17.98723951 21.90625 17.9609375 C16.83433692 17.90987797 12.02092125 18.26634941 7 19 C5.22376994 14.91467085 3.49481684 10.81246906 1.8125 6.6875 C1.46832031 5.84574219 1.12414062 5.00398437 0.76953125 4.13671875 C0 2 0 2 0 0 Z " fill="#D6D6D9" transform="translate(181,214)"/>
<path d="M0 0 C7.58954531 0.44644384 14.01639737 3.11500562 21 6 C21 6.66 21 7.32 21 8 C21.78375 8.28875 22.5675 8.5775 23.375 8.875 C26 10 26 10 28 12 C23.53356078 11.34637475 19.33333938 10.25000174 15 9 C14.34 9 13.68 9 13 9 C13 8.01 13 7.02 13 6 C12.34 6 11.68 6 11 6 C11 5.34 11 4.68 11 4 C9.02 4 7.04 4 5 4 C5 3.34 5 2.68 5 2 C3.35 1.67 1.7 1.34 0 1 C0 0.67 0 0.34 0 0 Z " fill="#DD1B1E" transform="translate(133,181)"/>
<path d="M0 0 C0 0.66 0 1.32 0 2 C-0.76828125 1.68675781 -1.5365625 1.37351563 -2.328125 1.05078125 C-7.14646738 -0.32808481 -11.76108345 -0.57990862 -16.75 -0.8125 C-17.6884375 -0.87630859 -18.626875 -0.94011719 -19.59375 -1.00585938 C-26.28329443 -1.3338688 -31.72561973 -0.32083684 -38 2 C-28.7388481 -7.92734921 -10.99990682 -4.85035262 0 0 Z " fill="#96B1B6" transform="translate(439,233)"/>
<path d="M0 0 C0.94602608 3.0851746 1.01578237 5.49259007 0.625 8.6875 C0.53476563 9.47511719 0.44453125 10.26273437 0.3515625 11.07421875 C0 13 0 13 -1 14 C-1.79492056 25.36284659 -1.79492056 25.36284659 1.125 36.125 C2.32398098 38.69424496 1.74097443 40.33249205 1 43 C-3.36444464 35.51809491 -3.33837596 27.33683776 -3.3125 18.9375 C-3.32861328 17.88755859 -3.34472656 16.83761719 -3.36132812 15.75585938 C-3.36513182 9.7117864 -2.8744627 5.34695568 0 0 Z " fill="#513149" transform="translate(173,249)"/>
<path d="M0 0 C3.27875789 3.27875789 4.26611678 7.92187524 5.7890625 12.234375 C7.27800741 16.48379111 7.27800741 16.48379111 10 20 C10.165 20.845625 10.33 21.69125 10.5 22.5625 C10.665 23.366875 10.83 24.17125 11 25 C11.66 25.33 12.32 25.66 13 26 C13.6328125 28.06640625 13.6328125 28.06640625 14.125 30.5625 C14.29257813 31.38878906 14.46015625 32.21507812 14.6328125 33.06640625 C14.81457031 34.02353516 14.81457031 34.02353516 15 35 C15.66 35 16.32 35 17 35 C17.625 37.375 17.625 37.375 18 40 C17.34 40.66 16.68 41.32 16 42 C12.81886683 35.22953516 9.9062225 28.38760754 7.17260742 21.42749023 C5.78020076 17.89598469 4.30477046 14.4337699 2.6875 11 C0.9997204 7.30929523 0.34356152 4.03684782 0 0 Z " fill="#FCD6D2" transform="translate(73,217)"/>
<path d="M0 0 C2.63740372 3.26535698 4.03781867 6.07563735 6 10 C12.93 10.33 19.86 10.66 27 11 C26.67 11.66 26.34 12.32 26 13 C22.54168414 13.02894547 19.08339928 13.04678 15.625 13.0625 C14.14773437 13.07506836 14.14773437 13.07506836 12.640625 13.08789062 C11.22910156 13.09272461 11.22910156 13.09272461 9.7890625 13.09765625 C8.91975098 13.10289307 8.05043945 13.10812988 7.15478516 13.11352539 C5 13 5 13 3 12 C1.875 9.9375 1.875 9.9375 1 8 C0.67 8 0.34 8 0 8 C0 5.36 0 2.72 0 0 Z " fill="#DE2221" transform="translate(105,294)"/>
<path d="M0 0 C2.375 0.25 2.375 0.25 5 1 C6.125 2.875 6.125 2.875 7 5 C8.22954016 6.81299492 8.22954016 6.81299492 10 8 C12.62570704 8.25069913 12.62570704 8.25069913 15 8 C15.061875 8.8971875 15.061875 8.8971875 15.125 9.8125 C15.87739901 12.35100832 15.87739901 12.35100832 19.0625 13.75 C20.5165625 14.36875 20.5165625 14.36875 22 15 C19 16 19 16 16.73046875 15.1796875 C10.16835627 11.81295083 4.00686084 8.45549802 0 2 C0 1.34 0 0.68 0 0 Z " fill="#71929A" transform="translate(390,290)"/>
<path d="M0 0 C3.97915159 -0.02886984 7.95827653 -0.04675406 11.9375 -0.0625 C13.07380859 -0.07087891 14.21011719 -0.07925781 15.38085938 -0.08789062 C16.46044922 -0.09111328 17.54003906 -0.09433594 18.65234375 -0.09765625 C20.15269165 -0.10551147 20.15269165 -0.10551147 21.68334961 -0.11352539 C24 0 24 0 25 1 C25.04063832 2.66617115 25.042721 4.33388095 25 6 C24.34 5.67 23.68 5.34 23 5 C23 4.34 23 3.68 23 3 C17.39 2.67 11.78 2.34 6 2 C6 3.32 6 4.64 6 6 C5.34 6 4.68 6 4 6 C4 4.68 4 3.36 4 2 C3.34 2 2.68 2 2 2 C2.33 3.65 2.66 5.3 3 7 C0 3.375 0 3.375 0 0 Z " fill="#FED7D4" transform="translate(70,210)"/>
<path d="M0 0 C-2 1 -2 1 -5.046875 0.0390625 C-6.26890625 -0.42757812 -7.4909375 -0.89421875 -8.75 -1.375 C-16.73693308 -4.41683196 -23.91847873 -5.19456291 -32.375 -5.5625 C-33.30183594 -5.60568359 -34.22867188 -5.64886719 -35.18359375 -5.69335938 C-37.45560294 -5.79876186 -39.72770925 -5.90088606 -42 -6 C-42 -6.33 -42 -6.66 -42 -7 C-26.85359365 -8.63540932 -13.04738177 -8.69825452 0 0 Z " fill="#F8C2BE" transform="translate(154,186)"/>
<path d="M0 0 C0.33 0 0.66 0 1 0 C1.03738281 1.24394531 1.07476562 2.48789062 1.11328125 3.76953125 C1.18785269 17.27947732 1.18785269 17.27947732 5 30 C7.28527799 31.44749787 9.42146732 32.14048911 12 33 C12.33 34.65 12.66 36.3 13 38 C12.34 38 11.68 38 11 38 C11 37.34 11 36.68 11 36 C10.34 36 9.68 36 9 36 C8.67 35.34 8.34 34.68 8 34 C6.35 34 4.7 34 3 34 C0.4103462 26.11620238 -0.3943928 19.08290707 -0.1875 10.8125 C-0.17396484 9.76513672 -0.16042969 8.71777344 -0.14648438 7.63867188 C-0.1115968 5.09187876 -0.0625887 2.54623675 0 0 Z " fill="#C22120" transform="translate(169,261)"/>
<path d="M0 0 C4.09542826 3.42624063 5.54881358 7.12002553 7.3125 12 C7.58900391 12.7115625 7.86550781 13.423125 8.15039062 14.15625 C9.53235551 17.88790329 10.21758053 20.20940923 9 24 C6.90971316 20.95958278 5.75819271 18.32250123 5 14.75 C4.67 13.5125 4.34 12.275 4 11 C3.01 10.67 2.02 10.34 1 10 C-0.60725635 6.78548731 -0.05748185 3.56387464 0 0 Z M-1 10 C-0.34 10 0.32 10 1 10 C0.67 10.99 0.34 11.98 0 13 C-0.33 12.01 -0.66 11.02 -1 10 Z " fill="#DF3F40" transform="translate(177,208)"/>
<path d="M0 0 C3.03115132 3.3198324 3.99048228 6.83443258 5.15625 11.07421875 C5.57390625 12.02748047 5.57390625 12.02748047 6 13 C6.99 13.33 7.98 13.66 9 14 C9.12375 14.928125 9.2475 15.85625 9.375 16.8125 C9.81533082 20.13925235 9.81533082 20.13925235 12 23 C11.67 23.99 11.34 24.98 11 26 C10.34 24.68 9.68 23.36 9 22 C8.34 22 7.68 22 7 22 C7 20.68 7 19.36 7 18 C6.01 17.67 5.02 17.34 4 17 C3.0859375 14.453125 3.0859375 14.453125 2.375 11.25 C2.13523437 10.20328125 1.89546875 9.1565625 1.6484375 8.078125 C1.08183673 5.38847799 0.52944809 2.6971884 0 0 Z " fill="#F3BFBC" transform="translate(90,259)"/>
<path d="M0 0 C0.88016203 3.14343581 1.27855 6.18785005 1.5625 9.4375 C1.64628906 10.36433594 1.73007813 11.29117187 1.81640625 12.24609375 C2 15 2 15 1.83984375 17.55859375 C2.04545537 20.69291727 3.1425399 22.12258847 5 24.625 C8 28.69444444 8 28.69444444 8 32 C5.51932944 31.0170928 4.22930852 30.35743011 2.76953125 28.08203125 C-0.99905175 19.14510586 -1.47575256 10.65497833 -1 1 C-0.67 0.67 -0.34 0.34 0 0 Z " fill="#1D3B4C" transform="translate(172,262)"/>
<path d="M0 0 C0.99386719 0.10183594 1.98773438 0.20367187 3.01171875 0.30859375 C3.77097656 0.39238281 4.53023438 0.47617188 5.3125 0.5625 C5.3125 0.8925 5.3125 1.2225 5.3125 1.5625 C4.56484375 1.61148438 3.8171875 1.66046875 3.046875 1.7109375 C2.06203125 1.78570312 1.0771875 1.86046875 0.0625 1.9375 C-1.39929688 2.04191406 -1.39929688 2.04191406 -2.890625 2.1484375 C-6.00334202 2.4609174 -6.00334202 2.4609174 -9.6875 4.5625 C-10.0175 16.7725 -10.3475 28.9825 -10.6875 41.5625 C-11.0175 41.5625 -11.3475 41.5625 -11.6875 41.5625 C-11.7616205 36.20567867 -11.81608776 30.84915538 -11.85229492 25.49194336 C-11.8673876 23.66929933 -11.88786395 21.84669164 -11.91381836 20.02416992 C-11.95018103 17.405345 -11.96722124 14.78699993 -11.98046875 12.16796875 C-11.99595261 11.35224899 -12.01143646 10.53652924 -12.02738953 9.6960907 C-12.02908896 3.99193739 -12.02908896 3.99193739 -10.35371399 1.88569641 C-6.95731072 -0.81150134 -4.09758393 -0.43386183 0 0 Z " fill="#1C4B55" transform="translate(282.6875,246.4375)"/>
<path d="M0 0 C0.680625 0.680625 1.36125 1.36125 2.0625 2.0625 C2.52527344 2.52011719 2.98804687 2.97773438 3.46484375 3.44921875 C4.49895655 4.49385687 5.51193076 5.55979961 6.50390625 6.64453125 C12.80755597 13.37348745 20.65306928 18.16492372 29 22 C26 23 26 23 23.109375 21.77734375 C14.20860393 16.90261913 5.72568317 11.66193094 0 3 C0 2.01 0 1.02 0 0 Z " fill="#FCCBC6" transform="translate(65,290)"/>
<path d="M0 0 C0.93423645 3.01031744 1.04449911 3.86650268 0 7 C-0.26616965 9.76731942 -0.44368808 12.53427101 -0.62109375 15.30859375 C-1.00031157 18.00221308 -1.49902077 19.7407406 -3 22 C-5.625 22.75 -5.625 22.75 -8 23 C-6.3601244 18.01668872 -4.6266201 13.06976488 -2.875 8.125 C-2.59785156 7.34125 -2.32070313 6.5575 -2.03515625 5.75 C-1.35725068 3.83316356 -0.67869207 1.9165581 0 0 Z " fill="#638891" transform="translate(349,256)"/>
<path d="M0 0 C2.46735884 2.46735884 2.9072384 4.72171521 4 8 C4.66 8.66 5.32 9.32 6 10 C6.14179688 11.03640625 6.28359375 12.0728125 6.4296875 13.140625 C7.16313574 18.10395965 8.99612309 22.1861951 11.00390625 26.74609375 C13.10177874 31.69466378 13.10177874 31.69466378 12 35 C8.38385751 27.88436477 5.71545577 20.55807842 3.1875 13 C2.87353271 12.06776611 2.55956543 11.13553223 2.23608398 10.17504883 C1.94548096 9.29228271 1.65487793 8.4095166 1.35546875 7.5 C1.09403076 6.7059375 0.83259277 5.911875 0.56323242 5.09375 C0 3 0 3 0 0 Z " fill="#BDD2D7" transform="translate(310,248)"/>
<path d="M0 0 C4.81299964 0.14584847 7.1480694 2.56505611 10.28125 5.890625 C13.032984 9.26775309 15.47498905 12.90153307 17 17 C16.67 17.99 16.34 18.98 16 20 C13.30537425 17.48501596 11.55291561 15.3276763 10 12 C9.34 11.34 8.68 10.68 8 10 C7.7525 9.21625 7.505 8.4325 7.25 7.625 C5.58577261 4.13012247 3.25062332 2.97864028 0 1 C0 0.67 0 0.34 0 0 Z " fill="#85A4AA" transform="translate(218,232)"/>
<path d="M0 0 C0.66 0.33 1.32 0.66 2 1 C1.3503125 1.67095703 1.3503125 1.67095703 0.6875 2.35546875 C-2.85356661 5.93288824 -2.85356661 5.93288824 -4.1875 10.5625 C-4.125625 11.366875 -4.06375 12.17125 -4 13 C-5.5 16.3125 -5.5 16.3125 -7 19 C-7.66 19 -8.32 19 -9 19 C-9 19.99 -9 20.98 -9 22 C-9.99 22.33 -10.98 22.66 -12 23 C-10.491197 13.49454111 -6.11918463 7.29595091 0 0 Z " fill="#E88083" transform="translate(68,200)"/>
<path d="M0 0 C0.33 0 0.66 0 1 0 C1.04254356 1.99954746 1.04080783 4.00041636 1 6 C0.67 6.33 0.34 6.66 0 7 C-0.20775561 8.66204487 -0.36718255 10.33029491 -0.5 12 C-0.88888889 16.88888889 -0.88888889 16.88888889 -2 18 C-2.23192865 19.51469448 -2.41215238 21.03754562 -2.5625 22.5625 C-2.64628906 23.38878906 -2.73007812 24.21507812 -2.81640625 25.06640625 C-2.87699219 25.70449219 -2.93757813 26.34257812 -3 27 C-3.33 27 -3.66 27 -4 27 C-4.36363386 17.89568568 -3.93592763 9.6860864 -1 1 C-0.67 0.67 -0.34 0.34 0 0 Z " fill="#DC2828" transform="translate(56,223)"/>
<path d="M0 0 C1.58206057 0.00667536 3.16410534 0.0186375 4.74609375 0.03515625 C5.55240234 0.03966797 6.35871094 0.04417969 7.18945312 0.04882812 C9.18753131 0.06065107 11.18557158 0.07858711 13.18359375 0.09765625 C12.18359375 2.09765625 12.18359375 2.09765625 10.37792969 2.71655273 C8.22236951 3.09092183 6.25970569 3.21186922 4.07421875 3.1953125 C3.32011719 3.19208984 2.56601563 3.18886719 1.7890625 3.18554688 C1.01175781 3.17716797 0.23445313 3.16878906 -0.56640625 3.16015625 C-1.35917969 3.15564453 -2.15195313 3.15113281 -2.96875 3.14648438 C-4.91800133 3.1347419 -6.86721363 3.11680771 -8.81640625 3.09765625 C-8.17703125 2.78828125 -7.53765625 2.47890625 -6.87890625 2.16015625 C-2.82603626 0.07231413 -2.82603626 0.07231413 0 0 Z " fill="#FFF1EF" transform="translate(116.81640625,175.90234375)"/>
<path d="M0 0 C0 0.33 0 0.66 0 1 C-4.455 1.495 -4.455 1.495 -9 2 C-9 2.66 -9 3.32 -9 4 C-9.92232422 4.07347656 -9.92232422 4.07347656 -10.86328125 4.1484375 C-11.67152344 4.22320312 -12.47976563 4.29796875 -13.3125 4.375 C-14.11300781 4.44460937 -14.91351563 4.51421875 -15.73828125 4.5859375 C-18.27224441 4.89564426 -18.27224441 4.89564426 -21 7 C-23.1875 6.625 -23.1875 6.625 -25 6 C-16.47735567 0.84034505 -9.94176463 -0.86589563 0 0 Z " fill="#4A7280" transform="translate(277,231)"/>
<path d="M0 0 C3.59512004 1.67772269 6.21877622 3.21877622 9 6 C11.89513483 6.93169989 14.51798258 7.11812174 17.546875 7.09765625 C18.39121094 7.09443359 19.23554688 7.09121094 20.10546875 7.08789062 C20.97816406 7.07951172 21.85085938 7.07113281 22.75 7.0625 C23.63816406 7.05798828 24.52632813 7.05347656 25.44140625 7.04882812 C27.62767329 7.037074 29.81380179 7.02064249 32 7 C26.06028825 10.95980783 16.91304886 9.93651905 10 9 C6.34252584 7.59293773 3.58218493 5.9644637 1 3 C0.67 2.01 0.34 1.02 0 0 Z " fill="#A1BFCC" transform="translate(408,280)"/>
<path d="M0 0 C3.59403854 1.79701927 4.30131905 6.26926279 5.6875 9.875 C6.02072266 10.70386719 6.35394531 11.53273437 6.69726562 12.38671875 C7.00728516 13.18464844 7.31730469 13.98257813 7.63671875 14.8046875 C7.92248779 15.53671387 8.20825684 16.26874023 8.50268555 17.02294922 C9 19 9 19 8 22 C6 19 6 19 6 15 C5.34 15 4.68 15 4 15 C-0.59225513 5.77448747 -0.59225513 5.77448747 0 0 Z " fill="#D42F2C" transform="translate(77,232)"/>
<path d="M0 0 C0 0.66 0 1.32 0 2 C-1.609375 3.3671875 -1.609375 3.3671875 -3.75 4.875 C-6.17434491 6.62258431 -8.25332587 8.25332587 -10.375 10.375 C-10.91125 10.91125 -11.4475 11.4475 -12 12 C-12.66 12 -13.32 12 -14 12 C-14.0825 12.61875 -14.165 13.2375 -14.25 13.875 C-15 16 -15 16 -17.0625 17.25 C-17.701875 17.4975 -18.34125 17.745 -19 18 C-19 18.66 -19 19.32 -19 20 C-19.66 20 -20.32 20 -21 20 C-17.91296546 13.29163649 -7.87089153 0 0 0 Z " fill="#D33235" transform="translate(84,190)"/>
<path d="M0 0 C1.31677734 0.13148438 1.31677734 0.13148438 2.66015625 0.265625 C4.9375 0.75 4.9375 0.75 6.9375 2.75 C6.33421875 2.78738281 5.7309375 2.82476562 5.109375 2.86328125 C0.44390998 3.24705337 -2.45465091 3.55844119 -6.0625 6.75 C-7.0525 6.75 -8.0425 6.75 -9.0625 6.75 C-8.75 4.375 -8.75 4.375 -8.0625 1.75 C-4.66746995 -0.51335337 -3.89242437 -0.43567637 0 0 Z " fill="#628B91" transform="translate(201.0625,243.25)"/>
<path d="M0 0 C-0.56847656 0.24234375 -1.13695313 0.4846875 -1.72265625 0.734375 C-5.52850331 2.38632865 -9.17003365 4.04172516 -12.6875 6.25 C-16.17861003 8.09436001 -18.12142791 8.37839728 -22 8 C-19.27003428 4.57981653 -15.51205664 3.31013167 -11.5625 1.75 C-10.89412109 1.46898437 -10.22574219 1.18796875 -9.53710938 0.8984375 C-3.47519632 -1.52873086 -3.47519632 -1.52873086 0 0 Z " fill="#D93035" transform="translate(106,182)"/>
<path d="M0 0 C0.33 0.99 0.66 1.98 1 3 C0.01 3.33 -0.98 3.66 -2 4 C-2 4.99 -2 5.98 -2 7 C-5.33333333 10 -5.33333333 10 -8 10 C-8.66 11.65 -9.32 13.3 -10 15 C-10.6640625 13.25390625 -10.6640625 13.25390625 -11 11 C-8.53229846 6.16664472 -4.92888103 2.31947343 0 0 Z " fill="#6E3133" transform="translate(185,234)"/>
<path d="M0 0 C1.09658936 3.28976808 0.79953138 4.71303767 0 8 C-0.66 8 -1.32 8 -2 8 C-2.19335938 8.62648438 -2.38671875 9.25296875 -2.5859375 9.8984375 C-2.84632813 10.71570313 -3.10671875 11.53296875 -3.375 12.375 C-3.63023437 13.18710937 -3.88546875 13.99921875 -4.1484375 14.8359375 C-5 17 -5 17 -7 19 C-7.125 15.625 -7.125 15.625 -7 12 C-6.34 11.34 -5.68 10.68 -5 10 C-4.32707499 8.03309626 -4.32707499 8.03309626 -3.875 5.875 C-3.58625 4.59625 -3.2975 3.3175 -3 2 C-2.34 2 -1.68 2 -1 2 C-0.67 1.34 -0.34 0.68 0 0 Z " fill="#77969D" transform="translate(364,273)"/>
<path d="M0 0 C1.16514544 3.3907421 0.84338928 5.23119977 -0.43359375 8.546875 C-0.75263672 9.39121094 -1.07167969 10.23554688 -1.40039062 11.10546875 C-1.91375977 12.41451172 -1.91375977 12.41451172 -2.4375 13.75 C-2.94506836 15.08224609 -2.94506836 15.08224609 -3.46289062 16.44140625 C-4.29890894 18.63153873 -5.14485791 20.81727914 -6 23 C-6.89130413 20.3260876 -7.47731534 17.76276177 -8 15 C-7.01 14.67 -6.02 14.34 -5 14 C-4.87625 13.05125 -4.7525 12.1025 -4.625 11.125 C-4 8 -4 8 -2 6 C-1.28591666 4.01643517 -0.61382258 2.01684563 0 0 Z " fill="#90ABB2" transform="translate(372,250)"/>
<path d="M0 0 C0.7425 0.2475 1.485 0.495 2.25 0.75 C4.044375 1.2140625 4.044375 1.2140625 5.875 1.6875 C9.25 2.75 9.25 2.75 11.25 4.75 C6.96 4.75 2.67 4.75 -1.75 4.75 C-2.08 5.41 -2.41 6.07 -2.75 6.75 C-3.41 5.1 -4.07 3.45 -4.75 1.75 C-1.75 -0.25 -1.75 -0.25 0 0 Z " fill="#6D8E9A" transform="translate(414.75,242.25)"/>
<path d="M0 0 C0.33 0.66 0.66 1.32 1 2 C-0.19932452 4.6681269 -1.45240314 7.22808583 -2.8125 9.8125 C-3.55000155 11.23473249 -4.2857229 12.65788973 -5.01953125 14.08203125 C-5.54281006 15.09257568 -5.54281006 15.09257568 -6.07666016 16.12353516 C-7.10722375 18.14742624 -7.10722375 18.14742624 -8.13671875 20.94921875 C-9 23 -9 23 -11 24 C-10.46223205 19.58771115 -9.39404669 16.41138776 -7.1875 12.5625 C-6.65253906 11.61890625 -6.11757812 10.6753125 -5.56640625 9.703125 C-5.04949219 8.81109375 -4.53257812 7.9190625 -4 7 C-3.20825181 5.60421291 -2.41657055 4.20838785 -1.625 2.8125 C-0.820625 1.4203125 -0.820625 1.4203125 0 0 Z " fill="#FDD6D8" transform="translate(142,276)"/>
<path d="M0 0 C8.91 0 17.82 0 27 0 C27 0.33 27 0.66 27 1 C26.34926514 1.02505615 25.69853027 1.0501123 25.02807617 1.07592773 C22.08101954 1.19193702 19.1342787 1.31464115 16.1875 1.4375 C14.65125977 1.49647461 14.65125977 1.49647461 13.08398438 1.55664062 C12.10107422 1.59853516 11.11816406 1.64042969 10.10546875 1.68359375 C9.19949951 1.72025146 8.29353027 1.75690918 7.36010742 1.79467773 C4.84951218 1.9208205 4.84951218 1.9208205 2 3 C2 3.66 2 4.32 2 5 C2.66 5.33 3.32 5.66 4 6 C3.01 6 2.02 6 1 6 C0.67 4.02 0.34 2.04 0 0 Z " fill="#9AB7BB" transform="translate(405,273)"/>
<path d="M0 0 C0.66 0.33 1.32 0.66 2 1 C1.484375 1.391875 0.96875 1.78375 0.4375 2.1875 C-0.036875 2.785625 -0.51125 3.38375 -1 4 C-0.76956136 6.65466049 -0.76956136 6.65466049 0 9 C-0.804375 9.268125 -1.60875 9.53625 -2.4375 9.8125 C-3.283125 10.204375 -4.12875 10.59625 -5 11 C-5.33 11.99 -5.66 12.98 -6 14 C-6.66 13.67 -7.32 13.34 -8 13 C-7.39665691 9.29496359 -5.77525763 7.14031852 -3.4375 4.25 C-2.79683594 3.45078125 -2.15617187 2.6515625 -1.49609375 1.828125 C-1.00238281 1.22484375 -0.50867188 0.6215625 0 0 Z " fill="#6E8D99" transform="translate(396,237)"/>
<path d="M0 0 C2 3 2 3 1.7578125 5.26171875 C1.54898437 6.06222656 1.34015625 6.86273438 1.125 7.6875 C0.92132813 8.49574219 0.71765625 9.30398437 0.5078125 10.13671875 C0.34023438 10.75160156 0.17265625 11.36648437 0 12 C-3.86723631 13.26582219 -7.73151262 13.1118765 -11.75 13.0625 C-12.44738281 13.05798828 -13.14476562 13.05347656 -13.86328125 13.04882812 C-15.57555803 13.0371002 -17.28779033 13.01916653 -19 13 C-17 11 -17 11 -13.5234375 10.8046875 C-12.14049032 10.81798507 -10.75761346 10.84183768 -9.375 10.875 C-8.66859375 10.88402344 -7.9621875 10.89304688 -7.234375 10.90234375 C-5.48943902 10.92592397 -3.74467705 10.96179539 -2 11 C-1.7834375 9.1128125 -1.7834375 9.1128125 -1.5625 7.1875 C-1.26251314 4.57332877 -0.84186703 2.52560108 0 0 Z " fill="#BFD4D8" transform="translate(294,237)"/>
<path d="M0 0 C1.2375 -0.020625 2.475 -0.04125 3.75 -0.0625 C4.44609375 -0.07410156 5.1421875 -0.08570313 5.859375 -0.09765625 C8 0 8 0 12 1 C11.67 4.96 11.34 8.92 11 13 C8.77174356 10.77174356 8.30760631 9.34238372 7.375 6.375 C7.11460937 5.55773437 6.85421875 4.74046875 6.5859375 3.8984375 C6.39257812 3.27195313 6.19921875 2.64546875 6 2 C3.03 1.505 3.03 1.505 0 1 C0 0.67 0 0.34 0 0 Z " fill="#174654" transform="translate(282,231)"/>
<path d="M0 0 C0.66 0 1.32 0 2 0 C2.98143209 2.74921038 3.9602233 5.49931271 4.9375 8.25 C5.21529297 9.02730469 5.49308594 9.80460938 5.77929688 10.60546875 C6.04677734 11.35957031 6.31425781 12.11367187 6.58984375 12.890625 C6.83597412 13.58188477 7.08210449 14.27314453 7.33569336 14.98535156 C7.99141247 16.97395653 8.51867386 18.96285203 9 21 C6.0332509 18.47566086 4.84037816 15.76104489 3.375 12.1875 C2.94960937 11.17042969 2.52421875 10.15335938 2.0859375 9.10546875 C1.0204129 6.05837501 0.42957797 3.19319627 0 0 Z " fill="#D42728" transform="translate(97,218)"/>
<path d="M0 0 C3.66172475 0.62678171 6.8818995 1.64451846 10.3125 3.0625 C11.19550781 3.42472656 12.07851563 3.78695313 12.98828125 4.16015625 C13.65214844 4.43730469 14.31601562 4.71445312 15 5 C15 5.33 15 5.66 15 6 C8.49686791 6.46450943 4.5825192 5.32575612 -1 2 C-0.67 1.34 -0.34 0.68 0 0 Z " fill="#204B55" transform="translate(405,300)"/>
<path d="M0 0 C0.99 0.66 1.98 1.32 3 2 C2.67 2.99 2.34 3.98 2 5 C-12.85 4.505 -12.85 4.505 -28 4 C-28 3.67 -28 3.34 -28 3 C-18.76 3 -9.52 3 0 3 C0 2.01 0 1.02 0 0 Z " fill="#3B616C" transform="translate(433,256)"/>
<path d="M0 0 C6.83981276 0.51621228 12.63876684 2.48590969 19 5 C19 5.33 19 5.66 19 6 C14.30976546 5.43393721 9.65499974 4.81462495 5 4 C5 3.34 5 2.68 5 2 C3.35 1.67 1.7 1.34 0 1 C0 0.67 0 0.34 0 0 Z " fill="#D8393C" transform="translate(133,181)"/>
<path d="M0 0 C1.32 0.33 2.64 0.66 4 1 C2.35 5.95 0.7 10.9 -1 16 C-1.33 16 -1.66 16 -2 16 C-2 13.03 -2 10.06 -2 7 C-1.34 7 -0.68 7 0 7 C0 4.69 0 2.38 0 0 Z " fill="#DC2F2F" transform="translate(143,210)"/>
<path d="M0 0 C-2.94289954 2.94289954 -5.11473658 2.97327103 -9.234375 3.09765625 C-10.39453125 3.08605469 -11.5546875 3.07445312 -12.75 3.0625 C-13.92046875 3.05347656 -15.0909375 3.04445313 -16.296875 3.03515625 C-17.18890625 3.02355469 -18.0809375 3.01195312 -19 3 C-19 2.67 -19 2.34 -19 2 C-12.65176798 -0.30844801 -6.70518586 -0.19818283 0 0 Z " fill="#678B93" transform="translate(449,303)"/>
<path d="M0 0 C2.375 0.25 2.375 0.25 5 1 C6.1875 3 6.1875 3 7 5 C7.66 5.33 8.32 5.66 9 6 C9 6.99 9 7.98 9 9 C6.66471585 8.82701599 5.30822418 8.29774631 3.62109375 6.66796875 C0 2.42788462 0 2.42788462 0 0 Z " fill="#617F88" transform="translate(390,290)"/>
<path d="M0 0 C0 3 0 3 -1.79296875 4.97265625 C-2.58316406 5.66230469 -3.37335938 6.35195313 -4.1875 7.0625 C-4.96480469 7.75472656 -5.74210938 8.44695312 -6.54296875 9.16015625 C-8.97261164 10.97949139 -11.1417218 12.02016396 -14 13 C-12.69841744 9.09525233 -10.91016149 8.26649727 -7.5625 5.9375 C-3.59629598 3.18881869 -3.59629598 3.18881869 0 0 Z " fill="#FCD5CC" transform="translate(170,296)"/>
<path d="M0 0 C2.67394998 3.17196359 3.92531217 6.18852149 5.1875 10.125 C5.53167969 11.17945313 5.87585938 12.23390625 6.23046875 13.3203125 C7 16 7 16 7 18 C6.01 17.67 5.02 17.34 4 17 C3.0859375 14.453125 3.0859375 14.453125 2.375 11.25 C2.13523437 10.20328125 1.89546875 9.1565625 1.6484375 8.078125 C1.08183673 5.38847799 0.52944809 2.6971884 0 0 Z " fill="#E47E7F" transform="translate(90,259)"/>
<path d="M0 0 C0.66 0.33 1.32 0.66 2 1 C2 1.66 2 2.32 2 3 C2.66 3 3.32 3 4 3 C5.2890625 4.53125 5.2890625 4.53125 6.625 6.5 C7.07101563 7.1496875 7.51703125 7.799375 7.9765625 8.46875 C8.48316406 9.22671875 8.48316406 9.22671875 9 10 C5.66666667 8.33333333 2.33333333 6.66666667 -1 5 C-0.67 3.35 -0.34 1.7 0 0 Z " fill="#527B83" transform="translate(188,275)"/>
<path d="M0 0 C0.66 0 1.32 0 2 0 C1.23757784 3.61055091 -0.12473374 6.85834625 -1.5625 10.25 C-2.01753906 11.32765625 -2.47257812 12.4053125 -2.94140625 13.515625 C-3.29074219 14.33546875 -3.64007813 15.1553125 -4 16 C-5.34084698 12.35085947 -4.64228567 10.38045311 -3.125 6.875 C-2.75632812 6.00617188 -2.38765625 5.13734375 -2.0078125 4.2421875 C-1.36643873 2.81525516 -0.69964222 1.39928445 0 0 Z " fill="#D22A28" transform="translate(127,256)"/>
<path d="M0 0 C2.00293347 3.00440021 2.49271626 4.70993945 3.125 8.1875 C3.29257812 9.08855469 3.46015625 9.98960937 3.6328125 10.91796875 C3.75398438 11.60503906 3.87515625 12.29210937 4 13 C3.34 13 2.68 13 2 13 C-1.11861229 9.04176132 -1.38081364 5.95057736 -1 1 C-0.67 0.67 -0.34 0.34 0 0 Z " fill="#25515C" transform="translate(329,243)"/>
<path d="M0 0 C2.7058597 0.67646492 4.51516936 1.35717343 6.22265625 3.62109375 C9 8.40927419 9 8.40927419 9 11 C7.125 10.875 7.125 10.875 5 10 C3.9375 7.1875 3.9375 7.1875 3 4 C1.48446847 1.69833325 1.48446847 1.69833325 0 0 Z " fill="#89A3A6" transform="translate(439,235)"/>
<path d="M0 0 C0.99 0.33 1.98 0.66 3 1 C3.73046875 3.06640625 3.73046875 3.06640625 4.1875 5.5625 C4.34605469 6.38878906 4.50460938 7.21507812 4.66796875 8.06640625 C4.77753906 8.70449219 4.88710937 9.34257812 5 10 C5.99 10 6.98 10 8 10 C7.67 11.65 7.34 13.3 7 15 C3.97047604 13.48523802 3.62906229 11.14631984 2.375 8.0625 C1.92898437 6.98097656 1.48296875 5.89945312 1.0234375 4.78515625 C0 2 0 2 0 0 Z " fill="#CC2E2C" transform="translate(114,262)"/>
<path d="M0 0 C2.86453858 3.41016497 4.34703566 6.90694544 6 11 C5.01 11.33 4.02 11.66 3 12 C2.34 10.68 1.68 9.36 1 8 C0.67 8 0.34 8 0 8 C0 5.36 0 2.72 0 0 Z " fill="#DB262C" transform="translate(105,294)"/>
<path d="M0 0 C0.919102 3.24388943 1.28279255 6.39351063 1.5625 9.75 C1.64628906 10.73484375 1.73007813 11.7196875 1.81640625 12.734375 C1.87699219 13.48203125 1.93757812 14.2296875 2 15 C0.515625 13.8515625 0.515625 13.8515625 -1 12 C-1.328125 9.3359375 -1.328125 9.3359375 -1.25 6.375 C-1.23453125 5.39273437 -1.2190625 4.41046875 -1.203125 3.3984375 C-1 1 -1 1 0 0 Z " fill="#173D60" transform="translate(172,262)"/>
<path d="M0 0 C0.66 1.32 1.32 2.64 2 4 C-2.75 7 -2.75 7 -5 7 C-5.33 7.99 -5.66 8.98 -6 10 C-6.66 8.68 -7.32 7.36 -8 6 C-6.68 6 -5.36 6 -4 6 C-4 5.01 -4 4.02 -4 3 C-2.68 3 -1.36 3 0 3 C0 2.01 0 1.02 0 0 Z " fill="#D51416" transform="translate(185,230)"/>
<path d="M0 0 C0.598125 0.309375 1.19625 0.61875 1.8125 0.9375 C4.08956772 2.10209704 4.08956772 2.10209704 7 3 C7.33 4.65 7.66 6.3 8 8 C7.34 8 6.68 8 6 8 C6 7.34 6 6.68 6 6 C5.34 6 4.68 6 4 6 C3.67 5.34 3.34 4.68 3 4 C1.35 4 -0.3 4 -2 4 C-1.34 2.68 -0.68 1.36 0 0 Z " fill="#B0B3B7" transform="translate(174,291)"/>
<path d="M0 0 C0.99 0.33 1.98 0.66 3 1 C2.814375 1.7425 2.62875 2.485 2.4375 3.25 C2.00796892 5.94990963 2.14877026 7.44631077 3 10 C0.30930527 8.35086452 -0.83824681 7.47370578 -1.875 4.4375 C-1.91625 3.633125 -1.9575 2.82875 -2 2 C-1.34 1.34 -0.68 0.68 0 0 Z " fill="#E1180E" transform="translate(70,288)"/>
<path d="M0 0 C0.33 0 0.66 0 1 0 C1 1.98 1 3.96 1 6 C-2.63 5.67 -6.26 5.34 -10 5 C-9.34 4.34 -8.68 3.68 -8 3 C-7.01 3.020625 -6.02 3.04125 -5 3.0625 C-4.01 3.041875 -3.02 3.02125 -2 3 C-1.34 2.01 -0.68 1.02 0 0 Z " fill="#0C3C45" transform="translate(291,242)"/>
<path d="M0 0 C1.04005702 3.38018531 1.08004482 6.4780279 1 10 C-0.65 10.33 -2.3 10.66 -4 11 C-2.7874262 7.27566618 -1.49140021 3.62197194 0 0 Z " fill="#70979E" transform="translate(345,268)"/>
<path d="M0 0 C1.64826111 2.96687001 2.44271087 5.65626525 3 9 C2.01 9 1.02 9 0 9 C-1.76462683 5.91190305 -2 4.76687864 -2 1 C-1.34 0.67 -0.68 0.34 0 0 Z " fill="#E11914" transform="translate(59,272)"/>
<path d="M0 0 C2.64836661 3.12988781 4.0048268 6.0193072 5 10 C4.625 12.375 4.625 12.375 4 14 C0.68557793 9.53273547 0.33990833 5.37992836 0 0 Z " fill="#CD383E" transform="translate(182,218)"/>
<path d="M0 0 C1.16161779 2.86578759 0.9946154 4.01630163 0.00390625 7.015625 C-0.70958984 8.61664063 -0.70958984 8.61664063 -1.4375 10.25 C-1.91058594 11.32765625 -2.38367187 12.4053125 -2.87109375 13.515625 C-3.24363281 14.33546875 -3.61617187 15.1553125 -4 16 C-5.41131097 12.23948152 -4.5449072 9.97977756 -3.125 6.3125 C-2.75632813 5.33925781 -2.38765625 4.36601562 -2.0078125 3.36328125 C-1 1 -1 1 0 0 Z " fill="#FCCED1" transform="translate(57,216)"/>
<path d="M0 0 C1.32 0 2.64 0 4 0 C4 0.99 4 1.98 4 3 C2.46875 4.38671875 2.46875 4.38671875 0.5 5.6875 C-0.47453125 6.34298828 -0.47453125 6.34298828 -1.46875 7.01171875 C-1.9740625 7.33785156 -2.479375 7.66398437 -3 8 C-3.33 7.34 -3.66 6.68 -4 6 C-3.34 6 -2.68 6 -2 6 C-1.34 4.02 -0.68 2.04 0 0 Z " fill="#D4322E" transform="translate(168,293)"/>
<path d="M0 0 C3.57667962 1.66911715 6.28288593 3.15938075 9 6 C11.09989652 7.17574711 11.09989652 7.17574711 13 8 C6.87647862 7.63258872 4.21348564 6.21348564 0 2 C0 1.34 0 0.68 0 0 Z " fill="#D0E3E8" transform="translate(408,280)"/>
<path d="M0 0 C2.42130331 2.42130331 2.52840504 3.80111377 3.125 7.125 C3.29257813 8.03507813 3.46015625 8.94515625 3.6328125 9.8828125 C3.81457031 10.93082031 3.81457031 10.93082031 4 12 C3.34 11.67 2.68 11.34 2 11 C2 9.68 2 8.36 2 7 C1.34 7 0.68 7 0 7 C0 5.68 0 4.36 0 3 C-0.66 3 -1.32 3 -2 3 C-2 2.34 -2 1.68 -2 1 C-1.34 0.67 -0.68 0.34 0 0 Z " fill="#DD130C" transform="translate(67,207)"/>
<path d="M0 0 C0.33 0 0.66 0 1 0 C1 5.28 1 10.56 1 16 C-0.65 16 -2.3 16 -4 16 C-3.51917969 15.64292969 -3.03835938 15.28585937 -2.54296875 14.91796875 C-0.31575162 12.14945328 -0.48605989 9.81840977 -0.3125 6.3125 C-0.21388672 4.54326172 -0.21388672 4.54326172 -0.11328125 2.73828125 C-0.07589844 1.83464844 -0.03851563 0.93101562 0 0 Z " fill="#11414B" transform="translate(271,288)"/>
<path d="M0 0 C1 2 1 2 0.1875 5.5 C-1 9 -1 9 -3 11 C-3.99 10.67 -4.98 10.34 -6 10 C-6 9.34 -6 8.68 -6 8 C-5.01 8 -4.02 8 -3 8 C-2.87625 7.236875 -2.7525 6.47375 -2.625 5.6875 C-2 3 -2 3 0 0 Z " fill="#FBE0D8" transform="translate(124,269)"/>
<path d="M0 0 C-1.23944276 0.86941494 -2.49207059 1.72005457 -3.75 2.5625 C-4.44609375 3.03816406 -5.1421875 3.51382813 -5.859375 4.00390625 C-8 5 -8 5 -10.265625 4.65234375 C-10.83796875 4.43707031 -11.4103125 4.22179687 -12 4 C-10.56988027 3.13353333 -9.13059381 2.28218171 -7.6875 1.4375 C-6.48673828 0.72400391 -6.48673828 0.72400391 -5.26171875 -0.00390625 C-3 -1 -3 -1 0 0 Z " fill="#8EACB4" transform="translate(264,233)"/>
<path d="M0 0 C1.45922693 0.11409593 2.91740598 0.24165544 4.375 0.375 C5.59316406 0.47941406 5.59316406 0.47941406 6.8359375 0.5859375 C9 1 9 1 11 3 C7.7 3 4.4 3 1 3 C0.67 2.01 0.34 1.02 0 0 Z " fill="#1F4D5C" transform="translate(209,231)"/>
<path d="M0 0 C1.07165569 3.21496708 0.94376088 4.39796074 0.25 7.625 C0.09015625 8.42164063 -0.0696875 9.21828125 -0.234375 10.0390625 C-0.48703125 10.68617188 -0.7396875 11.33328125 -1 12 C-1.99 12.33 -2.98 12.66 -4 13 C-3.40895235 8.15340923 -2.02055843 4.39251833 0 0 Z " fill="#F5B5B2" transform="translate(167,216)"/>
<path d="M0 0 C0.99 0.33 1.98 0.66 3 1 C0.38485683 3.12038635 -2.19637616 5.13091744 -5 7 C-5.99 6.67 -6.98 6.34 -8 6 C-4.25 3 -4.25 3 -2 3 C-2 2.34 -2 1.68 -2 1 C-1.34 0.67 -0.68 0.34 0 0 Z " fill="#E30F0F" transform="translate(86,189)"/>
<path d="M0 0 C-1.2363168 0.89422914 -2.48971562 1.76487891 -3.75 2.625 C-4.44609375 3.11226563 -5.1421875 3.59953125 -5.859375 4.1015625 C-8 5 -8 5 -10.265625 4.1484375 C-10.83796875 3.76945312 -11.4103125 3.39046875 -12 3 C-10.35 3 -8.7 3 -7 3 C-7 2.34 -7 1.68 -7 1 C-3.375 -1.125 -3.375 -1.125 0 0 Z " fill="#D62321" transform="translate(158,306)"/>
<path d="M0 0 C3.63 0 7.26 0 11 0 C10.34 1.98 9.68 3.96 9 6 C8.443125 5.0409375 8.443125 5.0409375 7.875 4.0625 C5.41947207 1.36141928 3.55421195 1.31592995 0 1 C0 0.67 0 0.34 0 0 Z " fill="#FDC0B9" transform="translate(160,210)"/>
<path d="M0 0 C1.15866723 4.63466892 0.70010994 7.33260039 0 12 C-0.99 12 -1.98 12 -3 12 C-2.01 8.04 -1.02 4.08 0 0 Z " fill="#DD1F1C" transform="translate(142,278)"/>
<path d="M0 0 C3.14958831 3.42346555 3.56179109 6.44262737 4 11 C3.01 11.495 3.01 11.495 2 12 C0.86235649 7.73383684 0 4.43513689 0 0 Z " fill="#7A353A" transform="translate(171,280)"/>
<path d="M0 0 C1.15957207 3.47871621 0.77456651 4.34219645 -0.4375 7.6875 C-0.72496094 8.49574219 -1.01242187 9.30398437 -1.30859375 10.13671875 C-1.65083984 11.05904297 -1.65083984 11.05904297 -2 12 C-2.94314127 8.58389775 -3.08065117 5.54865136 -3 2 C-2.01 2 -1.02 2 0 2 C0 1.34 0 0.68 0 0 Z " fill="#88A8AB" transform="translate(376,238)"/>
<path d="M0 0 C2.46735884 2.46735884 2.9072384 4.72171521 4 8 C4.66 8.66 5.32 9.32 6 10 C5.67 10.66 5.34 11.32 5 12 C4.34 12 3.68 12 3 12 C2.49440092 10.56445975 1.9957251 9.1264798 1.5 7.6875 C1.2215625 6.88699219 0.943125 6.08648437 0.65625 5.26171875 C0 3 0 3 0 0 Z " fill="#94B2B9" transform="translate(310,248)"/>
<path d="M0 0 C0.33 0 0.66 0 1 0 C0.67 2.97 0.34 5.94 0 9 C-0.66 9 -1.32 9 -2 9 C-2 6.69 -2 4.38 -2 2 C-1.34 2 -0.68 2 0 2 C0 1.34 0 0.68 0 0 Z " fill="#DD1D1F" transform="translate(130,247)"/>
<path d="M0 0 C3 2 3 2 3.51171875 4.1640625 C3.56972656 4.97617188 3.62773438 5.78828125 3.6875 6.625 C3.75324219 7.44226563 3.81898437 8.25953125 3.88671875 9.1015625 C3.92410156 9.72804688 3.96148437 10.35453125 4 11 C1.73030256 8.73030256 1.00868171 7.02604513 0 4 C0 2.68 0 1.36 0 0 Z " fill="#D62022" transform="translate(110,250)"/>
<path d="M0 0 C2.97550031 3.0684847 3.96474513 4.46236331 4.25 8.8125 C4.1675 9.864375 4.085 10.91625 4 12 C3.33333333 10.66666667 2.66666667 9.33333333 2 8 C1.62875 7.34 1.2575 6.68 0.875 6 C0 4 0 4 0 0 Z " fill="#BED0D5" transform="translate(448,246)"/>
<path d="M0 0 C3.99455527 0.61454696 6.74466336 2.70646737 10 5 C9.01 5.33 8.02 5.66 7 6 C5.17578125 5.0390625 5.17578125 5.0390625 3.3125 3.625 C2.68988281 3.16351563 2.06726563 2.70203125 1.42578125 2.2265625 C0.95527344 1.82179688 0.48476562 1.41703125 0 1 C0 0.67 0 0.34 0 0 Z " fill="#FDCDC3" transform="translate(73,301)"/>
<path d="M0 0 C2.31 0.66 4.62 1.32 7 2 C6.67 3.32 6.34 4.64 6 6 C3.97945196 4.35830472 1.97956942 2.69088222 0 1 C0 0.67 0 0.34 0 0 Z " fill="#D52B27" transform="translate(73,298)"/>
<path d="M0 0 C-0.33 0.66 -0.66 1.32 -1 2 C-4.4375 2.75 -4.4375 2.75 -8 3 C-8.66 2.34 -9.32 1.68 -10 1 C-6.61981469 -0.04005702 -3.5219721 -0.08004482 0 0 Z " fill="#255460" transform="translate(230,287)"/>
<path d="M0 0 C0.99 0.33 1.98 0.66 3 1 C2.00102287 3.99693138 1.34869747 5.02709413 -1 7 C-1.66 7 -2.32 7 -3 7 C-1.125 2.25 -1.125 2.25 0 0 Z " fill="#39636D" transform="translate(408,246)"/>
<path d="M0 0 C2.9375 0.375 2.9375 0.375 6 1 C6.33 1.66 6.66 2.32 7 3 C6.67 3.66 6.34 4.32 6 5 C4.68 4.34 3.36 3.68 2 3 C2 2.34 2 1.68 2 1 C1.34 0.67 0.68 0.34 0 0 Z " fill="#5D7F8B" transform="translate(424,245)"/>
<path d="M0 0 C0.33 0 0.66 0 1 0 C1 2.64 1 5.28 1 8 C0.01 8 -0.98 8 -2 8 C-2 6.35 -2 4.7 -2 3 C-1.34 3 -0.68 3 0 3 C0 2.01 0 1.02 0 0 Z " fill="#668590" transform="translate(356,235)"/>
<path d="M0 0 C3 2 3 2 4 4 C2.68 5.32 1.36 6.64 0 8 C0.33 6.35 0.66 4.7 1 3 C0.34 2.67 -0.32 2.34 -1 2 C-0.67 1.34 -0.34 0.68 0 0 Z " fill="#3A4F64" transform="translate(187,232)"/>
<path d="M0 0 C1.32 0.33 2.64 0.66 4 1 C3.34 3.31 2.68 5.62 2 8 C0.23537317 4.91190305 0 3.76687864 0 0 Z " fill="#234D5F" transform="translate(307,234)"/>
<path d="M0 0 C1.98 0 3.96 0 6 0 C4.625 2 4.625 2 3 4 C2.34 4 1.68 4 1 4 C0.67 4.66 0.34 5.32 0 6 C0 4.02 0 2.04 0 0 Z " fill="#0F404C" transform="translate(357,233)"/>
<path d="M0 0 C0.66 0 1.32 0 2 0 C1.50168276 3.68754757 0.89932357 5.60490662 -2 8 C-2.20086443 4.28400809 -2.1519437 3.22791555 0 0 Z " fill="#E2110A" transform="translate(176,237)"/>
<path d="" fill="#FFFFFF" transform="translate(0,0)"/>
<path d="" fill="#FFFFFF" transform="translate(0,0)"/>
<path d="" fill="#FFFFFF" transform="translate(0,0)"/>
<path d="" fill="#FFFFFF" transform="translate(0,0)"/>
<path d="" fill="#FFFFFF" transform="translate(0,0)"/>
<path d="" fill="#FFFFFF" transform="translate(0,0)"/>
<path d="" fill="#FFFFFF" transform="translate(0,0)"/>
<path d="" fill="#FFFFFF" transform="translate(0,0)"/>
<path d="" fill="#FFFFFF" transform="translate(0,0)"/>
<path d="" fill="#FFFFFF" transform="translate(0,0)"/>
<path d="" fill="#FFFFFF" transform="translate(0,0)"/>
<path d="" fill="#FFFFFF" transform="translate(0,0)"/>
<path d="" fill="#FFFFFF" transform="translate(0,0)"/>
<path d="" fill="#FFFFFF" transform="translate(0,0)"/>
<path d="" fill="#FFFFFF" transform="translate(0,0)"/>
<path d="" fill="#FFFFFF" transform="translate(0,0)"/>
<path d="" fill="#FFFFFF" transform="translate(0,0)"/>
</svg>
