<?xml version="1.0" encoding="UTF-8"?>
<svg version="1.1" xmlns="http://www.w3.org/2000/svg" width="500" height="281">
<path d="M0 0 C0.83920486 0.00141495 1.67840973 0.0028299 2.54304504 0.00428772 C5.22274341 0.0098841 7.90235815 0.0224359 10.58203125 0.03515625 C12.39908733 0.04017172 14.21614473 0.04473454 16.03320312 0.04882812 C20.48701138 0.05985234 24.94075714 0.07711447 29.39453125 0.09765625 C31.12972361 4.06338583 32.10852775 7.94677435 32.99169922 12.18041992 C33.13875022 12.87912327 33.28580122 13.57782661 33.43730831 14.29770279 C33.92479242 16.619457 34.40575976 18.94251106 34.88671875 21.265625 C35.23225351 22.91789207 35.57818405 24.57007642 35.92448425 26.22218323 C36.85289901 30.65734979 37.77560435 35.09368558 38.69697952 39.53031921 C39.65129574 44.12201901 40.61000698 48.7128012 41.56811523 53.30371094 C43.11167402 60.70300146 44.65177762 68.10300423 46.18994141 75.50341797 C47.88376231 83.6517673 49.58692327 91.79811784 51.2958374 99.9433136 C52.42654204 105.33300346 53.5521981 110.72374321 54.67706299 116.11465454 C55.19518729 118.59444635 55.71482983 121.07392144 56.23602295 123.55307007 C56.95114564 126.9575903 57.66002119 130.36335089 58.3671875 133.76953125 C58.57570847 134.75530655 58.78422943 135.74108185 58.99906921 136.75672913 C59.18508194 137.65910812 59.37109467 138.56148712 59.56274414 139.49121094 C59.72464737 140.26615906 59.8865506 141.04110718 60.05335999 141.83953857 C60.39453125 144.09765625 60.39453125 144.09765625 60.39453125 149.09765625 C48.51453125 149.09765625 36.63453125 149.09765625 24.39453125 149.09765625 C21.39453125 140.09765625 21.39453125 140.09765625 18.39453125 127.09765625 C2.88453125 127.09765625 -12.62546875 127.09765625 -28.60546875 127.09765625 C-29.59546875 130.72765625 -30.58546875 134.35765625 -31.60546875 138.09765625 C-32.26943726 139.98882174 -32.96428507 141.87054295 -33.73046875 143.72265625 C-34.06304687 144.53992188 -34.395625 145.3571875 -34.73828125 146.19921875 C-35.60546875 148.09765625 -35.60546875 148.09765625 -36.60546875 149.09765625 C-39.56252196 149.18633924 -42.49611931 149.21285921 -45.453125 149.1953125 C-46.78276527 149.19319008 -46.78276527 149.19319008 -48.13926697 149.19102478 C-50.98220129 149.1854084 -53.82505806 149.17285316 -56.66796875 149.16015625 C-58.59049366 149.15514336 -60.51301979 149.15058009 -62.43554688 149.14648438 C-67.15888424 149.13543366 -71.88216333 149.11815808 -76.60546875 149.09765625 C-76.93546875 148.43765625 -77.26546875 147.77765625 -77.60546875 147.09765625 C-76.61676991 144.34266707 -75.55445663 141.69277718 -74.3984375 139.0078125 C-74.04670975 138.17378403 -73.69498199 137.33975555 -73.33259583 136.48045349 C-72.15983457 133.70395075 -70.97629513 130.93217075 -69.79296875 128.16015625 C-68.96727736 126.20998307 -68.14241966 124.25945672 -67.31835938 122.30859375 C-65.60269101 118.24877929 -63.88341346 114.19052161 -62.16162109 110.13330078 C-58.64789191 101.8461974 -55.17781693 93.54092703 -51.70803833 85.23535156 C-50.6022324 82.58991388 -49.49466458 79.94522105 -48.38647461 77.30078125 C-44.88804749 68.95193244 -41.39606682 60.60052378 -37.92321777 52.24099731 C-36.29488025 48.32236419 -34.66342462 44.40503265 -33.03173828 40.48779297 C-32.25967596 38.63183079 -31.48911801 36.77524195 -30.72021484 34.91796875 C-18.57761233 5.59081545 -18.57761233 5.59081545 -11.60546875 1.09765625 C-7.72085828 -0.19721391 -4.04662919 -0.02560415 0 0 Z M1.39453125 44.09765625 C-1.17346069 51.03772556 -3.73644369 57.97962928 -6.29589844 64.92285156 C-7.16778268 67.28623653 -8.04082667 69.64919398 -8.91503906 72.01171875 C-10.16904606 75.40123426 -11.41891867 78.79224899 -12.66796875 82.18359375 C-13.06169678 83.24508636 -13.4554248 84.30657898 -13.86108398 85.40023804 C-14.22145752 86.38110382 -14.58183105 87.3619696 -14.953125 88.37255859 C-15.27289307 89.23859711 -15.59266113 90.10463562 -15.92211914 90.99691772 C-16.70858063 93.04645925 -16.70858063 93.04645925 -16.60546875 95.09765625 C-6.70546875 95.09765625 3.19453125 95.09765625 13.39453125 95.09765625 C9.76453125 78.26765625 6.13453125 61.43765625 2.39453125 44.09765625 C2.06453125 44.09765625 1.73453125 44.09765625 1.39453125 44.09765625 Z " fill="#1635CA" transform="translate(421.60546875,64.90234375)"/>
<path d="M0 0 C9.0232032 -0.06960189 18.04631356 -0.12286286 27.06972694 -0.15543652 C31.2599602 -0.17107261 35.45000939 -0.19227306 39.64013672 -0.22631836 C43.68610817 -0.25898553 47.73190288 -0.27686848 51.77799606 -0.28463173 C53.31932735 -0.29016207 54.86064929 -0.30096154 56.40190506 -0.31719017 C58.56583585 -0.33906293 60.72904233 -0.34196292 62.89306641 -0.34057617 C64.12328522 -0.34723801 65.35350403 -0.35389984 66.6210022 -0.36076355 C72.85449332 0.30476408 77.07187108 3.22254591 81 8 C83.23756372 13.33598344 84.68214966 18.48290311 85.7175293 24.16015625 C85.86427094 24.93185654 86.01101257 25.70355682 86.16220093 26.49864197 C86.63967133 29.01870041 87.1070221 31.5405186 87.57421875 34.0625 C87.90560813 35.82238373 88.23763402 37.58214772 88.57026672 39.34179688 C89.43966521 43.95026288 90.30046211 48.56029427 91.15942383 53.17071533 C92.03920279 57.88432533 92.9271815 62.59638949 93.81445312 67.30859375 C95.55095715 76.53757535 97.27836996 85.76823301 99 95 C100.83216304 92.25175544 101.941161 89.88377029 103.15234375 86.83203125 C103.5898999 85.73431396 104.02745605 84.63659668 104.47827148 83.50561523 C104.95981689 82.28688721 105.4413623 81.06815918 105.9375 79.8125 C106.45163757 78.51820456 106.96605081 77.2240186 107.48071289 75.92993164 C108.97581794 72.16735208 110.4659371 68.4028117 111.95556641 64.63806152 C113.49541998 60.74865344 115.03839317 56.86048432 116.58103943 52.97218323 C118.70110687 47.62778304 120.81949506 42.28271785 122.9375 36.9375 C123.34950653 35.89784088 123.76151306 34.85818176 124.18600464 33.78701782 C125.38388278 30.76326194 126.58088893 27.73916309 127.77734375 24.71484375 C128.33970985 23.29396202 128.33970985 23.29396202 128.91343689 21.84437561 C131.36979381 15.62692096 133.77880369 9.39416005 136.12719727 3.13500977 C137 1 137 1 138 0 C141.02977804 -0.08871273 144.03667022 -0.1151935 147.06640625 -0.09765625 C147.97502914 -0.0962413 148.88365204 -0.09482635 149.81980896 -0.09336853 C152.73407221 -0.08775193 155.64825981 -0.07519665 158.5625 -0.0625 C160.53320202 -0.05748714 162.50390524 -0.05292386 164.47460938 -0.04882812 C169.31643559 -0.03777711 174.15820495 -0.02050138 179 0 C178.32684168 4.24715356 176.9195956 7.89432999 175.25390625 11.8515625 C174.83071358 12.86256767 174.83071358 12.86256767 174.39897156 13.89399719 C173.4578243 16.1395156 172.51014421 18.38221654 171.5625 20.625 C170.88790043 22.23101394 170.21375721 23.83721963 169.54003906 25.44360352 C168.10393998 28.86617015 166.66535293 32.28767646 165.22509766 35.70849609 C163.03069314 40.92313562 160.8479375 46.14259331 158.66796875 51.36328125 C150.0065167 72.10033994 141.29360572 92.81538949 132.54394531 113.51538086 C132.17088257 114.39802109 131.79781982 115.28066132 131.41345215 116.19004822 C130.68276341 117.91827431 129.95173318 119.64635606 129.22033691 121.37428284 C127.37156288 125.74408608 125.5313385 130.11723642 123.70410156 134.49609375 C123.33503693 135.37869873 122.96597229 136.26130371 122.58572388 137.1706543 C121.88189621 138.85485108 121.18004458 140.53987541 120.48043823 142.22583008 C118.11172724 147.88827276 118.11172724 147.88827276 117 149 C114.04294679 149.08868299 111.10934944 149.11520296 108.15234375 149.09765625 C106.82270348 149.09553383 106.82270348 149.09553383 105.46620178 149.09336853 C102.62326746 149.08775215 99.78041069 149.07519691 96.9375 149.0625 C95.01497509 149.05748711 93.09244896 149.05292384 91.16992188 149.04882812 C86.44658451 149.03777741 81.72330542 149.02050183 77 149 C74.43837543 144.32239076 73.00930114 139.86325178 71.7578125 134.73046875 C71.45099045 133.5113681 71.45099045 133.5113681 71.13796997 132.26763916 C70.69425896 130.50263 70.25356264 128.73686082 69.81555176 126.97042847 C68.61899161 122.14828259 67.39815589 117.33227295 66.1796875 112.515625 C65.92396973 111.50265854 65.66825195 110.48969208 65.40478516 109.44602966 C61.15302127 92.64572108 56.64890705 75.91077543 52.17185974 59.16941833 C50.67251419 53.55378031 49.20272016 47.93164198 47.76171875 42.30078125 C47.44493164 41.0775415 47.12814453 39.85430176 46.80175781 38.59399414 C46.25065141 36.46164828 45.70866055 34.32691114 45.17871094 32.18920898 C43.90609202 27.31156184 42.82646179 23.50978909 39 20 C36.58201944 18.64616035 34.35431365 17.54346839 31.8125 16.5 C30.77041382 16.05781128 30.77041382 16.05781128 29.70727539 15.60668945 C21.99426705 12.42922319 14.03889694 10.18350507 6 8 C3.66474679 7.33985578 1.33236946 6.67029083 -1 6 C-0.67 4.02 -0.34 2.04 0 0 Z " fill="#1937CA" transform="translate(11,65)"/>
<path d="M0 0 C0.84691406 0.26296875 1.69382812 0.5259375 2.56640625 0.796875 C7.7884565 2.576913 7.7884565 2.576913 9 5 C8.68065187 7.09593028 8.27115878 9.17837151 7.8203125 11.25 C7.55089844 12.4978125 7.28148437 13.745625 7.00390625 15.03125 C6.85969238 15.68222656 6.71547852 16.33320312 6.56689453 17.00390625 C6.12706819 18.99065773 5.69743825 20.979401 5.26953125 22.96875 C3.14709249 32.70581502 3.14709249 32.70581502 2 35 C-2.55631816 34.33611929 -6.82798113 33.20678319 -11.25 31.9375 C-22.24343609 29.04244982 -35.65074504 27.5051442 -46.1953125 32.66796875 C-49.50563114 35.11129917 -50.22984034 36.93915815 -51 41 C-50.00692053 45.76678145 -47.31946482 47.68993691 -43.4375 50.25 C-39.89521571 52.38571988 -36.30008094 54.3877625 -32.66015625 56.3515625 C-17.72396812 64.4189042 -5.09238549 72.32610286 1 89 C4.18642933 99.71798958 1.31549983 111.4742681 -3.3125 121.3125 C-10.66249126 134.84855428 -23.54464407 142.59603852 -38 147 C-39.00675781 147.31839844 -40.01351562 147.63679687 -41.05078125 147.96484375 C-61.54292868 153.39438709 -88.89718488 151.55140756 -108 142 C-107.3105043 134.52650061 -105.95100009 127.28454667 -104.4375 119.9375 C-104.08655273 118.20983398 -104.08655273 118.20983398 -103.72851562 116.44726562 C-103.15586745 113.63077154 -102.57961941 110.81506618 -102 108 C-98.89745796 109.01230979 -95.82678436 110.0654277 -92.7734375 111.21875 C-79.30053817 116.29818791 -63.09330085 120.30856648 -49 115 C-45.79002593 113.18041018 -42.69400614 111.38801229 -41 108 C-40.4312019 102.53998901 -40.4312019 102.53998901 -42.390625 97.60546875 C-46.12990655 93.87178492 -50.44454925 91.63722317 -55.0625 89.125 C-56.9632355 88.06428265 -58.86298566 87.00179761 -60.76171875 85.9375 C-61.66970215 85.43089844 -62.57768555 84.92429687 -63.51318359 84.40234375 C-76.17798419 77.26052021 -87.66093729 69.91802956 -91.9375 55.25 C-94.32188482 44.08029253 -92.62427395 32.57792869 -86.6484375 22.78515625 C-85.19096324 20.75482446 -83.64876274 18.87742326 -82 17 C-81.52175781 16.41734375 -81.04351562 15.8346875 -80.55078125 15.234375 C-62.01736036 -5.49317884 -24.92604074 -8.05246544 0 0 Z " fill="#1837CA" transform="translate(346,66)"/>
<path d="M0 0 C12.87 0 25.74 0 39 0 C38.31848842 7.49662739 37.45922051 14.43386864 35.87036133 21.71850586 C35.65552094 22.72852158 35.44068054 23.73853729 35.21932983 24.77915955 C34.51299287 28.09239107 33.79757719 31.40358998 33.08203125 34.71484375 C32.58160722 37.05331113 32.08175515 39.39190098 31.58244324 41.73060608 C30.26703779 47.88427835 28.94391967 54.03626713 27.61914062 60.18792725 C26.29289767 66.35280947 24.97386863 72.51923392 23.65429688 78.68554688 C21.65148666 88.0412464 19.64357053 97.39583238 17.63134766 106.74951172 C16.06393413 114.03554365 14.50304459 121.32285555 12.95849609 128.61376953 C12.67130727 129.96660432 12.38409261 131.31943362 12.09684753 132.67225647 C11.60216268 135.00546711 11.10954597 137.33911778 10.61958313 139.67332458 C10.4134288 140.64423538 10.20727448 141.61514618 9.99487305 142.61547852 C9.82392624 143.42759293 9.65297943 144.23970734 9.47685242 145.07643127 C9 147 9 147 8 149 C-4.87 149 -17.74 149 -31 149 C-29.87509044 137.75090443 -29.87509044 137.75090443 -28.92773438 133.40649414 C-28.7162677 132.42324158 -28.50480103 131.43998901 -28.28692627 130.42694092 C-28.0581781 129.39015198 -27.82942993 128.35336304 -27.59375 127.28515625 C-27.35323914 126.17303772 -27.11272827 125.06091919 -26.8649292 123.9151001 C-26.08147195 120.29649477 -25.29064454 116.67954102 -24.5 113.0625 C-23.67562046 109.26136187 -22.85334276 105.45977332 -22.03131104 101.65812683 C-21.47862336 99.10218563 -20.92535881 96.54636911 -20.371521 93.99067688 C-17.94334515 82.7757716 -15.58534913 71.54703617 -13.25 60.3125 C-10.37979762 46.53154578 -7.46788359 32.76026456 -4.5 19 C-4.32778931 18.19897858 -4.15557861 17.39795715 -3.97814941 16.57266235 C-3.49771262 14.33970069 -3.01492581 12.10726202 -2.53125 9.875 C-2.12229492 7.98394531 -2.12229492 7.98394531 -1.70507812 6.0546875 C-1 3 -1 3 0 0 Z " fill="#1937CA" transform="translate(205,65)"/>
<path d="M0 0 C23.1 0 46.2 0 70 0 C70.495 1.98 70.495 1.98 71 4 C70.30787918 3.83923477 69.61575836 3.67846954 68.90266418 3.51283264 C65.74078973 2.95420363 62.76802143 2.83900621 59.55737305 2.79467773 C58.27642258 2.77473251 56.99547211 2.75478729 55.67570496 2.73423767 C54.28771076 2.71725722 52.89971533 2.70037827 51.51171875 2.68359375 C50.08396325 2.66300576 48.65621359 2.64200882 47.22846985 2.62062073 C43.48193105 2.56559047 39.73533899 2.51609773 35.9887085 2.46777344 C32.16104426 2.41741879 28.33345677 2.36180582 24.50585938 2.30664062 C17.00397137 2.19929224 9.50201926 2.09779613 2 2 C2 2.99 2 3.98 2 5 C6.29 5.33 10.58 5.66 15 6 C15 6.66 15 7.32 15 8 C15.928125 8.144375 16.85625 8.28875 17.8125 8.4375 C21 9 21 9 24 10 C24 10.66 24 11.32 24 12 C25.65 12 27.3 12 29 12 C29 12.66 29 13.32 29 14 C30.27875 14.0825 31.5575 14.165 32.875 14.25 C35.0859375 14.51171875 35.0859375 14.51171875 37 15 C38.5 17.0625 38.5 17.0625 39 19 C35.56044485 17.88833578 32.16311847 16.69867165 28.78515625 15.4140625 C18.95958176 11.68389673 9.22342 8.46034472 -1 6 C-0.67 4.02 -0.34 2.04 0 0 Z " fill="#6275CD" transform="translate(11,65)"/>
<path d="M0 0 C-6.28937332 7.43486056 -20.6688533 10.12133504 -30 11 C-40.60259495 11.49016139 -51.51357394 11.84966832 -62 10 C-58.40085231 7.60056821 -56.66499517 7.72293455 -52.3828125 7.65625 C-51.40331131 7.6343158 -51.40331131 7.6343158 -50.40402222 7.61193848 C-48.31107807 7.56550813 -46.21822062 7.53136453 -44.125 7.5 C-28.10619975 7.91221085 -28.10619975 7.91221085 -13 4 C-12.34 4.33 -11.68 4.66 -11 5 C-11 4.34 -11 3.68 -11 3 C-9.68 2.67 -8.36 2.34 -7 2 C-7 1.34 -7 0.68 -7 0 C-4.3333581 -1.33332095 -2.83319697 -0.67102033 0 0 Z " fill="#6074CE" transform="translate(324,205)"/>
<path d="M0 0 C1.72974441 0.00015918 3.45949355 0.0058569 5.18920898 0.01586914 C6.09783188 0.01728409 7.00645477 0.01869904 7.94261169 0.02015686 C10.85687494 0.02577346 13.77106254 0.03832874 16.68530273 0.05102539 C18.65600475 0.05603825 20.62670797 0.06060153 22.59741211 0.06469727 C27.43923832 0.07574828 32.28100768 0.09302401 37.12280273 0.11352539 C37.12280273 1.10352539 37.12280273 2.09352539 37.12280273 3.11352539 C17.32280273 2.61852539 17.32280273 2.61852539 -2.87719727 2.11352539 C-3.20719727 4.42352539 -3.53719727 6.73352539 -3.87719727 9.11352539 C-4.53719727 9.11352539 -5.19719727 9.11352539 -5.87719727 9.11352539 C-5.75344727 9.91790039 -5.62969727 10.72227539 -5.50219727 11.55102539 C-6.04653316 16.72221635 -8.82107282 20.02050157 -11.87719727 24.11352539 C-12.87719727 22.11352539 -12.87719727 22.11352539 -12.2722168 19.97460938 C-11.93818848 19.1116626 -11.60416016 18.24871582 -11.26000977 17.35961914 C-10.90036133 16.42311523 -10.54071289 15.48661133 -10.17016602 14.52172852 C-9.78473633 13.54139648 -9.39930664 12.56106445 -9.00219727 11.55102539 C-8.62450195 10.56682617 -8.24680664 9.58262695 -7.85766602 8.56860352 C-4.59094735 0.13442419 -4.59094735 0.13442419 0 0 Z " fill="#6578CD" transform="translate(152.877197265625,64.886474609375)"/>
<path d="M0 0 C0.33 0 0.66 0 1 0 C0.88618103 2.93832645 0.75943449 5.8751065 0.625 8.8125 C0.5940625 9.64587891 0.563125 10.47925781 0.53125 11.33789062 C0.49257812 12.14033203 0.45390625 12.94277344 0.4140625 13.76953125 C0.36693115 14.87711792 0.36693115 14.87711792 0.31884766 16.00708008 C0 18 0 18 -2 21 C-2.33 22.98 -2.66 24.96 -3 27 C8.88 27 20.76 27 33 27 C33.33 25.68 33.66 24.36 34 23 C35.125 26.75 35.125 26.75 34 29 C21.13 29 8.26 29 -5 29 C-3.875 17.75 -3.875 17.75 -3.02734375 13.8671875 C-2.85009766 13.0421875 -2.67285156 12.2171875 -2.49023438 11.3671875 C-2.30783203 10.54476562 -2.12542969 9.72234375 -1.9375 8.875 C-1.75123047 8.01390625 -1.56496094 7.1528125 -1.37304688 6.265625 C-0.92029666 4.17600862 -0.46086838 2.08784092 0 0 Z " fill="#919FD5" transform="translate(179,185)"/>
<path d="M0 0 C0.99 0.33 1.98 0.66 3 1 C2.3052881 6.38401726 0.39733746 9.60599071 -2 15 C-15.2 15 -28.4 15 -42 15 C-42.33 14.34 -42.66 13.68 -43 13 C-42.06421005 10.64018187 -41.06652192 8.30368736 -40 6 C-39.67 6 -39.34 6 -39 6 C-39 7.98 -39 9.96 -39 12 C-20.685 12.495 -20.685 12.495 -2 13 C-2 10.36 -2 7.72 -2 5 C-1.34 5 -0.68 5 0 5 C0 3.35 0 1.7 0 0 Z " fill="#9FAADF" transform="translate(387,199)"/>
<path d="M0 0 C17.16 0 34.32 0 52 0 C51.67 1.32 51.34 2.64 51 4 C50.505 3.01 50.505 3.01 50 2 C34.49 2 18.98 2 3 2 C2.34 4.64 1.68 7.28 1 10 C-1 7 -1 7 0 0 Z " fill="#B8BFE7" transform="translate(390,190)"/>
<path d="M0 0 C3 2 3 2 3.4765625 3.91015625 C3.52554687 4.62042969 3.57453125 5.33070312 3.625 6.0625 C3.55620816 9.76850197 3.55620816 9.76850197 5 11 C5.22670908 12.55753051 5.39435092 14.12377359 5.53515625 15.69140625 C5.62216797 16.63564453 5.70917969 17.57988281 5.79882812 18.55273438 C5.88583984 19.54595703 5.97285156 20.53917969 6.0625 21.5625 C6.15337891 22.55958984 6.24425781 23.55667969 6.33789062 24.58398438 C6.56258814 27.05565702 6.78310351 29.52763256 7 32 C7.66 32 8.32 32 9 32 C9.33 35.96 9.66 39.92 10 44 C-0.56 44 -11.12 44 -22 44 C-21.67 43.34 -21.34 42.68 -21 42 C-11.43 42 -1.86 42 8 42 C7.4225 39.38707031 6.845 36.77414063 6.25 34.08203125 C5.69275856 31.54381046 5.13730949 29.00520364 4.58203125 26.46655273 C4.19588325 24.70572431 3.80788022 22.94530161 3.41796875 21.18530273 C2.85706386 18.65193002 2.30289927 16.11716159 1.75 13.58203125 C1.57500977 12.79850784 1.40001953 12.01498444 1.21972656 11.2077179 C0.3966566 7.40296002 -0.2183562 3.92017618 0 0 Z " fill="#A2B4F2" transform="translate(426,117)"/>
<path d="M0 0 C0.66 0 1.32 0 2 0 C1.37074149 6.54486849 0.31130215 12.85938475 -1.06640625 19.28515625 C-1.36393044 20.69769936 -1.36393044 20.69769936 -1.66746521 22.13877869 C-2.29513495 25.11421674 -2.92871418 28.08835938 -3.5625 31.0625 C-3.99192941 33.09301589 -4.42096965 35.12361413 -4.84960938 37.15429688 C-5.89524421 42.10382766 -6.94617681 47.05220645 -8 52 C-8.33 52 -8.66 52 -9 52 C-9 50.35 -9 48.7 -9 47 C-9.66 47 -10.32 47 -11 47 C-10.6913501 46.43684082 -10.3827002 45.87368164 -10.06469727 45.29345703 C-8.96755304 42.93010623 -8.44391371 40.86058076 -7.96484375 38.3046875 C-7.71057617 36.98404297 -7.71057617 36.98404297 -7.45117188 35.63671875 C-7.28166016 34.72535156 -7.11214844 33.81398437 -6.9375 32.875 C-6.59500811 31.05941101 -6.25007412 29.24428047 -5.90234375 27.4296875 C-5.75273193 26.62772949 -5.60312012 25.82577148 -5.44897461 24.99951172 C-5 23 -5 23 -4 21 C-3.65670114 18.96328575 -3.34961406 16.92039105 -3.0625 14.875 C-2.31407355 9.80483288 -1.35587232 4.93924918 0 0 Z " fill="#7B8DD7" transform="translate(228,132)"/>
<path d="M0 0 C1.62106548 2.94924939 2.48443268 5.63806994 3.125 8.9375 C3.29257812 9.77152344 3.46015625 10.60554687 3.6328125 11.46484375 C4 14 4 14 4 19 C-7.88 19 -19.76 19 -32 19 C-32.33 17.35 -32.66 15.7 -33 14 C-32.67 14.99 -32.34 15.98 -32 17 C-20.78 17 -9.56 17 2 17 C1.34 14.03 0.68 11.06 0 8 C-0.07303196 5.33433358 -0.09690565 2.66490533 0 0 Z " fill="#97A1D8" transform="translate(478,195)"/>
<path d="M0 0 C2.00240521 2.25270587 2.94368221 3.60577544 3.375 6.625 C3.189375 7.800625 3.189375 7.800625 3 9 C2.01 9.66 1.02 10.32 0 11 C-0.99 10.67 -1.98 10.34 -3 10 C-4.8947023 9.87368651 -6.79302156 9.79848759 -8.69140625 9.75390625 C-9.80064453 9.72103516 -10.90988281 9.68816406 -12.05273438 9.65429688 C-14.39638303 9.59299944 -16.74014017 9.53572061 -19.08398438 9.48242188 C-20.19193359 9.44826172 -21.29988281 9.41410156 -22.44140625 9.37890625 C-23.45920166 9.3538501 -24.47699707 9.32879395 -25.52563477 9.30297852 C-28 9 -28 9 -30 7 C-19.77 7 -9.54 7 1 7 C0.67 4.69 0.34 2.38 0 0 Z " fill="#1A34B3" transform="translate(435,154)"/>
<path d="M0 0 C0.33 0.66 0.66 1.32 1 2 C3.54941373 2.31241371 6.00361513 2.51303421 8.5625 2.625 C9.62887695 2.68300781 9.62887695 2.68300781 10.71679688 2.7421875 C12.47742425 2.83671783 14.23867728 2.91945817 16 3 C16 3.66 16 4.32 16 5 C16.928125 5.144375 17.85625 5.28875 18.8125 5.4375 C22 6 22 6 25 7 C25 7.66 25 8.32 25 9 C26.65 9 28.3 9 30 9 C30 9.66 30 10.32 30 11 C31.27875 11.0825 32.5575 11.165 33.875 11.25 C36.0859375 11.51171875 36.0859375 11.51171875 38 12 C39.5 14.0625 39.5 14.0625 40 16 C36.56044485 14.88833578 33.16311847 13.69867165 29.78515625 12.4140625 C19.95958176 8.68389673 10.22342 5.46034472 0 3 C0 2.01 0 1.02 0 0 Z " fill="#7284D3" transform="translate(10,68)"/>
<path d="M0 0 C1.24394531 0.00322266 2.48789062 0.00644531 3.76953125 0.00976562 C5.05472656 0.01814453 6.33992188 0.02652344 7.6640625 0.03515625 C8.97246094 0.03966797 10.28085937 0.04417969 11.62890625 0.04882812 C14.84900531 0.06058031 18.0690102 0.07701082 21.2890625 0.09765625 C21.2890625 0.42765625 21.2890625 0.75765625 21.2890625 1.09765625 C20.53810303 1.11747559 19.78714355 1.13729492 19.01342773 1.15771484 C15.58414293 1.25345026 12.15542708 1.36293258 8.7265625 1.47265625 C7.54513672 1.50359375 6.36371094 1.53453125 5.14648438 1.56640625 C-0.83928213 1.76760849 -6.05324032 2.12724187 -11.7109375 4.09765625 C-13.79127392 4.6507213 -15.87451198 5.19302516 -17.9609375 5.72265625 C-18.97671875 5.98304687 -19.9925 6.2434375 -21.0390625 6.51171875 C-23.7109375 7.09765625 -23.7109375 7.09765625 -26.7109375 7.09765625 C-26.7109375 7.75765625 -26.7109375 8.41765625 -26.7109375 9.09765625 C-28.3609375 9.09765625 -30.0109375 9.09765625 -31.7109375 9.09765625 C-28.29597244 6.13339724 -24.57634155 4.82491109 -20.3359375 3.47265625 C-19.68882812 3.25609375 -19.04171875 3.03953125 -18.375 2.81640625 C-12.17932745 0.79281965 -6.50586097 -0.0298434 0 0 Z " fill="#8A98DA" transform="translate(310.7109375,62.90234375)"/>
<path d="M0 0 C0.33 0 0.66 0 1 0 C1.88409855 4.0544356 2.7565576 8.11118536 3.6184082 12.17041016 C3.91308565 13.55032357 4.21090888 14.92956918 4.51196289 16.30810547 C4.9447008 18.29226241 5.36598641 20.27856332 5.78515625 22.265625 C6.17006226 24.05661621 6.17006226 24.05661621 6.56274414 25.88378906 C7 29 7 29 6 33 C5.34 30.36 4.68 27.72 4 25 C3.34 25 2.68 25 2 25 C0.08041738 16.60182604 -0.22588024 8.59599799 0 0 Z " fill="#7889D7" transform="translate(471,161)"/>
<path d="M0 0 C0.33 0.99 0.66 1.98 1 3 C1.66 3 2.32 3 3 3 C4.85102717 9.33307408 6.37968409 15.42465139 7 22 C7.66 21.01 8.32 20.02 9 19 C10.2316708 21.46334161 9.95802288 22.66581389 9.625 25.375 C9.53476563 26.14585937 9.44453125 26.91671875 9.3515625 27.7109375 C9.02205749 29.85638125 8.54062765 31.89989076 8 34 C6.85425706 29.80249761 5.71512602 25.60327335 4.58203125 21.40234375 C4.19581473 19.97412023 3.8078102 18.54637896 3.41796875 17.11914062 C2.85724248 15.06505153 2.30301429 13.00930189 1.75 10.953125 C1.41484375 9.71723633 1.0796875 8.48134766 0.734375 7.20800781 C0 4 0 4 0 0 Z " fill="#7A8ADB" transform="translate(59,104)"/>
<path d="M0 0 C2.86724686 0.57344937 3.8614515 0.8614515 6 3 C6 4.32 6 5.64 6 7 C6.99 7.33 7.98 7.66 9 8 C8.79375 9.11375 8.5875 10.2275 8.375 11.375 C8.25125 12.57125 8.1275 13.7675 8 15 C8.66 15.66 9.32 16.32 10 17 C7.6875 19.0625 7.6875 19.0625 5 21 C4.01 20.67 3.02 20.34 2 20 C2.33 19.175 2.66 18.35 3 17.5 C4.2906862 12.98259829 5.23902699 8.54269887 3.1015625 4.15625 C1.91159834 2.31457487 1.91159834 2.31457487 0 0 Z " fill="#4359C9" transform="translate(301,160)"/>
<path d="M0 0 C7.61490087 2.82380331 13.92164794 7.70092385 20 13 C19.67 13.66 19.34 14.32 19 15 C18.34 14.67 17.68 14.34 17 14 C16.01 14.66 15.02 15.32 14 16 C13.01 15.67 12.02 15.34 11 15 C11.165 14.38125 11.33 13.7625 11.5 13.125 C12.07634644 11.03936614 12.07634644 11.03936614 12 9 C10.68 8.67 9.36 8.34 8 8 C8 7.34 8 6.68 8 6 C7.05125 5.7525 6.1025 5.505 5.125 5.25 C2 4 2 4 0.625 1.875 C0.41875 1.25625 0.2125 0.6375 0 0 Z " fill="#4459C2" transform="translate(318,126)"/>
<path d="M0 0 C1.3156303 3.94689089 0.32967123 5.20693707 -1.30859375 8.98046875 C-2.05786133 10.72553711 -2.05786133 10.72553711 -2.82226562 12.50585938 C-3.36047066 13.73316346 -3.89888483 14.96037585 -4.4375 16.1875 C-4.97288473 17.42605247 -5.50740076 18.66498085 -6.04101562 19.90429688 C-7.35216084 22.94001148 -8.67212114 25.97157644 -10 29 C-10.33 29 -10.66 29 -11 29 C-11 26.36 -11 23.72 -11 21 C-10.01 21 -9.02 21 -8 21 C-7.505 16.545 -7.505 16.545 -7 12 C-6.34 12 -5.68 12 -5 12 C-5 11.01 -5 10.02 -5 9 C-4.34 9 -3.68 9 -3 9 C-3.061875 8.071875 -3.12375 7.14375 -3.1875 6.1875 C-3 3 -3 3 -1.5 1.125 C-1.005 0.75375 -0.51 0.3825 0 0 Z " fill="#677BD1" transform="translate(140,182)"/>
<path d="M0 0 C12.21 0 24.42 0 37 0 C36.67 1.32 36.34 2.64 36 4 C36 3.01 36 2.02 36 1 C24.45 1 12.9 1 1 1 C0.67 4.96 0.34 8.92 0 13 C-0.99 13.33 -1.98 13.66 -3 14 C-2.69147815 12.041036 -2.3780582 10.08284287 -2.0625 8.125 C-1.88847656 7.03445312 -1.71445313 5.94390625 -1.53515625 4.8203125 C-1 2 -1 2 0 0 Z " fill="#1E36AD" transform="translate(206,66)"/>
<path d="M0 0 C2.69356552 2.69356552 2.76854243 4.85477498 3.5078125 8.58203125 C3.63815887 9.23322433 3.76850525 9.88441742 3.90280151 10.55534363 C4.17699975 11.93403676 4.44742234 13.31348536 4.71435547 14.69360352 C5.12175725 16.79576762 5.54229867 18.89497412 5.96484375 20.99414062 C8.1803478 32.20603787 8.1803478 32.20603787 8 37 C5.81005752 33.71508627 5.64722661 32.16904361 5.375 28.3125 C5.30023438 27.31863281 5.22546875 26.32476562 5.1484375 25.30078125 C5.09945312 24.54152344 5.05046875 23.78226563 5 23 C4.34 23 3.68 23 3 23 C2.34 18.71 1.68 14.42 1 10 C0.67 10 0.34 10 0 10 C0 6.7 0 3.4 0 0 Z " fill="#7E8DD9" transform="translate(92,75)"/>
<path d="M0 0 C1.10960573 3.32881718 0.9412896 3.87364252 -0.21484375 7.01171875 C-0.48876953 7.76904297 -0.76269531 8.52636719 -1.04492188 9.30664062 C-1.33947266 10.09232422 -1.63402344 10.87800781 -1.9375 11.6875 C-2.22818359 12.48478516 -2.51886719 13.28207031 -2.81835938 14.10351562 C-3.53739302 16.07201757 -4.26763703 18.03641812 -5 20 C-7.21224819 16.68162771 -7.35715143 15.83937792 -7 12 C-5.96004621 8.08017418 -4.77167726 5.00265037 -2 2 C-1.34 2 -0.68 2 0 2 C0 1.34 0 0.68 0 0 Z " fill="#5169D1" transform="translate(417,122)"/>
<path d="M0 0 C0.83354507 0.00565979 1.66709015 0.01131958 2.52589417 0.01715088 C5.16500457 0.03938305 7.80271245 0.08955195 10.44140625 0.140625 C12.24021464 0.16070713 14.03904451 0.17895489 15.83789062 0.1953125 C20.22709558 0.23920429 24.61526386 0.30813769 29.00390625 0.390625 C29.00390625 0.720625 29.00390625 1.050625 29.00390625 1.390625 C27.89877686 1.41568115 26.79364746 1.4407373 25.6550293 1.46655273 C21.55676581 1.56069009 17.45866931 1.66089541 13.3605957 1.76293945 C11.58654688 1.80626434 9.81245702 1.84794119 8.03833008 1.88793945 C5.4889692 1.9457012 2.93981445 2.00937862 0.390625 2.07421875 C-0.40322098 2.09093124 -1.19706696 2.10764374 -2.01496887 2.12486267 C-8.10204542 2.16623315 -8.10204542 2.16623315 -12.99609375 5.390625 C-14.99609375 7.390625 -14.99609375 7.390625 -17.99609375 8.390625 C-16.77835379 4.60210069 -14.46965591 3.09730546 -11.0607605 1.2286377 C-7.41855265 -0.24967178 -3.87997938 -0.10074869 0 0 Z " fill="#9FAEE8" transform="translate(421.99609375,64.609375)"/>
<path d="M0 0 C0.33 0 0.66 0 1 0 C1.17574672 5.85556111 0.50890876 11.40384699 -0.375 17.1875 C-0.50132812 18.07630859 -0.62765625 18.96511719 -0.7578125 19.88085938 C-0.88671875 20.73873047 -1.015625 21.59660156 -1.1484375 22.48046875 C-1.26364746 23.25285889 -1.37885742 24.02524902 -1.49755859 24.82104492 C-2.03460514 27.15007332 -2.76801514 28.95389484 -4 31 C-4.66 31.33 -5.32 31.66 -6 32 C-5.26734562 25.06083669 -3.89372905 18.32021002 -2.4375 11.5 C-2.20353516 10.39140625 -1.96957031 9.2828125 -1.72851562 8.140625 C-1.1552633 5.42645073 -0.57902176 2.71294824 0 0 Z " fill="#7F8FD8" transform="translate(186,152)"/>
<path d="M0 0 C1.02328619 3.19411474 0.96256253 5.4215884 0.25 8.6875 C0.01023438 9.86892578 0.01023438 9.86892578 -0.234375 11.07421875 C-0.48703125 11.70972656 -0.7396875 12.34523438 -1 13 C-1.99 13.33 -2.98 13.66 -4 14 C-4 16.31 -4 18.62 -4 21 C-4.66 21 -5.32 21 -6 21 C-6 21.99 -6 22.98 -6 24 C-6.99 24.33 -7.98 24.66 -9 25 C-6.68860831 16.38296958 -3.39204534 8.23311977 0 0 Z " fill="#6A7ED3" transform="translate(139,89)"/>
<path d="M0 0 C0.33 0 0.66 0 1 0 C2.06630801 5.43040303 1.79974414 9.5725988 0.5625 14.9375 C0.41490234 15.62134766 0.26730469 16.30519531 0.11523438 17.00976562 C-0.24587294 18.67551872 -0.62142712 20.33812923 -1 22 C-1.99 22.33 -2.98 22.66 -4 23 C-3.32545897 15.1753241 -1.73123042 7.65443386 0 0 Z " fill="#5768C9" transform="translate(196,105)"/>
<path d="M0 0 C-4.63947062 5.56736474 -13.83526189 7.94972324 -20.8125 8.8125 C-22.3903125 8.9053125 -22.3903125 8.9053125 -24 9 C-22.68 8.67 -21.36 8.34 -20 8 C-20 7.34 -20 6.68 -20 6 C-18.824375 5.7834375 -18.824375 5.7834375 -17.625 5.5625 C-15.03578982 5.12201075 -15.03578982 5.12201075 -13 4 C-12.34 4.33 -11.68 4.66 -11 5 C-11 4.34 -11 3.68 -11 3 C-9.68 2.67 -8.36 2.34 -7 2 C-7 1.34 -7 0.68 -7 0 C-4.3333581 -1.33332095 -2.83319697 -0.67102033 0 0 Z " fill="#7183D7" transform="translate(324,205)"/>
<path d="M0 0 C0.33 0 0.66 0 1 0 C1.31732638 7.77449624 0.11855299 15.32992235 -1 23 C-0.01 23 0.98 23 2 23 C2.33 23.99 2.66 24.98 3 26 C-1.75 25.125 -1.75 25.125 -4 24 C-3.28621973 15.86290495 -1.67226118 7.98268072 0 0 Z " fill="#8091D8" transform="translate(242,184)"/>
<path d="M0 0 C0.33 0 0.66 0 1 0 C1 2.64 1 5.28 1 8 C0.34 8 -0.32 8 -1 8 C-0.87625 8.804375 -0.7525 9.60875 -0.625 10.4375 C-1.16933589 15.60869096 -3.94387555 18.90697618 -7 23 C-8 21 -8 21 -7.37915039 18.84521484 C-7.03875732 17.97590332 -6.69836426 17.1065918 -6.34765625 16.2109375 C-5.98349609 15.26992187 -5.61933594 14.32890625 -5.24414062 13.359375 C-4.85419922 12.37453125 -4.46425781 11.3896875 -4.0625 10.375 C-3.48338867 8.88613281 -3.48338867 8.88613281 -2.89257812 7.3671875 C-1.93518863 4.90870583 -0.97074241 2.45323318 0 0 Z " fill="#7B8BD7" transform="translate(148,66)"/>
<path d="M0 0 C3 2 3 2 3.4765625 3.91015625 C3.52554687 4.62042969 3.57453125 5.33070312 3.625 6.0625 C3.55620816 9.76850197 3.55620816 9.76850197 5 11 C5.23481693 13.18292774 5.41363323 15.37203174 5.5625 17.5625 C5.64628906 18.76003906 5.73007812 19.95757812 5.81640625 21.19140625 C5.87699219 22.11824219 5.93757813 23.04507813 6 24 C5.34 24 4.68 24 4 24 C3.32492934 20.93929066 2.66145078 17.8761791 2 14.8125 C1.80921875 13.94818359 1.6184375 13.08386719 1.421875 12.19335938 C1.24140625 11.35224609 1.0609375 10.51113281 0.875 9.64453125 C0.70742188 8.87471924 0.53984375 8.10490723 0.3671875 7.31176758 C-0.02550915 4.83939753 -0.06185285 2.49924191 0 0 Z " fill="#7082D4" transform="translate(426,117)"/>
<path d="M0 0 C3.93991833 3.93991833 4.13103122 9.78466665 4.1875 15.125 C4.11317301 18.82991449 3.76530559 22.36479844 3 26 C2.67 26 2.34 26 2 26 C1.34 17.42 0.68 8.84 0 0 Z " fill="#8191D6" transform="translate(344,150)"/>
<path d="M0 0 C2.33927322 4.33375978 3.18751784 8.71308181 4.1875 13.5 C4.47270508 14.78197266 4.47270508 14.78197266 4.76367188 16.08984375 C4.93833984 16.91613281 5.11300781 17.74242188 5.29296875 18.59375 C5.4530542 19.34333984 5.61313965 20.09292969 5.77807617 20.86523438 C6.01793948 23.1725664 5.69372947 24.80147824 5 27 C4 26 4 26 3.9375 22.9375 C3.958125 21.968125 3.97875 20.99875 4 20 C3.34 20 2.68 20 2 20 C-0.29612756 6.3667426 -0.29612756 6.3667426 0 0 Z " fill="#7C8CD7" transform="translate(456,90)"/>
<path d="M0 0 C0.33 0 0.66 0 1 0 C0.93981323 2.89799287 0.85272994 5.79096237 0.75 8.6875 C0.73582031 9.50412109 0.72164062 10.32074219 0.70703125 11.16210938 C0.49697625 16.35046785 -0.12890697 19.19858665 -4 23 C-3.32545897 15.1753241 -1.73123042 7.65443386 0 0 Z " fill="#7D8ED7" transform="translate(179,185)"/>
<path d="M0 0 C0.33 0 0.66 0 1 0 C1.51917486 8.34525522 -0.04170706 15.91038514 -2 24 C-2.33 24 -2.66 24 -3 24 C-3 22.35 -3 20.7 -3 19 C-3.66 19 -4.32 19 -5 19 C-4.55527344 18.24976563 -4.55527344 18.24976563 -4.1015625 17.484375 C-2.63567729 14.17833601 -2.02973593 10.78423785 -1.375 7.25 C-1.17390625 6.20392578 -1.17390625 6.20392578 -0.96875 5.13671875 C-0.64056736 3.42548068 -0.31956498 1.71286829 0 0 Z " fill="#697BD1" transform="translate(222,160)"/>
<path d="M0 0 C0.33 0 0.66 0 1 0 C1 2.64 1 5.28 1 8 C0.34 8 -0.32 8 -1 8 C-1.061875 9.051875 -1.12375 10.10375 -1.1875 11.1875 C-2.13408616 15.6291735 -3.59156258 17.11593757 -7 20 C-5.07443364 13.14381674 -2.7527517 6.56747868 0 0 Z " fill="#687BCF" transform="translate(118,142)"/>
<path d="M0 0 C-0.65503282 4.05819183 -1.94559121 7.53971282 -3.5625 11.3125 C-4.01753906 12.38113281 -4.47257813 13.44976562 -4.94140625 14.55078125 C-5.46541016 15.76314453 -5.46541016 15.76314453 -6 17 C-6.33 17 -6.66 17 -7 17 C-7.04254356 15.00045254 -7.04080783 12.99958364 -7 11 C-6.67 10.67 -6.34 10.34 -6 10 C-5.87625 8.88625 -5.7525 7.7725 -5.625 6.625 C-5 3 -5 3 -3.5625 1.0625 C-2 0 -2 0 0 0 Z " fill="#6478D0" transform="translate(152,156)"/>
<path d="M0 0 C1.07174763 3.65188082 0.76411467 6.26432828 0 10 C-0.66 10 -1.32 10 -2 10 C-2.0825 10.7425 -2.165 11.485 -2.25 12.25 C-3.1396946 15.51221354 -4.48503749 16.80954878 -7 19 C-5.17778624 12.38757278 -2.94776396 6.19479329 0 0 Z " fill="#7283D3" transform="translate(365,162)"/>
<path d="M0 0 C0.33 0 0.66 0 1 0 C1.23035424 5.98921036 0.52395909 11.47074967 -0.5625 17.36328125 C-1.08184397 20.04779465 -1.08184397 20.04779465 -1 23 C-1.99 23.33 -2.98 23.66 -4 24 C-3.4533512 15.81911794 -1.82876132 7.98214061 0 0 Z " fill="#8898DB" transform="translate(191,128)"/>
<path d="M0 0 C1.53166168 4.08443115 0.63081652 7.79455657 0 12 C-0.99 12.33 -1.98 12.66 -3 13 C-3 13.99 -3 14.98 -3 16 C-3.99 16.33 -4.98 16.66 -6 17 C-4.33846988 11.14340094 -2.52958084 5.5409866 0 0 Z " fill="#647AD1" transform="translate(382,121)"/>
<path d="M0 0 C0.33 0 0.66 0 1 0 C0.48400816 7.8822202 -1.0921453 15.34458305 -3 23 C-3.33 23 -3.66 23 -4 23 C-4.67620721 14.67889465 -2.74493505 7.81816322 0 0 Z " fill="#8F9FE0" transform="translate(218,184)"/>
<path d="M0 0 C0.66 0 1.32 0 2 0 C1.85892253 1.45880109 1.71197585 2.91703551 1.5625 4.375 C1.48128906 5.18710938 1.40007812 5.99921875 1.31640625 6.8359375 C1 9 1 9 0 11 C-4.19469571 10.40075776 -8.00999834 9.42500059 -12 8 C-12 7.67 -12 7.34 -12 7 C-5.9453125 6.8046875 -5.9453125 6.8046875 -4 7 C-3.34 7.66 -2.68 8.32 -2 9 C-0.50256881 7.50256881 -0.66797307 6.01175761 -0.4375 3.9375 C-0.293125 2.638125 -0.14875 1.33875 0 0 Z " fill="#7E90D9" transform="translate(348,90)"/>
<path d="M0 0 C0.33 0 0.66 0 1 0 C1 1.98 1 3.96 1 6 C7.6 6.33 14.2 6.66 21 7 C21 7.33 21 7.66 21 8 C13.74 8 6.48 8 -1 8 C-1 2 -1 2 0 0 Z " fill="#4C5DB8" transform="translate(347,205)"/>
<path d="M0 0 C1.03930664 0.01353516 1.03930664 0.01353516 2.09960938 0.02734375 C3.79572395 0.05073843 5.49165871 0.08660359 7.1875 0.125 C7.1875 0.455 7.1875 0.785 7.1875 1.125 C6.15302734 1.18107422 6.15302734 1.18107422 5.09765625 1.23828125 C-1.29896465 1.68578148 -6.84320248 2.78149801 -12.8125 5.125 C-12.8125 4.135 -12.8125 3.145 -12.8125 2.125 C-8.53365394 0.0146565 -4.67385858 -0.11628739 0 0 Z " fill="#5166C5" transform="translate(312.8125,92.875)"/>
<path d="M0 0 C2.97 0.33 5.94 0.66 9 1 C9 1.66 9 2.32 9 3 C10.27875 3.0825 11.5575 3.165 12.875 3.25 C15.0859375 3.51171875 15.0859375 3.51171875 17 4 C18.5 6.0625 18.5 6.0625 19 8 C14.65328707 6.58632741 10.3864361 5.02739359 6.125 3.375 C4.97257812 2.92898437 3.82015625 2.48296875 2.6328125 2.0234375 C1.76398437 1.68570313 0.89515625 1.34796875 0 1 C0 0.67 0 0.34 0 0 Z " fill="#8495DE" transform="translate(31,76)"/>
<path d="M0 0 C0.33 1.98 0.66 3.96 1 6 C-1.49092811 7.24546405 -2.41080733 6.7767578 -5 6 C-5 6.99 -5 7.98 -5 9 C-5.66 9 -6.32 9 -7 9 C-5.99432671 5.98298013 -3.90847918 0 0 0 Z " fill="#5269CF" transform="translate(267,81)"/>
<path d="M0 0 C0.33 0 0.66 0 1 0 C1 3.63 1 7.26 1 11 C-0.65 11.33 -2.3 11.66 -4 12 C-3.52309796 10.37433394 -3.04340334 8.74948689 -2.5625 7.125 C-2.29566406 6.22007812 -2.02882813 5.31515625 -1.75390625 4.3828125 C-1 2 -1 2 0 0 Z " fill="#5F75D2" transform="translate(357,181)"/>
<path d="M0 0 C0.66 0 1.32 0 2 0 C1.40895235 4.84659077 0.02055843 8.60748167 -2 13 C-2.33 13 -2.66 13 -3 13 C-3 10.36 -3 7.72 -3 5 C-2.34 5 -1.68 5 -1 5 C-0.67 3.35 -0.34 1.7 0 0 Z " fill="#697DD1" transform="translate(344,176)"/>
<path d="M0 0 C3.60244452 0.30878096 4.99345998 0.99447732 7.8125 3.375 C10 6 10 6 10 9 C8 7.625 8 7.625 6 6 C6 5.34 6 4.68 6 4 C4.35 3.67 2.7 3.34 1 3 C0.67 2.01 0.34 1.02 0 0 Z " fill="#6C7BD1" transform="translate(81,66)"/>
<path d="M0 0 C5.28 0.33 10.56 0.66 16 1 C15.67 1.99 15.34 2.98 15 4 C9.76119922 3.44854729 5.02649303 2.57077907 0 1 C0 0.67 0 0.34 0 0 Z " fill="#7A8BD9" transform="translate(246,210)"/>
<path d="M0 0 C0.66 0 1.32 0 2 0 C1.03644647 9.41002278 1.03644647 9.41002278 0 14 C-0.66 14 -1.32 14 -2 14 C-2.25328119 8.93437617 -1.33583899 4.84241633 0 0 Z " fill="#6E84D3" transform="translate(228,132)"/>
<path d="M0 0 C0.33 0 0.66 0 1 0 C1.28875 1.03125 1.5775 2.0625 1.875 3.125 C2.55369947 5.54195136 3.30823766 7.82737477 4.1875 10.1875 C5 13 5 13 4 17 C3.34 14.36 2.68 11.72 2 9 C1.34 9 0.68 9 0 9 C0 6.03 0 3.06 0 0 Z " fill="#576DCC" transform="translate(473,177)"/>
<path d="M0 0 C1.98 0.66 3.96 1.32 6 2 C6 2.33 6 2.66 6 3 C4.35 3 2.7 3 1 3 C1.33 5.97 1.66 8.94 2 12 C1.01 11.34 0.02 10.68 -1 10 C-0.67 6.7 -0.34 3.4 0 0 Z " fill="#8291D9" transform="translate(244,174)"/>
<path d="M0 0 C0.66 1.32 1.32 2.64 2 4 C1.34 4.66 0.68 5.32 0 6 C-0.40047444 8.32275177 -0.7397104 10.65739357 -1 13 C-1.66 13 -2.32 13 -3 13 C-2.88557539 11.39504433 -2.75805306 9.79101881 -2.625 8.1875 C-2.55539063 7.29417969 -2.48578125 6.40085937 -2.4140625 5.48046875 C-2 3 -2 3 0 0 Z " fill="#1F39B5" transform="translate(258,95)"/>
<path d="M0 0 C-1.27721526 4.99275057 -3.17330957 7.57611908 -7 11 C-6.55123384 9.35153231 -6.09069512 7.70626545 -5.625 6.0625 C-5.36976563 5.14597656 -5.11453125 4.22945313 -4.8515625 3.28515625 C-3.77874192 0.406257 -3.04027387 0 0 0 Z " fill="#5A71CD" transform="translate(147,78)"/>
<path d="M0 0 C0.66 0 1.32 0 2 0 C1.33501617 4.38889325 -0.18757677 7.9811485 -2 12 C-2.33 12 -2.66 12 -3 12 C-3 9.36 -3 6.72 -3 4 C-2.01 4 -1.02 4 0 4 C0 2.68 0 1.36 0 0 Z " fill="#7988D7" transform="translate(132,199)"/>
<path d="M0 0 C0.33 0 0.66 0 1 0 C0.67 3.63 0.34 7.26 0 11 C-1.32 11.33 -2.64 11.66 -4 12 C-3.52309796 10.37433394 -3.04340334 8.74948689 -2.5625 7.125 C-2.29566406 6.22007812 -2.02882813 5.31515625 -1.75390625 4.3828125 C-1 2 -1 2 0 0 Z " fill="#6D82D7" transform="translate(352,193)"/>
<path d="M0 0 C2.97 0.495 2.97 0.495 6 1 C6 1.66 6 2.32 6 3 C7.65 3 9.3 3 11 3 C11.33 4.32 11.66 5.64 12 7 C7.69235185 5.43358249 3.93828536 3.31663844 0 1 C0 0.67 0 0.34 0 0 Z " fill="#7B8BD6" transform="translate(284,150)"/>
<path d="M0 0 C0.33 0.66 0.66 1.32 1 2 C1.66 2 2.32 2 3 2 C4.26237731 4.52475462 4.09856404 6.31200466 4.0625 9.125 C4.05347656 10.03507812 4.04445313 10.94515625 4.03515625 11.8828125 C4.02355469 12.58148438 4.01195312 13.28015625 4 14 C2.30566082 10.9530371 1.50532888 8.17178534 0.875 4.75 C0.70742188 3.85796875 0.53984375 2.9659375 0.3671875 2.046875 C0.18542969 1.03367187 0.18542969 1.03367187 0 0 Z " fill="#8494DA" transform="translate(55,90)"/>
<path d="M0 0 C0.66 0.33 1.32 0.66 2 1 C1.32829194 4.8063457 0.27253436 8.35206816 -1 12 C-1.33 12 -1.66 12 -2 12 C-2 9.03 -2 6.06 -2 3 C-1.34 3 -0.68 3 0 3 C0 2.01 0 1.02 0 0 Z " fill="#6B80D3" transform="translate(409,141)"/>
<path d="M0 0 C0.33 0 0.66 0 1 0 C1 2.64 1 5.28 1 8 C0.01 8.33 -0.98 8.66 -2 9 C-2.33 9.99 -2.66 10.98 -3 12 C-4 10 -4 10 -3.22265625 7.6171875 C-2.83980469 6.71226563 -2.45695312 5.80734375 -2.0625 4.875 C-1.68222656 3.96492188 -1.30195313 3.05484375 -0.91015625 2.1171875 C-0.60980469 1.41851562 -0.30945313 0.71984375 0 0 Z " fill="#7886D5" transform="translate(387,109)"/>
<path d="M0 0 C1.73684533 3.47369066 2.30084112 5.07619937 2.625 8.75 C2.69976562 9.54921875 2.77453125 10.3484375 2.8515625 11.171875 C2.90054687 11.77515625 2.94953125 12.3784375 3 13 C2.01 12.67 1.02 12.34 0 12 C0 8.04 0 4.08 0 0 Z " fill="#7D8CD9" transform="translate(451,66)"/>
<path d="M0 0 C0.99 0 1.98 0 3 0 C3 0.99 3 1.98 3 3 C4.32 3.33 5.64 3.66 7 4 C6.01 4.99 5.02 5.98 4 7 C3.34 6.67 2.68 6.34 2 6 C2 5.34 2 4.68 2 4 C1.01 3.67 0.02 3.34 -1 3 C-0.67 2.01 -0.34 1.02 0 0 Z " fill="#3B53C7" transform="translate(322,198)"/>
<path d="M0 0 C1.13643966 3.40931897 0.86747764 4.00335456 -0.4375 7.1875 C-0.86869141 8.26064453 -0.86869141 8.26064453 -1.30859375 9.35546875 C-1.53675781 9.89816406 -1.76492188 10.44085938 -2 11 C-2.33 11 -2.66 11 -3 11 C-3.36923077 3.49230769 -3.36923077 3.49230769 -1.5 1 C-1.005 0.67 -0.51 0.34 0 0 Z " fill="#7686D6" transform="translate(423,106)"/>
<path d="M0 0 C0.33 0 0.66 0 1 0 C0.88490339 1.41750563 0.75746342 2.83401169 0.625 4.25 C0.55539062 5.03890625 0.48578125 5.8278125 0.4140625 6.640625 C-0.01507113 9.085877 -0.78600638 10.84836903 -2 13 C-2.05416188 11.39620659 -2.09286638 9.79188594 -2.125 8.1875 C-2.14820313 7.29417969 -2.17140625 6.40085937 -2.1953125 5.48046875 C-2 3 -2 3 0 0 Z " fill="#8292D9" transform="translate(352,76)"/>
<path d="M0 0 C5.19209404 -0.21192221 9.126739 0.4087311 14 2 C14 2.33 14 2.66 14 3 C8.78020872 3.1799928 4.92737019 2.97094808 0 1 C0 0.67 0 0.34 0 0 Z " fill="#93A2E3" transform="translate(332,64)"/>
<path d="M0 0 C0.66 0 1.32 0 2 0 C2.96070434 2.88211302 3.10581883 4.69850044 3.0625 7.6875 C3.05347656 8.49574219 3.04445313 9.30398437 3.03515625 10.13671875 C3.02355469 10.75160156 3.01195313 11.36648437 3 12 C0.7655402 7.96707255 0.45503257 4.55032566 0 0 Z " fill="#8190D6" transform="translate(68,138)"/>
<path d="M0 0 C3.59391114 1.33488128 6.75490696 2.96022723 10 5 C8.3125 5.6875 8.3125 5.6875 6 6 C3.3125 4.75 3.3125 4.75 1 3 C0.67 2.01 0.34 1.02 0 0 Z " fill="#7388D5" transform="translate(318,126)"/>
<path d="M0 0 C0.66 0 1.32 0 2 0 C1.67 3.63 1.34 7.26 1 11 C0.01 11.33 -0.98 11.66 -2 12 C-1.34 8.04 -0.68 4.08 0 0 Z " fill="#2438BB" transform="translate(205,68)"/>
<path d="M0 0 C0.99 0.33 1.98 0.66 3 1 C2.34 3.97 1.68 6.94 1 10 C-1.56687367 6.1496895 -0.83288724 4.41430237 0 0 Z " fill="#596ECB" transform="translate(390,190)"/>
<path d="M0 0 C5.49152542 0.61016949 5.49152542 0.61016949 7.875 2.4375 C9 4 9 4 9 6 C7.0625 5.625 7.0625 5.625 5 5 C4.67 4.34 4.34 3.68 4 3 C1.97536745 2.34786708 1.97536745 2.34786708 0 2 C0 1.34 0 0.68 0 0 Z " fill="#1C35BA" transform="translate(290,151)"/>
<path d="M0 0 C1.39195915 4.17587745 -0.17676781 6.13474776 -2 10 C-2.33 10 -2.66 10 -3 10 C-3.29296875 3.9453125 -3.29296875 3.9453125 -3 2 C-2.01 1.34 -1.02 0.68 0 0 Z " fill="#7084D5" transform="translate(156,144)"/>
<path d="M0 0 C0.33 0 0.66 0 1 0 C1 2.64 1 5.28 1 8 C-0.98 8.99 -0.98 8.99 -3 10 C-2.01 6.7 -1.02 3.4 0 0 Z " fill="#7786D7" transform="translate(122,132)"/>
<path d="M0 0 C0.33 0 0.66 0 1 0 C1.33 2.31 1.66 4.62 2 7 C1.34 7 0.68 7 0 7 C0 8.65 0 10.3 0 12 C-0.99 12.495 -0.99 12.495 -2 13 C-1.48041715 8.62065881 -0.94324258 4.31196609 0 0 Z " fill="#98A5E5" transform="translate(196,105)"/>
<path d="M0 0 C0.99 0 1.98 0 3 0 C2.01 2.97 1.02 5.94 0 9 C-0.33 9 -0.66 9 -1 9 C-1.125 2.25 -1.125 2.25 0 0 Z " fill="#6F83D0" transform="translate(177,90)"/>
<path d="M0 0 C0.33 0 0.66 0 1 0 C1 2.64 1 5.28 1 8 C-0.98 8.99 -0.98 8.99 -3 10 C-2.01 6.7 -1.02 3.4 0 0 Z " fill="#7282D7" transform="translate(118,142)"/>
<path d="M0 0 C1.32 0.66 2.64 1.32 4 2 C3.67 2.66 3.34 3.32 3 4 C2.34 3.67 1.68 3.34 1 3 C0.01 3.66 -0.98 4.32 -2 5 C-2.99 4.67 -3.98 4.34 -5 4 C-4.01 3.01 -3.02 2.02 -2 1 C-1.34 1.33 -0.68 1.66 0 2 C0 1.34 0 0.68 0 0 Z " fill="#5167D4" transform="translate(334,137)"/>
<path d="M0 0 C2.31 0.33 4.62 0.66 7 1 C5.6875 2.5 5.6875 2.5 4 4 C3.01 4 2.02 4 1 4 C0.67 2.68 0.34 1.36 0 0 Z " fill="#495DC8" transform="translate(248,177)"/>
<path d="M0 0 C0.33 0 0.66 0 1 0 C1 2.64 1 5.28 1 8 C-0.98 8.99 -0.98 8.99 -3 10 C-2.01 6.7 -1.02 3.4 0 0 Z " fill="#7688D5" transform="translate(397,85)"/>
<path d="M0 0 C0.99 0.33 1.98 0.66 3 1 C2.45276317 4.37462715 1.9451 6.08235 0 9 C0 6.03 0 3.06 0 0 Z " fill="#7484D4" transform="translate(387,199)"/>
<path d="M0 0 C0.33 0 0.66 0 1 0 C1.08096803 1.45742463 1.13917774 2.91612807 1.1875 4.375 C1.22230469 5.18710938 1.25710937 5.99921875 1.29296875 6.8359375 C1.19628906 7.55007812 1.09960938 8.26421875 1 9 C0.01 9.66 -0.98 10.32 -2 11 C-1.855625 10.29875 -1.71125 9.5975 -1.5625 8.875 C-0.98521625 5.92443859 -0.48304859 2.96729849 0 0 Z " fill="#273DBA" transform="translate(182,177)"/>
<path d="M0 0 C0.99 0.33 1.98 0.66 3 1 C3 2.65 3 4.3 3 6 C2.01 6.33 1.02 6.66 0 7 C0 4.69 0 2.38 0 0 Z " fill="#2C42C3" transform="translate(338,184)"/>
<path d="M0 0 C0.99 0 1.98 0 3 0 C3 2.31 3 4.62 3 7 C2.34 7 1.68 7 1 7 C0.67 4.69 0.34 2.38 0 0 Z " fill="#2036BA" transform="translate(81,184)"/>
<path d="M0 0 C1.53202706 0.25195908 3.05257128 0.57596777 4.5625 0.9375 C5.38878906 1.13214844 6.21507812 1.32679688 7.06640625 1.52734375 C8.02353516 1.76130859 8.02353516 1.76130859 9 2 C9 2.33 9 2.66 9 3 C2.375 3.25 2.375 3.25 -1 1 C-0.67 0.67 -0.34 0.34 0 0 Z " fill="#818EDB" transform="translate(255,179)"/>
<path d="M0 0 C0.33 0.66 0.66 1.32 1 2 C1.66 2.33 2.32 2.66 3 3 C2.67 3.66 2.34 4.32 2 5 C2.99 5 3.98 5 5 5 C4.34 6.32 3.68 7.64 3 9 C0 3.375 0 3.375 0 0 Z " fill="#788BD7" transform="translate(255,121)"/>
<path d="M0 0 C0.33 0.99 0.66 1.98 1 3 C1.66 3 2.32 3 3 3 C3 4.65 3 6.3 3 8 C1.35 7.01 -0.3 6.02 -2 5 C-1.34 3.35 -0.68 1.7 0 0 Z " fill="#5067DB" transform="translate(403,73)"/>
<path d="M0 0 C0.33 0.66 0.66 1.32 1 2 C0.67 2.66 0.34 3.32 0 4 C0.66 4 1.32 4 2 4 C1.34 5.32 0.68 6.64 0 8 C-0.99 8 -1.98 8 -3 8 C-1.125 1.125 -1.125 1.125 0 0 Z " fill="#1A37BF" transform="translate(181,76)"/>
<path d="M0 0 C0.99 0.33 1.98 0.66 3 1 C2.25 5.75 2.25 5.75 0 8 C0 5.36 0 2.72 0 0 Z " fill="#687AD3" transform="translate(183,74)"/>
</svg>
